<svg width="64" height="64" viewBox="0 0 64 64" fill="none" xmlns="http://www.w3.org/2000/svg">
<g id="Icon">
<circle id="Background" cx="31.5873" cy="32.4224" r="31" fill="#111C55" stroke="#273270"/>
<path id="Vector" d="M24.0614 23.0632C23.9268 23.0673 23.7944 23.0966 23.6721 23.1495C23.5498 23.2024 23.4401 23.2777 23.3495 23.371C23.2588 23.4643 23.1891 23.5738 23.1444 23.6928C23.0997 23.8118 23.0809 23.938 23.0892 24.0639C23.2237 26.2238 23.8577 31.494 26.8933 34.7806C30.5282 38.7404 35.2621 40.1048 40.119 39.9032C40.3794 39.8886 40.6241 39.782 40.8038 39.605C40.9835 39.4279 41.0849 39.1935 41.0873 38.9492V35.4898C41.0843 35.167 40.9656 34.8546 40.7503 34.6026C40.535 34.3506 40.2355 34.1737 39.9 34.1002L37.4677 33.5963C37.1669 33.5362 36.8537 33.5621 36.5688 33.6705C36.2838 33.779 36.0401 33.965 35.8693 34.2046L35.3313 34.9678C35.2819 35.0376 35.2081 35.0891 35.1225 35.1135C35.0369 35.1378 34.945 35.1334 34.8625 35.101C33.6253 34.6006 28.6954 32.4407 28.1536 28.7977C28.143 28.7273 28.1548 28.6556 28.1876 28.5916C28.2205 28.5275 28.2728 28.474 28.338 28.4377L29.314 27.8798C29.5817 27.7243 29.792 27.4956 29.9164 27.2245C30.0408 26.9535 30.0733 26.6532 30.0095 26.3642L29.4754 24.0459C29.3973 23.7211 29.2015 23.4317 28.9213 23.2269C28.641 23.0221 28.2937 22.9147 27.9384 22.9228L24.0614 23.0632Z" stroke="#FDFDFD"/>
</g>
</svg>
