<svg width="63" height="64" viewBox="0 0 63 64" fill="none" xmlns="http://www.w3.org/2000/svg">
<g id="Icon">
<circle id="Background" cx="31.5" cy="32.3994" r="31.5" fill="#7F0B0C"/>
<g id="&#240;&#159;&#166;&#134; illustration &#34;product digital product design man plant&#34;">
<path id="Vector" d="M28.215 57.6758H22.4888C22.4492 57.6758 22.4113 57.663 22.3833 57.6401C22.3553 57.6173 22.3396 57.5863 22.3396 57.554C22.3396 57.5217 22.3553 57.4907 22.3833 57.4678C22.4113 57.445 22.4492 57.4321 22.4888 57.4321H28.215C28.2545 57.4321 28.2925 57.445 28.3205 57.4678C28.3485 57.4907 28.3642 57.5217 28.3642 57.554C28.3642 57.5863 28.3485 57.6173 28.3205 57.6401C28.2925 57.663 28.2545 57.6758 28.215 57.6758Z" fill="#262424"/>
<path id="Vector_2" d="M43.1819 57.6758H30.6568C30.6172 57.6758 30.5793 57.663 30.5513 57.6401C30.5233 57.6173 30.5076 57.5863 30.5076 57.554C30.5076 57.5217 30.5233 57.4907 30.5513 57.4678C30.5793 57.445 30.6172 57.4321 30.6568 57.4321H43.1819C43.2215 57.4321 43.2594 57.445 43.2874 57.4678C43.3154 57.4907 43.3311 57.5217 43.3311 57.554C43.3311 57.5863 43.3154 57.6173 43.2874 57.6401C43.2594 57.663 43.2215 57.6758 43.1819 57.6758Z" fill="#262424"/>
<path id="Vector_3" d="M51.8507 57.6758H44.7483C44.7088 57.6758 44.6708 57.663 44.6428 57.6401C44.6148 57.6173 44.5991 57.5863 44.5991 57.554C44.5991 57.5217 44.6148 57.4907 44.6428 57.4678C44.6708 57.445 44.7088 57.4321 44.7483 57.4321H51.8507C51.8903 57.4321 51.9282 57.445 51.9562 57.4678C51.9842 57.4907 51.9999 57.5217 51.9999 57.554C51.9999 57.5863 51.9842 57.6173 51.9562 57.6401C51.9282 57.663 51.8903 57.6758 51.8507 57.6758Z" fill="#262424"/>
<path id="Vector_4" d="M43.5677 58.8994H32.4537C32.4141 58.8994 32.3761 58.8866 32.3481 58.8638C32.3202 58.8409 32.3044 58.8099 32.3044 58.7776C32.3044 58.7453 32.3202 58.7143 32.3481 58.6914C32.3761 58.6686 32.4141 58.6558 32.4537 58.6558H43.5702C43.6098 58.656 43.6476 58.6691 43.6754 58.6922C43.7031 58.7152 43.7185 58.7463 43.7182 58.7786C43.7179 58.8109 43.7018 58.8418 43.6736 58.8645C43.6454 58.8871 43.6073 58.8997 43.5677 58.8994Z" fill="#262424"/>
<path id="Vector_5" d="M29.9669 58.8994H26.6346C26.595 58.8994 26.557 58.8866 26.5291 58.8638C26.5011 58.8409 26.4854 58.8099 26.4854 58.7776C26.4854 58.7453 26.5011 58.7143 26.5291 58.6914C26.557 58.6686 26.595 58.6558 26.6346 58.6558H29.9669C30.0065 58.6558 30.0444 58.6686 30.0724 58.6914C30.1004 58.7143 30.1161 58.7453 30.1161 58.7776C30.1161 58.8099 30.1004 58.8409 30.0724 58.8638C30.0444 58.8866 30.0065 58.8994 29.9669 58.8994Z" fill="#262424"/>
<path id="Vector_6" d="M48.1633 58.8994H46.7369C46.6973 58.8994 46.6593 58.8866 46.6313 58.8638C46.6034 58.8409 46.5876 58.8099 46.5876 58.7776C46.5876 58.7453 46.6034 58.7143 46.6313 58.6914C46.6593 58.6686 46.6973 58.6558 46.7369 58.6558H48.1633C48.2029 58.6558 48.2408 58.6686 48.2688 58.6914C48.2968 58.7143 48.3125 58.7453 48.3125 58.7776C48.3125 58.8099 48.2968 58.8409 48.2688 58.8638C48.2408 58.8866 48.2029 58.8994 48.1633 58.8994Z" fill="#262424"/>
<path id="Vector_7" d="M22.6461 54.0494C22.3855 54.2301 21.8379 54.3857 21.1629 54.4149C20.7675 54.4315 20.3711 54.4041 19.9847 54.3337C19.067 54.1656 18.0897 53.7342 17.3273 52.8631C15.5865 50.873 13.3772 50.5416 13.3772 50.5416C13.3772 50.5416 14.9807 49.3772 17.2835 49.2314C18.2435 49.171 19.2072 49.2987 20.0946 49.6038C20.119 49.6119 20.1443 49.62 20.1662 49.6286C23.7816 50.8953 22.6461 54.0494 22.6461 54.0494Z" fill="#DE9244"/>
<path id="Vector_8" d="M21.1634 54.414C20.7679 54.4306 20.3716 54.4032 19.9851 54.3328C19.2435 53.6505 18.5602 52.7156 18.8208 51.7193C19.1754 50.3656 18.0484 49.5862 17.2849 49.2309C18.2449 49.1706 19.2086 49.2982 20.096 49.6033C20.1204 49.6114 20.1458 49.6195 20.1676 49.6281C20.6446 50.1999 20.6262 51.0199 20.0856 51.9224C19.4887 52.9162 20.4173 53.8609 21.1634 54.414Z" fill="white"/>
<path id="Vector_9" d="M23.7343 50.0243C23.2727 49.6623 22.86 49.2609 22.5033 48.827C22.2136 48.474 21.9871 48.089 21.8308 47.6837C21.3305 46.3434 21.8975 45.1567 22.8012 44.1068C24.2008 42.4823 25.5412 40.5259 25.5412 40.5259C25.5412 40.5259 26.8259 42.0846 27.3307 44.2429C27.3791 44.45 27.4197 44.6626 27.4526 44.8805C27.472 45.0101 27.4874 45.1405 27.5023 45.2733C27.7878 48.3936 23.7343 50.0243 23.7343 50.0243Z" fill="#DE9244"/>
<path id="Vector_10" d="M27.4506 44.882C26.6335 44.8597 25.4836 45.1066 25.3518 46.6373C25.1906 48.5056 23.5881 48.9024 22.5034 48.8264C22.2137 48.4735 21.9872 48.0885 21.8309 47.6832C22.3601 47.7904 23.8701 47.922 24.357 46.087C24.8201 44.3495 26.2744 44.0803 27.3308 44.2427C27.3779 44.4512 27.4178 44.6643 27.4506 44.882Z" fill="white"/>
<path id="Vector_11" d="M23.2368 45.1991C22.255 45.7023 22.2983 46.8196 23.2368 46.3676C24.1753 45.9155 24.1281 44.7418 23.2368 45.1991Z" fill="white"/>
<path id="Vector_12" d="M31.728 52.2723C31.53 52.6876 31.2205 53.0613 30.8223 53.366C30.302 53.7697 29.6739 54.0475 29.077 54.2388C28.4009 54.4525 27.692 54.5892 26.9702 54.6449C26.9702 54.6449 24.8136 53.3749 26.1411 50.9621C26.5206 50.2716 27.1393 49.6888 27.8321 49.2067C28.3184 48.8713 28.8405 48.5723 29.3923 48.3132C30.1345 47.9583 30.9175 47.6635 31.73 47.4331C31.73 47.4331 32.752 50.1006 31.728 52.2723Z" fill="#DE9244"/>
<path id="Vector_13" d="M30.7844 49.2145C29.8449 49.3867 30.4413 51.2452 31.1102 51.1421C31.7792 51.0389 31.5086 49.0813 30.7844 49.2145Z" fill="white"/>
<path id="Vector_14" d="M30.8221 53.3657C30.3019 53.7694 29.6737 54.0472 29.0769 54.2385C29.3887 53.4644 29.4598 52.5282 28.2139 52.1408C26.797 51.6993 27.2655 50.2506 27.83 49.2085C28.3162 48.873 28.8384 48.574 29.3902 48.3149C28.6586 49.5212 28.5984 50.9549 30.0801 51.8175C30.7764 52.222 30.9176 52.8008 30.8221 53.3657Z" fill="white"/>
<path id="Vector_15" d="M26.4712 57.5548H25.7665C25.7665 57.5548 26.5961 52.9451 30.0791 49.7451C30.0791 49.7451 27.3113 53.0215 26.4712 57.5548Z" fill="white"/>
<path id="Vector_16" d="M26.4713 57.6768H25.7665C25.745 57.677 25.7236 57.6734 25.7039 57.6662C25.6842 57.659 25.6667 57.6484 25.6525 57.6351C25.6383 57.6218 25.6278 57.6062 25.6217 57.5893C25.6157 57.5723 25.6142 57.5546 25.6173 57.5371C25.6173 57.5253 25.8342 56.3561 26.4738 54.8111C27.0647 53.3839 28.1504 51.3325 29.9663 49.6641C29.9915 49.6408 30.0267 49.6263 30.0646 49.6235C30.1025 49.6207 30.1402 49.6299 30.1701 49.6491C30.2001 49.6683 30.2199 49.6961 30.2255 49.7268C30.2312 49.7575 30.2222 49.7888 30.2005 49.8144C30.1732 49.8469 27.4417 53.122 26.6195 57.5717C26.6146 57.6009 26.5969 57.6276 26.5696 57.647C26.5423 57.6663 26.5074 57.6769 26.4713 57.6768ZM25.9426 57.4332H26.3435C26.8279 54.9183 27.9072 52.7816 28.7612 51.3918C26.7896 53.9501 26.0873 56.7797 25.9431 57.4332H25.9426Z" fill="#262424"/>
<path id="Vector_17" d="M25.3517 57.5542H24.4809C24.4809 57.5542 23.0499 52.9936 17.3273 50.6831C17.3273 50.6835 22.6148 51.6493 25.3517 57.5542Z" fill="white"/>
<path id="Vector_18" d="M25.3518 57.6764H24.4809C24.4477 57.6764 24.4155 57.6675 24.3893 57.6509C24.3631 57.6344 24.3444 57.6112 24.3361 57.585C24.3326 57.5736 23.9686 56.4397 22.9172 55.0417C21.9488 53.7543 20.1816 51.9721 17.2611 50.7931C17.228 50.78 17.2019 50.7574 17.1879 50.7297C17.174 50.7019 17.1731 50.6708 17.1854 50.6425C17.1977 50.6142 17.2224 50.5906 17.2548 50.5763C17.2871 50.5619 17.3248 50.5579 17.3606 50.5649C17.4158 50.575 18.7313 50.8232 20.401 51.806C21.9359 52.7097 24.0651 54.4329 25.492 57.5115C25.5006 57.53 25.5035 57.5499 25.5005 57.5695C25.4975 57.5891 25.4888 57.6078 25.475 57.624C25.4612 57.6403 25.4427 57.6535 25.4213 57.6626C25.3998 57.6717 25.3759 57.6765 25.3518 57.6764ZM24.5943 57.4327H25.1344C23.7353 54.5142 21.7001 52.8713 20.2259 52.0034C19.9195 51.8231 19.6246 51.6679 19.3476 51.5351C20.8847 52.447 22.1862 53.5978 23.1773 54.9215C24.0889 56.1359 24.4863 57.1322 24.5953 57.4327H24.5943Z" fill="#262424"/>
<path id="Vector_19" d="M25.0613 43.5229C25.0613 43.5229 21.331 50.9147 25.3517 57.5543H26.1395C26.1395 57.5543 22.0756 52.2777 25.0613 43.5229Z" fill="white"/>
<path id="Vector_20" d="M26.1396 57.6766H25.3518C25.324 57.6766 25.2967 57.6703 25.2731 57.6583C25.2494 57.6463 25.2304 57.6291 25.218 57.6088C24.2929 56.0809 23.7016 54.3869 23.4608 52.5726C23.2689 51.1239 23.2987 49.596 23.5499 48.0316C23.9776 45.3689 24.9136 43.4946 24.9231 43.4759C24.9378 43.4474 24.9652 43.4246 24.9997 43.412C25.0343 43.3994 25.0734 43.3979 25.1092 43.408C25.145 43.4181 25.1747 43.4389 25.1924 43.4662C25.2101 43.4935 25.2145 43.5253 25.2046 43.5551C23.6727 48.047 24.0428 51.5967 24.6227 53.7825C25.2513 56.1515 26.2555 57.476 26.264 57.489C26.2784 57.5073 26.2865 57.5285 26.2875 57.5502C26.2885 57.572 26.2823 57.5936 26.2696 57.6128C26.2569 57.6319 26.2382 57.6479 26.2153 57.6592C26.1925 57.6704 26.1663 57.6764 26.1396 57.6766ZM25.4433 57.4329H25.8795C25.5811 56.9886 24.8445 55.7677 24.3332 53.8479C23.9519 52.3888 23.7795 50.8984 23.8194 49.4068C23.8372 48.6571 23.9019 47.9087 24.0134 47.1645C23.9512 47.4544 23.894 47.757 23.8433 48.071C23.4593 50.4798 23.426 54.0522 25.4448 57.4329H25.4433Z" fill="#262424"/>
<path id="Vector_21" d="M34.2292 50.1685L34.2725 52.4449L35.6189 52.8595L35.9536 50.1685H34.2292Z" fill="white"/>
<path id="Vector_22" d="M35.6189 52.9815C35.6009 52.9815 35.5831 52.9789 35.5662 52.9738L34.2198 52.5591C34.1918 52.5505 34.1677 52.5352 34.1505 52.5152C34.1333 52.4952 34.1238 52.4714 34.1233 52.447L34.0801 50.1726C34.0801 50.1403 34.0958 50.1093 34.1238 50.0865C34.1518 50.0636 34.1897 50.0508 34.2293 50.0508H35.9536C35.9746 50.0507 35.9953 50.0542 36.0144 50.0611C36.0336 50.0679 36.0507 50.078 36.0648 50.0907C36.0789 50.1033 36.0895 50.1182 36.0961 50.1344C36.1026 50.1506 36.1049 50.1678 36.1029 50.1848L35.7681 52.8759C35.7633 52.9053 35.7455 52.9323 35.718 52.9517C35.6905 52.9712 35.6553 52.9818 35.6189 52.9815ZM34.4198 52.3601L35.4896 52.6899L35.788 50.2904H34.381L34.4198 52.3601Z" fill="#262424"/>
<path id="Vector_23" d="M33.0276 31.4298L33.5284 50.4778L36.8608 50.6809C36.8608 50.6809 39.0362 35.8218 39.2133 35.1566C39.3904 34.4913 39.4321 32.9931 39.267 31.4875C38.9542 28.64 33.0276 28.1023 33.0276 31.4298Z" fill="#88C0C2"/>
<path id="Vector_24" d="M36.3828 49.7227H36.3673C36.3478 49.7211 36.3289 49.7163 36.3117 49.7087C36.2944 49.7011 36.2792 49.6908 36.2668 49.6784C36.2544 49.666 36.2452 49.6517 36.2395 49.6364C36.2339 49.6211 36.2321 49.605 36.2341 49.5891C36.247 49.4855 37.5272 39.2097 38.2673 35.5772C38.2739 35.5453 38.2957 35.5169 38.328 35.4981C38.3603 35.4794 38.4003 35.4719 38.4394 35.4773C38.4784 35.4827 38.5132 35.5005 38.5362 35.5269C38.5591 35.5532 38.5683 35.5859 38.5617 35.6178C37.8251 39.2418 36.5439 49.5099 36.532 49.6134C36.5281 49.6435 36.5108 49.6714 36.4832 49.6916C36.4556 49.7117 36.4198 49.7228 36.3828 49.7227Z" fill="#262424"/>
<path id="Vector_25" d="M36.5513 42.2824C36.5722 41.4323 35.9475 40.7327 35.1561 40.7198C34.3648 40.7068 33.7063 41.3855 33.6855 42.2356C33.6647 43.0857 34.2894 43.7854 35.0807 43.7983C35.8721 43.8112 36.5305 43.1326 36.5513 42.2824Z" fill="white"/>
<path id="Vector_26" d="M36.6813 50.2432H36.6683L33.9279 50.0503C33.8883 50.0475 33.8517 50.032 33.8261 50.0071C33.8006 49.9823 33.7881 49.9502 33.7916 49.9179C33.795 49.8856 33.814 49.8557 33.8444 49.8348C33.8748 49.814 33.9141 49.8038 33.9537 49.8066L36.6942 49.9995C36.7338 50.0009 36.771 50.0151 36.7978 50.0389C36.8246 50.0628 36.8386 50.0943 36.8369 50.1266C36.8352 50.159 36.8179 50.1894 36.7887 50.2113C36.7595 50.2331 36.7208 50.2446 36.6813 50.2432Z" fill="#262424"/>
<path id="Vector_27" d="M31.1107 57.0193V57.5546H36.1023C36.1023 57.5546 36.1187 57.2751 36.1341 56.8052C36.1654 55.8809 36.1953 54.2181 36.1023 52.5001L33.7383 52.2715C33.7383 52.2715 33.1474 54.1564 31.9304 55.6246C31.804 55.7769 31.6707 55.9251 31.5325 56.0661C31.2619 56.3348 31.113 56.6714 31.1107 57.0193Z" fill="#88C0C2"/>
<path id="Vector_28" d="M33.7227 55.6443C33.6972 55.6443 33.672 55.639 33.6497 55.6288C33.6274 55.6185 33.6087 55.6038 33.5954 55.586C33.582 55.5682 33.5745 55.5479 33.5736 55.527C33.5726 55.5061 33.5783 55.4854 33.59 55.4668C34.4588 54.086 34.9418 52.5613 34.9468 52.5463C34.9512 52.5304 34.9595 52.5155 34.9711 52.5023C34.9828 52.4891 34.9976 52.4779 35.0146 52.4695C35.0316 52.461 35.0505 52.4554 35.0702 52.453C35.0899 52.4506 35.11 52.4514 35.1293 52.4555C35.1486 52.4595 35.1667 52.4667 35.1825 52.4765C35.1984 52.4864 35.2117 52.4987 35.2216 52.5128C35.2315 52.5269 35.2379 52.5425 35.2403 52.5586C35.2427 52.5748 35.2412 52.5911 35.2357 52.6068C35.2308 52.6222 34.7384 54.1729 33.8555 55.5785C33.8429 55.5984 33.8239 55.615 33.8005 55.6266C33.777 55.6383 33.7501 55.6444 33.7227 55.6443Z" fill="#262424"/>
<path id="Vector_29" d="M35.3119 55.757C35.5567 55.757 35.7551 55.4642 35.7551 55.1031C35.7551 54.742 35.5567 54.4492 35.3119 54.4492C35.0672 54.4492 34.8688 54.742 34.8688 55.1031C34.8688 55.4642 35.0672 55.757 35.3119 55.757Z" fill="white"/>
<path id="Vector_30" d="M35.312 55.8791C34.9797 55.8791 34.7196 55.5383 34.7196 55.1034C34.7196 54.6684 34.9797 54.3276 35.312 54.3276C35.6442 54.3276 35.9043 54.6684 35.9043 55.1034C35.9043 55.5383 35.6442 55.8791 35.312 55.8791ZM35.312 54.5709C35.1762 54.5709 35.018 54.8032 35.018 55.103C35.018 55.4027 35.1762 55.635 35.312 55.635C35.4477 55.635 35.6059 55.4027 35.6059 55.103C35.6059 54.8032 35.4477 54.5709 35.312 54.5709Z" fill="#262424"/>
<path id="Vector_31" d="M31.1107 57.0192V57.5545H36.1023C36.1023 57.5545 36.1187 57.2751 36.1341 56.8052H33.8462C33.8462 56.8052 33.7741 55.4783 31.9299 55.6245C31.8035 55.7768 31.6703 55.9251 31.532 56.066C31.2616 56.3348 31.1128 56.6714 31.1107 57.0192Z" fill="white"/>
<path id="Vector_32" d="M36.1022 57.6764H31.1106C31.0711 57.6764 31.0331 57.6636 31.0051 57.6407C30.9771 57.6179 30.9614 57.5869 30.9614 57.5546V57.0193C30.9643 56.6437 31.1247 56.2803 31.416 55.9897C31.5468 55.8581 31.6786 55.7127 31.8074 55.5568C31.8197 55.542 31.8359 55.5296 31.8547 55.5205C31.8735 55.5113 31.8946 55.5057 31.9164 55.504C32.5445 55.4544 33.0494 55.5612 33.4179 55.822C33.8158 56.1063 33.9421 56.4921 33.9804 56.6838H36.134C36.1539 56.6838 36.1737 56.6871 36.192 56.6934C36.2104 56.6997 36.227 56.709 36.241 56.7206C36.2549 56.7323 36.2658 56.7461 36.273 56.7613C36.2803 56.7764 36.2838 56.7926 36.2832 56.8089C36.2678 57.2747 36.2514 57.5578 36.2514 57.5607C36.2495 57.5919 36.2329 57.6214 36.2051 57.6429C36.1774 57.6645 36.1405 57.6765 36.1022 57.6764ZM31.2593 57.4327H35.9589C35.9639 57.3275 35.9719 57.1541 35.9803 56.9271H33.8461C33.8077 56.9271 33.7707 56.915 33.7429 56.8933C33.715 56.8716 33.6986 56.8419 33.6969 56.8105C33.6969 56.8061 33.6621 56.3167 33.2185 56.0039C32.9275 55.8009 32.5222 55.7103 32.0129 55.7412C31.892 55.8845 31.7686 56.0198 31.6458 56.1428C31.3976 56.39 31.2606 56.6992 31.2579 57.0189V57.4323L31.2593 57.4327Z" fill="#262424"/>
<path id="Vector_33" d="M47.0701 50.1685L47.3774 52.4449L46.0306 52.8595L45.3457 50.1685H47.0701Z" fill="white"/>
<path id="Vector_34" d="M46.0317 52.9817C45.9974 52.9817 45.9641 52.972 45.9375 52.9543C45.9108 52.9367 45.8925 52.912 45.8855 52.8846L45.2006 50.1935C45.1961 50.1758 45.1965 50.1574 45.2018 50.1398C45.207 50.1222 45.217 50.1058 45.231 50.0918C45.245 50.0777 45.2627 50.0664 45.2827 50.0586C45.3028 50.0509 45.3247 50.0469 45.3468 50.0469H47.0712C47.1081 50.0467 47.1438 50.0577 47.1713 50.0777C47.1989 50.0977 47.2164 50.1254 47.2204 50.1553L47.5273 52.4297C47.5309 52.4565 47.5234 52.4836 47.5061 52.5066C47.4889 52.5296 47.4627 52.5473 47.4318 52.5568L46.0815 52.9747C46.0655 52.9793 46.0487 52.9817 46.0317 52.9817ZM45.5299 50.2906L46.1421 52.6953L47.2169 52.3643L46.9374 50.2906H45.5299Z" fill="#262424"/>
<path id="Vector_35" d="M45.7038 31.4279L48.1215 50.4759L44.7892 50.679C44.7892 50.679 39.3052 36.261 39.1282 35.5945C38.9511 34.928 39.1003 32.9952 39.0993 31.4856C39.0988 28.4103 45.7038 28.1004 45.7038 31.4279Z" fill="#88C0C2"/>
<path id="Vector_36" d="M38.9537 35.2459C38.932 35.2458 38.9107 35.242 38.891 35.2345L38.5926 35.1212C38.39 35.0438 38.2186 34.9209 38.0983 34.767C37.978 34.613 37.9138 34.4343 37.9132 34.2516V31.7742C37.9132 31.7419 37.9289 31.7109 37.9569 31.688C37.9849 31.6652 38.0228 31.6523 38.0624 31.6523C38.102 31.6523 38.1399 31.6652 38.1679 31.688C38.1959 31.7109 38.2116 31.7419 38.2116 31.7742V34.2516C38.212 34.3883 38.2601 34.5219 38.3502 34.637C38.4403 34.7521 38.5687 34.8439 38.7204 34.9015L39.0188 35.0148C39.049 35.0269 39.0732 35.047 39.0876 35.0718C39.102 35.0966 39.1057 35.1246 39.0982 35.1514C39.0907 35.1781 39.0723 35.202 39.0461 35.2191C39.0198 35.2363 38.9873 35.2457 38.9537 35.2459Z" fill="#262424"/>
<path id="Vector_37" d="M39.0426 35.4322C39.0031 35.4322 38.9651 35.4194 38.9371 35.3966C38.9092 35.3737 38.8934 35.3427 38.8934 35.3104V31.7039C38.8934 31.6716 38.9092 31.6406 38.9371 31.6177C38.9651 31.5949 39.0031 31.582 39.0426 31.582C39.0822 31.582 39.1202 31.5949 39.1481 31.6177C39.1761 31.6406 39.1919 31.6716 39.1919 31.7039V35.3104C39.1919 35.3427 39.1761 35.3737 39.1481 35.3966C39.1202 35.4194 39.0822 35.4322 39.0426 35.4322Z" fill="#262424"/>
<path id="Vector_38" d="M45.133 49.7229C45.1007 49.7229 45.0693 49.7144 45.0435 49.6986C45.0176 49.6827 44.9988 49.6605 44.9897 49.6352C42.9406 43.8778 39.7117 35.7143 39.6794 35.6331C39.6672 35.6023 39.6704 35.5689 39.6884 35.5401C39.7064 35.5113 39.7377 35.4895 39.7754 35.4796C39.813 35.4696 39.854 35.4723 39.8893 35.487C39.9245 35.5017 39.9512 35.5272 39.9634 35.558C39.9957 35.6392 43.2256 43.8071 45.2762 49.5666C45.2828 49.5847 45.2841 49.6039 45.28 49.6226C45.2759 49.6413 45.2665 49.6589 45.2526 49.6741C45.2387 49.6893 45.2206 49.7016 45.1999 49.7101C45.1791 49.7185 45.1562 49.723 45.133 49.7229Z" fill="#262424"/>
<path id="Vector_39" d="M44.8675 43.7859C45.6572 43.7443 46.2431 43.0229 46.1761 42.1745C46.1091 41.3262 45.4146 40.6722 44.6249 40.7138C43.8352 40.7553 43.2493 41.4768 43.3163 42.3251C43.3833 43.1735 44.0778 43.8275 44.8675 43.7859Z" fill="white"/>
<path id="Vector_40" d="M44.9678 50.2432C44.9282 50.2446 44.8896 50.233 44.8605 50.2111C44.8313 50.1892 44.814 50.1588 44.8124 50.1264C44.8107 50.0941 44.8249 50.0626 44.8517 50.0388C44.8785 50.015 44.9158 50.0009 44.9554 49.9995L47.6959 49.8066C47.7154 49.8052 47.7352 49.807 47.7539 49.8118C47.7727 49.8167 47.7901 49.8245 47.8051 49.8348C47.8202 49.8452 47.8326 49.8578 47.8417 49.8721C47.8508 49.8863 47.8563 49.9019 47.858 49.9179C47.8597 49.9339 47.8575 49.95 47.8516 49.9653C47.8457 49.9806 47.8361 49.9948 47.8234 50.0071C47.8108 50.0194 47.7953 50.0296 47.7778 50.037C47.7604 50.0444 47.7413 50.0489 47.7217 50.0503L44.9812 50.2432H44.9683H44.9678Z" fill="#262424"/>
<path id="Vector_41" d="M50.5397 57.0193V57.5546H45.5477C45.5477 57.5546 45.5312 57.2751 45.5158 56.8052C45.4845 55.8809 45.4546 54.2181 45.5477 52.5001L47.9116 52.2715C47.9116 52.2715 48.5025 54.1564 49.7195 55.6246C49.8459 55.7769 49.9792 55.9251 50.1174 56.0661C50.3882 56.3347 50.5373 56.6713 50.5397 57.0193Z" fill="#88C0C2"/>
<path id="Vector_42" d="M47.927 55.645C47.8996 55.645 47.8727 55.6388 47.8492 55.6272C47.8258 55.6155 47.8068 55.5987 47.7942 55.5788C46.9104 54.1732 46.4185 52.6229 46.414 52.6071C46.4054 52.5761 46.4118 52.5436 46.4321 52.5165C46.4523 52.4893 46.4847 52.4697 46.5224 52.4618C46.5601 52.4539 46.6001 52.4584 46.6338 52.4742C46.6676 52.49 46.6924 52.516 46.703 52.5466C46.708 52.562 47.1914 54.0871 48.0598 55.4675C48.0715 55.4861 48.0771 55.5068 48.0762 55.5277C48.0752 55.5486 48.0677 55.5689 48.0544 55.5867C48.0411 55.6045 48.0224 55.6192 48.0001 55.6294C47.9778 55.6397 47.9526 55.645 47.927 55.645Z" fill="#262424"/>
<path id="Vector_43" d="M46.3382 55.757C46.5829 55.757 46.7813 55.4642 46.7813 55.1031C46.7813 54.742 46.5829 54.4492 46.3382 54.4492C46.0934 54.4492 45.895 54.742 45.895 55.1031C45.895 55.4642 46.0934 55.757 46.3382 55.757Z" fill="white"/>
<path id="Vector_44" d="M46.3381 55.8791C46.0059 55.8791 45.7457 55.5383 45.7457 55.1034C45.7457 54.6684 46.0059 54.3276 46.3381 54.3276C46.6703 54.3276 46.9304 54.6684 46.9304 55.1034C46.9304 55.5383 46.6703 55.8791 46.3381 55.8791ZM46.3381 54.5709C46.2182 54.5709 46.0441 54.7781 46.0441 55.103C46.0441 55.4279 46.2182 55.635 46.3381 55.635C46.4739 55.635 46.632 55.4027 46.632 55.103C46.632 54.8032 46.4739 54.5709 46.3381 54.5709Z" fill="#262424"/>
<path id="Vector_45" d="M50.5397 57.0192V57.5545H45.5477C45.5477 57.5545 45.5313 57.2751 45.5159 56.8052H47.8037C47.8037 56.8052 47.8759 55.4783 49.7201 55.6245C49.8464 55.7768 49.9797 55.9251 50.118 56.066C50.3886 56.3347 50.5375 56.6713 50.5397 57.0192Z" fill="white"/>
<path id="Vector_46" d="M50.5398 57.677H45.5478C45.5094 57.677 45.4725 57.6649 45.4447 57.6433C45.4169 57.6217 45.4004 57.5921 45.3986 57.5608C45.3986 57.558 45.3822 57.2765 45.3668 56.809C45.3662 56.7928 45.3697 56.7766 45.3769 56.7614C45.3842 56.7463 45.3951 56.7324 45.409 56.7208C45.4229 56.7091 45.4396 56.6999 45.4579 56.6935C45.4763 56.6872 45.496 56.6839 45.516 56.684H47.67C47.7078 56.4927 47.8322 56.106 48.2321 55.8221C48.6001 55.5614 49.1054 55.4542 49.7336 55.5041C49.7554 55.5058 49.7764 55.5115 49.7953 55.5206C49.8141 55.5297 49.8302 55.5421 49.8425 55.5569C49.9713 55.7125 50.1032 55.8583 50.234 55.9899C50.5252 56.2805 50.6857 56.6439 50.6885 57.0194V57.5547C50.6886 57.5707 50.6848 57.5866 50.6774 57.6014C50.6699 57.6162 50.659 57.6296 50.6452 57.641C50.6314 57.6523 50.615 57.6614 50.5969 57.6675C50.5788 57.6737 50.5594 57.6769 50.5398 57.677ZM45.691 57.4333H50.3906V57.0198C50.3879 56.7002 50.251 56.3909 50.0027 56.1438C49.8798 56.0219 49.757 55.8855 49.6361 55.7421C49.1268 55.7116 48.7215 55.7998 48.4305 56.0049C47.9869 56.3176 47.9521 56.807 47.9521 56.8119C47.9503 56.8432 47.9338 56.8728 47.906 56.8944C47.8782 56.916 47.8412 56.9281 47.8028 56.928H45.6696C45.6776 57.1547 45.6836 57.3281 45.6905 57.4333H45.691Z" fill="#262424"/>
<path id="Vector_47" d="M34.7032 18.2256C33.2991 18.7423 29.6649 26.5056 30.2155 27.9787C30.7661 29.4518 33.4399 28.9941 34.2173 26.3785C34.9947 23.763 37.4611 17.2099 34.7032 18.2256Z" fill="#DE9244"/>
<path id="Vector_48" d="M46.2112 18.9608V32.335C46.2112 32.335 45.7701 32.3849 45.0086 32.4422V30.9626C45.0088 30.9342 45.002 30.9061 44.9887 30.8798C44.9755 30.8535 44.956 30.8297 44.9314 30.8096C44.9068 30.7895 44.8776 30.7736 44.8454 30.7628C44.8133 30.752 44.7788 30.7464 44.744 30.7466C44.7093 30.7465 44.6748 30.7521 44.6427 30.7629C44.6106 30.7737 44.5814 30.7896 44.5568 30.8097C44.5322 30.8298 44.5127 30.8536 44.4994 30.8799C44.4862 30.9061 44.4794 30.9342 44.4794 30.9626V32.4787C41.9787 32.6449 37.1637 32.8037 32.6919 32.0417C32.6919 32.0417 33.2624 21.2477 34.7027 18.2252C34.7027 18.2252 37.2328 17.0474 40.1359 17.0941C43.0391 17.1408 46.2112 18.9608 46.2112 18.9608Z" fill="#DE9244"/>
<path id="Vector_49" d="M32.943 28.6543H32.9326C32.913 28.6533 32.8939 28.649 32.8763 28.6419C32.8588 28.6348 32.8431 28.6249 32.8302 28.6129C32.8173 28.6008 32.8075 28.5868 32.8012 28.5716C32.795 28.5564 32.7925 28.5404 32.7938 28.5244C33.0728 25.248 33.5682 20.8889 34.3421 18.723C34.3532 18.692 34.3789 18.6658 34.4136 18.6503C34.4483 18.6347 34.4891 18.6311 34.5271 18.6401C34.5651 18.6492 34.5971 18.6702 34.6162 18.6985C34.6352 18.7268 34.6397 18.7602 34.6286 18.7912C33.8617 20.9356 33.3693 25.2769 33.0912 28.541C33.0886 28.5717 33.0719 28.6004 33.0444 28.6214C33.0169 28.6425 32.9807 28.6542 32.943 28.6543Z" fill="#262424"/>
<path id="Vector_50" d="M40.6417 32.0966C38.1757 32.091 35.7124 31.9616 33.2658 31.7091C33.2472 31.707 33.2292 31.7019 33.213 31.6941C33.1968 31.6863 33.1826 31.6759 33.1712 31.6637C33.1599 31.6514 33.1516 31.6374 33.1469 31.6225C33.1422 31.6076 33.1411 31.5921 33.1437 31.5769C33.1463 31.5617 33.1526 31.547 33.1621 31.5338C33.1717 31.5205 33.1843 31.5089 33.1994 31.4997C33.2144 31.4904 33.2315 31.4837 33.2498 31.4798C33.268 31.476 33.287 31.4751 33.3056 31.4772C33.3593 31.4833 38.7428 32.0893 43.8 31.7692C43.819 31.7676 43.8383 31.769 43.8567 31.7735C43.875 31.778 43.892 31.7855 43.9068 31.7955C43.9215 31.8055 43.9337 31.8178 43.9425 31.8317C43.9513 31.8456 43.9566 31.8608 43.9581 31.8764C43.9596 31.892 43.9572 31.9077 43.9512 31.9225C43.9451 31.9373 43.9355 31.951 43.9228 31.9628C43.9102 31.9745 43.8948 31.9841 43.8775 31.9909C43.8603 31.9977 43.8415 32.0016 43.8224 32.0023C42.7585 32.0702 41.6807 32.0966 40.6417 32.0966Z" fill="#262424"/>
<path id="Vector_51" d="M42.2856 17.7803C42.1391 18.0614 41.9188 18.3129 41.6403 18.5169C41.3618 18.7209 41.0318 18.8725 40.6736 18.9609C40.5533 18.4224 40.2225 17.745 40.2225 17.745C39.8545 18.1584 39.66 18.7051 39.6122 18.9548C38.4211 18.6876 38.2853 17.7523 38.2853 17.7523C38.4305 16.8153 39.4178 16.1098 40.2643 16.1334C42.1359 16.1854 42.2856 17.7803 42.2856 17.7803Z" fill="white"/>
<path id="Vector_52" d="M40.6736 19.0823C40.6382 19.0828 40.6038 19.073 40.5765 19.0547C40.5492 19.0364 40.5307 19.0108 40.5244 18.9824C40.4408 18.6534 40.3271 18.33 40.1842 18.015C39.9786 18.3133 39.8343 18.6371 39.7569 18.9735C39.7537 18.9904 39.7461 19.0066 39.7346 19.021C39.7232 19.0354 39.7081 19.0477 39.6905 19.057C39.6728 19.0663 39.653 19.0725 39.6322 19.0751C39.6114 19.0777 39.5902 19.0767 39.5699 19.0722C38.2967 18.7879 38.1405 17.8082 38.1345 17.7668C38.1331 17.757 38.1331 17.747 38.1345 17.7372C38.2972 16.6901 39.3889 15.9867 40.2667 16.0119C42.2492 16.0667 42.4298 17.7542 42.4317 17.7709C42.4335 17.7905 42.4294 17.8101 42.4198 17.8281C42.2642 18.1251 42.031 18.3907 41.7366 18.6064C41.4422 18.8222 41.0937 18.9828 40.7153 19.077C40.7018 19.0804 40.6877 19.0822 40.6736 19.0823ZM40.2225 17.6226H40.2409C40.2673 17.6254 40.2923 17.6338 40.3134 17.6471C40.3345 17.6604 40.3508 17.678 40.3607 17.6982C40.5333 18.0563 40.6752 18.4238 40.7855 18.798C41.0831 18.7062 41.3554 18.567 41.5867 18.3886C41.818 18.2102 42.0036 17.9961 42.1328 17.7587C42.1025 17.5447 41.8588 16.2966 40.2593 16.2535C39.5157 16.2324 38.5826 16.8676 38.4359 17.7502C38.4568 17.8586 38.6199 18.5316 39.4983 18.7956C39.5779 18.5133 39.7674 18.0479 40.1016 17.6718C40.1156 17.6564 40.1338 17.6439 40.1548 17.6354C40.1758 17.6269 40.199 17.6225 40.2225 17.6226Z" fill="#262424"/>
<path id="Vector_53" d="M47.3411 23.2297C47.2267 24.5675 47.0392 26.2831 46.6109 27.413C46.3389 28.127 45.9713 28.6066 45.4645 28.6066C45.0457 28.6066 44.615 28.5116 44.1893 28.354C42.3624 27.677 40.6411 25.8469 40.4521 25.4659C40.2188 24.996 40.9494 24.0562 41.6184 24.0038C42.2873 23.9514 43.6869 24.7657 43.6869 24.7657C43.6869 24.7657 44.7597 20.9054 45.0243 20.156C45.2889 19.4067 46.2111 18.96 46.2111 18.96C47.3744 19.462 47.5276 21.0455 47.3411 23.2297Z" fill="#DE9244"/>
<path id="Vector_54" d="M45.3507 25.853C45.3253 25.853 45.3003 25.8478 45.2782 25.8378C45.256 25.8277 45.2373 25.8133 45.2238 25.7957C45.2174 25.7876 44.8702 25.353 43.9744 25.0699C43.9429 25.06 43.9164 25.0417 43.8993 25.0179C43.8822 24.9941 43.8755 24.9662 43.8803 24.9389C43.8851 24.9116 43.9011 24.8864 43.9257 24.8675C43.9503 24.8486 43.982 24.837 44.0157 24.8348C44.5774 24.8157 45.1375 24.8966 45.657 25.072C45.6752 25.078 45.6917 25.0869 45.7057 25.0981C45.7196 25.1094 45.7307 25.1227 45.7383 25.1375C45.746 25.1522 45.7499 25.1681 45.7501 25.1841C45.7502 25.2001 45.7465 25.2159 45.7391 25.2308C45.7317 25.2456 45.7208 25.2591 45.7071 25.2705C45.6933 25.2819 45.6769 25.2909 45.6589 25.2972C45.6408 25.3034 45.6214 25.3066 45.6018 25.3067C45.5822 25.3069 45.5628 25.3038 45.5446 25.2978C45.2885 25.213 45.0216 25.1517 44.7488 25.115C45.2596 25.3823 45.4695 25.6515 45.481 25.667C45.4951 25.6856 45.5029 25.7071 45.5033 25.729C45.5038 25.751 45.497 25.7726 45.4837 25.7917C45.4703 25.8107 45.4509 25.8265 45.4275 25.8373C45.4041 25.8481 45.3775 25.8535 45.3507 25.853Z" fill="#262424"/>
<path id="Vector_55" d="M46.611 27.4111C46.339 28.1251 45.9714 28.6048 45.4646 28.6048C45.0458 28.6048 44.6151 28.5097 44.1894 28.3522C44.1836 28.3095 44.1806 28.2667 44.1804 28.2238C44.1804 27.9938 44.2642 27.769 44.4211 27.578C44.5781 27.387 44.8011 27.2385 45.0617 27.1513C45.3224 27.0642 45.6089 27.0424 45.8848 27.0886C46.1607 27.1349 46.4135 27.2472 46.611 27.4111Z" fill="white"/>
<path id="Vector_56" d="M45.4642 28.7288C44.2302 28.7288 42.9604 27.9527 42.1119 27.3017C41.2018 26.6031 40.4512 25.7884 40.314 25.5118C40.1921 25.2661 40.2757 24.9087 40.5383 24.5561C40.7641 24.2532 41.1625 23.9177 41.6046 23.8844C42.1806 23.8405 43.1708 24.3381 43.5901 24.5659C43.805 23.7942 44.6475 20.7859 44.8832 20.1243C44.9986 19.7974 45.2523 19.4745 45.6164 19.1902C45.6304 19.1787 45.6471 19.1696 45.6656 19.1634C45.684 19.1572 45.7038 19.1541 45.7237 19.1543C45.7436 19.1545 45.7633 19.1579 45.7816 19.1644C45.7999 19.1709 45.8164 19.1803 45.8301 19.192C45.8439 19.2038 45.8546 19.2177 45.8617 19.2329C45.8687 19.2481 45.872 19.2644 45.8713 19.2806C45.8705 19.2969 45.8658 19.3128 45.8574 19.3276C45.849 19.3423 45.837 19.3556 45.8223 19.3665C45.595 19.5436 45.2975 19.8303 45.1702 20.1909C44.9101 20.9285 43.8457 24.7552 43.8348 24.7937C43.8293 24.8133 43.8181 24.8314 43.802 24.8465C43.7859 24.8617 43.7655 24.8733 43.7426 24.8805C43.7196 24.8876 43.6949 24.89 43.6706 24.8875C43.6462 24.885 43.623 24.8776 43.603 24.866C43.226 24.6471 42.1378 24.0879 41.635 24.126C41.3614 24.1468 41.0317 24.3649 40.7959 24.6821C40.5885 24.9603 40.5089 25.2506 40.593 25.4192C40.8228 25.8826 43.3643 28.4839 45.4671 28.4839C45.5067 28.4839 45.5447 28.4968 45.5727 28.5196C45.6006 28.5425 45.6164 28.5735 45.6164 28.6058C45.6164 28.6381 45.6006 28.6691 45.5727 28.6919C45.5447 28.7148 45.5067 28.7276 45.4671 28.7276L45.4642 28.7288Z" fill="#262424"/>
<path id="Vector_57" d="M42.0383 24.2325L40.9028 23.5088C40.9028 23.5088 39.8608 23.5721 39.6429 24.6517L40.8714 25.5025C40.8714 25.5025 41.9447 25.2865 42.0383 24.2325Z" fill="#DE9244"/>
<path id="Vector_58" d="M40.872 25.6246C40.8366 25.6246 40.8025 25.6144 40.7755 25.5957L39.547 24.7449C39.5275 24.7311 39.5126 24.7135 39.5039 24.6938C39.4952 24.674 39.4929 24.6527 39.4973 24.632C39.7315 23.4716 40.8814 23.3879 40.8929 23.3875C40.9299 23.3853 40.9666 23.3944 40.9958 23.4131L42.1313 24.1369C42.1506 24.1492 42.166 24.1651 42.1759 24.1834C42.1859 24.2017 42.1902 24.2217 42.1885 24.2417C42.089 25.3711 40.9207 25.6189 40.9088 25.6225C40.8967 25.6244 40.8843 25.6251 40.872 25.6246ZM39.8056 24.6043L40.9058 25.3663C41.1246 25.3021 41.7812 25.047 41.8826 24.288L40.861 23.6381C40.6651 23.6657 39.9981 23.8209 39.8056 24.6047V24.6043Z" fill="#262424"/>
<path id="Vector_59" d="M40.8307 23.6443C40.8307 23.6443 38.7886 22.3657 38.6846 22.3657C38.5807 22.3657 35.4518 23.1699 35.3876 23.1955C35.3234 23.2211 35.2633 23.4156 35.4602 23.5001C35.6572 23.5846 37.285 23.4915 37.285 23.4915C37.4848 23.7096 37.7105 23.911 37.959 24.0926C38.322 24.3465 38.8612 24.4907 39.2238 24.1856C39.2238 24.1856 39.5222 24.7104 40.0946 24.5581C40.6671 24.4058 40.8307 23.6443 40.8307 23.6443Z" fill="white"/>
<path id="Vector_60" d="M39.8916 24.7079C39.5693 24.7079 39.3256 24.5332 39.1844 24.3704C38.7736 24.5925 38.2394 24.4516 37.8619 24.1852C37.6249 24.0127 37.4084 23.8223 37.2153 23.6166C36.6767 23.6462 35.5924 23.6933 35.3915 23.6068C35.3258 23.5801 35.2708 23.5386 35.233 23.4872C35.1952 23.4359 35.1762 23.3767 35.1781 23.3168C35.1781 23.2303 35.2239 23.1247 35.3214 23.0849C35.3422 23.0764 38.5279 22.2422 38.685 22.2422C38.7467 22.2422 38.8392 22.2422 40.9232 23.5459C40.9449 23.5595 40.9617 23.5777 40.9716 23.5986C40.9815 23.6194 40.9842 23.6421 40.9794 23.6641C40.9719 23.6982 40.7904 24.4999 40.1428 24.6729C40.0619 24.6955 39.9771 24.7073 39.8916 24.7079ZM39.2237 24.0641C39.2521 24.0641 39.2799 24.0707 39.3039 24.0832C39.3278 24.0956 39.3469 24.1134 39.359 24.1344C39.3689 24.1515 39.6121 24.5592 40.0483 24.4427C40.4029 24.348 40.5954 23.9208 40.665 23.6941C39.8106 23.1605 38.871 22.589 38.6676 22.4928C38.315 22.5647 35.8217 23.2023 35.4795 23.2977C35.4746 23.3136 35.4746 23.3302 35.4795 23.3461C35.4832 23.3563 35.4896 23.3657 35.4982 23.3737C35.5068 23.3816 35.5174 23.388 35.5293 23.3924C35.6556 23.433 36.5344 23.4127 37.274 23.37C37.2992 23.3686 37.3243 23.3724 37.3472 23.3811C37.3701 23.3897 37.3899 23.403 37.4048 23.4196C37.5979 23.63 37.8158 23.8243 38.0554 24C38.2946 24.1673 38.7875 24.3773 39.1162 24.1007C39.1303 24.0891 39.147 24.0799 39.1655 24.0737C39.1839 24.0675 39.2037 24.0644 39.2237 24.0645V24.0641Z" fill="#262424"/>
<path id="Vector_61" d="M41.3604 14.2446L41.3301 15.1844L41.2803 16.7919C40.6183 17.1697 39.9742 17.2099 39.353 16.8289L39.444 16.082L39.5818 14.9509L41.3604 14.2446Z" fill="white"/>
<path id="Vector_62" d="M40.2493 17.2173C39.9084 17.2173 39.579 17.12 39.261 16.9253C39.2405 16.9127 39.2243 16.896 39.214 16.8768C39.2037 16.8576 39.1997 16.8365 39.2023 16.8157L39.4311 14.9381C39.4336 14.9174 39.4426 14.8976 39.4571 14.8805C39.4716 14.8635 39.4913 14.8497 39.5142 14.8406L41.2952 14.1343C41.3183 14.1252 41.3438 14.121 41.3694 14.1223C41.395 14.1236 41.4198 14.1302 41.4413 14.1415C41.4628 14.1529 41.4804 14.1686 41.4924 14.1871C41.5044 14.2056 41.5103 14.2263 41.5096 14.2472L41.427 16.7941C41.4264 16.8132 41.4203 16.8319 41.4093 16.8487C41.3982 16.8654 41.3825 16.8799 41.3634 16.8908C40.9819 17.1085 40.6103 17.2173 40.2493 17.2173ZM39.5072 16.7706C40.015 17.0549 40.5477 17.0394 41.1306 16.7259L41.2047 14.4418L39.7196 15.0307L39.5072 16.7706Z" fill="#262424"/>
<path id="Vector_63" d="M40.7451 14.4878C40.7362 14.9122 40.7839 16.356 39.3888 16.514L39.5793 14.9504L40.7451 14.4878Z" fill="#262424"/>
<path id="Vector_64" d="M37.8698 14.3592C37.9957 15.1309 38.307 16.0463 39.4365 15.8725C40.7794 15.6657 41.6209 14.8636 41.5921 13.815C41.5632 12.7663 40.9455 12.1904 39.4146 12.3529C39.2843 12.3663 39.1555 12.3886 39.0297 12.4195C38.1523 12.6376 37.7311 13.248 37.8141 13.9494C37.8285 14.0737 37.8455 14.2138 37.8698 14.3592Z" fill="white"/>
<path id="Vector_65" d="M39.168 16.0156C38.9198 16.0194 38.6771 15.9557 38.4781 15.8345C37.8878 15.4722 37.7475 14.6766 37.663 13.9589C37.555 13.0447 38.2504 12.3498 39.3933 12.23C39.4329 12.2259 39.4728 12.2348 39.5043 12.2548C39.5359 12.2747 39.5564 12.3041 39.5614 12.3364C39.5664 12.3687 39.5555 12.4013 39.5311 12.4271C39.5066 12.4528 39.4707 12.4696 39.4311 12.4737C38.4443 12.5772 37.8669 13.1519 37.9599 13.9358C38.0166 14.4166 38.1225 15.3122 38.6562 15.6416C38.8551 15.7634 39.1038 15.8016 39.4052 15.7545C39.8996 15.6785 40.3224 15.5205 40.6616 15.2854C40.6764 15.2742 40.6937 15.2657 40.7127 15.2602C40.7316 15.2546 40.7517 15.2523 40.7718 15.2533C40.7919 15.2543 40.8115 15.2586 40.8295 15.266C40.8475 15.2733 40.8635 15.2836 40.8765 15.2961C40.8895 15.3086 40.8993 15.3231 40.9052 15.3388C40.9112 15.3545 40.9132 15.371 40.9112 15.3873C40.9091 15.4037 40.903 15.4195 40.8933 15.4339C40.8836 15.4483 40.8704 15.4609 40.8545 15.471C40.4535 15.7406 39.9737 15.9209 39.4619 15.9941C39.365 16.0087 39.2666 16.0159 39.168 16.0156Z" fill="#262424"/>
<path id="Vector_66" d="M42.003 14.0015C41.8791 14.1586 41.7386 14.3066 41.5833 14.4438L40.9039 14.4962L40.7417 14.1071C40.7417 14.1071 40.309 14.1026 40.2105 13.8671C40.2079 13.8616 40.2058 13.8561 40.2041 13.8504C40.1782 13.7733 40.0757 13.4276 40.119 12.8854C40.119 12.8854 39.0954 13.2871 38.5324 13.3505C38.33 13.3736 38.0898 13.3159 37.8655 13.2327C37.4178 13.0658 37.0065 12.4874 37.0697 12.0874V12.0797C37.1691 11.4932 37.5561 11.8876 37.5561 11.8876C37.5561 11.8876 37.6441 11.4152 38.0037 11.3718C38.3633 11.3283 38.609 11.7564 38.609 11.7564C39.2951 11.6069 40.0094 11.564 40.7149 11.6297C42.1144 11.7665 41.7986 12.5589 41.7986 12.5589C41.7986 12.5589 42.8336 12.7997 42.003 14.0015Z" fill="#262424"/>
<path id="Vector_67" d="M41.0481 14.4316C40.9725 13.995 41.3336 13.5787 41.8677 13.5137C41.981 13.4997 42.0964 13.5034 42.2079 13.5247C42.8784 13.6538 42.755 14.9218 41.1237 14.8682L41.0481 14.4316Z" fill="white"/>
<path id="Vector_68" d="M41.221 14.993C41.1879 14.993 41.1534 14.993 41.1176 14.993C41.098 14.9923 41.0787 14.9885 41.0609 14.9818C41.0431 14.9751 41.0271 14.9656 41.0138 14.9538C41.0005 14.9421 40.9902 14.9283 40.9834 14.9132C40.9766 14.8982 40.9736 14.8822 40.9743 14.8662C40.9751 14.8502 40.9798 14.8345 40.988 14.82C40.9962 14.8054 41.0079 14.7924 41.0223 14.7815C41.0367 14.7706 41.0536 14.7622 41.072 14.7567C41.0904 14.7511 41.1099 14.7486 41.1295 14.7493C42.0049 14.7781 42.3789 14.4077 42.4331 14.0816C42.4644 13.896 42.3834 13.6868 42.173 13.6462C42.0799 13.6286 41.9835 13.6255 41.889 13.6373C41.6709 13.6666 41.4759 13.765 41.3461 13.911C41.2163 14.0571 41.1622 14.2391 41.1957 14.4174C41.2005 14.4492 41.1898 14.4811 41.166 14.5065C41.1423 14.5319 41.1072 14.5486 41.0685 14.5531C41.0297 14.5575 40.9904 14.5494 40.9589 14.5304C40.9275 14.5114 40.9064 14.4831 40.9002 14.4516C40.8122 13.9431 41.2365 13.4695 41.8452 13.3956C41.9776 13.3791 42.1127 13.3834 42.2431 13.4082C42.5828 13.4736 42.7877 13.7705 42.73 14.1141C42.6544 14.558 42.1601 14.993 41.221 14.993Z" fill="#262424"/>
<path id="Vector_69" d="M29.9081 27.9864L30.4776 27.0388C30.4973 27.0059 30.5305 26.9796 30.5714 26.9644C30.6124 26.9492 30.6585 26.9461 30.7019 26.9556L30.7148 26.9584C30.7395 26.9638 30.7627 26.9731 30.7831 26.9858C30.8034 26.9986 30.8204 27.0144 30.8332 27.0326C30.8459 27.0507 30.8542 27.0707 30.8574 27.0914C30.8607 27.1122 30.8588 27.1332 30.8521 27.1534L30.575 27.9868C30.5695 28.0034 30.5682 28.0207 30.5711 28.0378C30.574 28.0548 30.5812 28.0712 30.5921 28.0859C30.6031 28.1006 30.6175 28.1133 30.6347 28.1233C30.6519 28.1333 30.6713 28.1403 30.6919 28.144C30.7287 28.1504 30.7671 28.1457 30.7999 28.1307C30.8327 28.1158 30.8578 28.0916 30.8705 28.0627L31.2525 27.2017C31.2717 27.1584 31.3097 27.1223 31.3592 27.1003C31.4088 27.0783 31.4666 27.0719 31.5215 27.0823L31.5534 27.0884C31.6105 27.0992 31.6605 27.1274 31.6931 27.1672C31.7257 27.2071 31.7385 27.2556 31.7289 27.3028L31.5469 28.1935C31.5412 28.2199 31.5478 28.2471 31.5655 28.2696C31.5832 28.2922 31.6107 28.3085 31.6424 28.3153C31.6752 28.3226 31.7101 28.3191 31.7398 28.3057C31.7695 28.2923 31.7916 28.27 31.8015 28.2435L32.1353 27.352C32.1526 27.3059 32.191 27.2669 32.2424 27.2432C32.2939 27.2195 32.3545 27.2128 32.4118 27.2244C32.4665 27.2356 32.5142 27.2627 32.5461 27.3006C32.578 27.3386 32.5918 27.3847 32.5849 27.4304L32.4431 28.3572C32.4392 28.3829 32.4473 28.4088 32.4657 28.4299C32.4841 28.451 32.5116 28.4656 32.5426 28.4709C32.5742 28.4767 32.6072 28.4723 32.635 28.4588C32.6627 28.4453 32.6831 28.4236 32.6918 28.3982L32.9589 27.6265C32.9721 27.5881 33.0026 27.5552 33.0443 27.5343C33.086 27.5134 33.1358 27.5062 33.1837 27.514C33.2322 27.5219 33.2752 27.5447 33.3039 27.5776C33.3325 27.6105 33.3447 27.6511 33.3379 27.6911L33.1479 28.8145C33.1412 28.8539 33.1225 28.8914 33.0934 28.9234C33.0644 28.9554 33.026 28.9809 32.9818 28.9977L32.8261 29.0565C32.7822 29.0732 32.734 29.0806 32.6857 29.0782C32.6374 29.0758 32.5906 29.0636 32.5496 29.0427C32.4882 29.0116 32.4148 29.0001 32.3437 29.0107L32.0557 29.0525C32.0159 29.0584 31.9749 29.0575 31.9355 29.0498C31.8961 29.0421 31.8591 29.0278 31.8269 29.0078L31.6742 28.9132C31.64 28.8924 31.6006 28.878 31.5589 28.871C31.5171 28.8639 31.474 28.8645 31.4325 28.8726L31.056 28.9428C31.0108 28.9512 30.9638 28.9507 30.9189 28.9413C30.874 28.9319 30.8325 28.9139 30.7979 28.8888L30.6576 28.7873C30.6276 28.7656 30.5925 28.7491 30.5545 28.739C30.5164 28.7289 30.4761 28.7253 30.4363 28.7284L30.0548 28.7584C30.009 28.762 29.9629 28.7567 29.9201 28.743C29.8773 28.7292 29.8391 28.7074 29.8086 28.6792L28.9885 27.923C28.9659 27.9022 28.9489 27.8778 28.9387 27.8512C28.9286 27.8247 28.9254 27.7967 28.9294 27.7692C28.9335 27.7416 28.9446 27.715 28.9622 27.6912C28.9797 27.6673 29.0033 27.6468 29.0312 27.631C29.0724 27.6077 29.1214 27.5954 29.1715 27.5959C29.2216 27.5964 29.2703 27.6097 29.3107 27.6338L29.9081 27.9864Z" fill="white"/>
<path id="Vector_70" d="M32.7022 29.2001C32.62 29.2 32.5396 29.1811 32.4699 29.1456C32.4402 29.1307 32.4048 29.1252 32.3704 29.1302L32.0859 29.1708C32.0257 29.1797 31.9639 29.1783 31.9044 29.1666C31.8449 29.1549 31.789 29.1333 31.7403 29.103L31.5876 29.0084C31.571 28.998 31.5518 28.9908 31.5315 28.9873C31.5111 28.9837 31.49 28.9838 31.4697 28.9876L31.0932 29.0579C31.0249 29.0707 30.9539 29.0699 30.886 29.0558C30.8181 29.0417 30.7553 29.0146 30.7028 28.9767L30.5625 28.8751C30.5479 28.8646 30.5308 28.8565 30.5122 28.8516C30.4936 28.8466 30.474 28.8448 30.4546 28.8463L30.0731 28.8764C30.0039 28.8817 29.9342 28.8736 29.8696 28.8528C29.8049 28.832 29.7472 28.799 29.7011 28.7566L28.8779 28.0019C28.8138 27.9432 28.7787 27.8671 28.7792 27.7884C28.7797 27.7097 28.8159 27.6339 28.8808 27.5758C28.9457 27.5176 29.0347 27.4811 29.1306 27.4733C29.2265 27.4655 29.3225 27.487 29.4002 27.5337L29.8523 27.8037L30.3437 26.9866C30.3788 26.9282 30.4377 26.8816 30.5103 26.8547C30.5829 26.8278 30.6646 26.8223 30.7416 26.8392L30.7545 26.842C30.8423 26.8614 30.9172 26.9085 30.9625 26.9729C31.0078 27.0374 31.0199 27.1139 30.9962 27.1856L30.7192 28.019L30.7237 28.0251C30.7251 28.0254 30.7266 28.0252 30.7279 28.0246C30.7292 28.024 30.7302 28.023 30.7306 28.0218L31.1126 27.1608C31.1443 27.0895 31.2069 27.0302 31.2886 26.994C31.3702 26.9578 31.4652 26.9472 31.5558 26.9643L31.5881 26.9703C31.682 26.9884 31.764 27.0348 31.8176 27.1003C31.8711 27.1659 31.8922 27.2456 31.8766 27.3233L31.7403 27.9902L31.9924 27.316C32.0206 27.2421 32.0816 27.1795 32.1634 27.1404C32.2452 27.1014 32.342 27.0887 32.4346 27.1049C32.5273 27.121 32.6092 27.1649 32.6643 27.2278C32.7194 27.2908 32.7438 27.3683 32.7325 27.4451L32.6286 28.1242L32.8126 27.5921C32.8359 27.5235 32.8903 27.4647 32.9648 27.4276C33.0392 27.3906 33.1282 27.3781 33.2136 27.3926C33.299 27.4072 33.3743 27.4478 33.4244 27.5061C33.4744 27.5645 33.4954 27.6362 33.483 27.7067L33.293 28.8301C33.2833 28.8895 33.2554 28.9461 33.2119 28.9944C33.1685 29.0428 33.1109 29.0816 33.0444 29.1071L32.8892 29.1659C32.8307 29.1884 32.7668 29.2 32.7022 29.2001ZM32.3953 28.8845C32.4774 28.8844 32.5578 28.9031 32.6276 28.9385C32.6476 28.9487 32.6704 28.9546 32.694 28.9557C32.7175 28.9568 32.741 28.9532 32.7624 28.945L32.918 28.8861C32.9396 28.878 32.9584 28.8655 32.9726 28.8499C32.9867 28.8343 32.9959 28.816 32.9991 28.7968L33.1871 27.673C33.189 27.6637 33.1864 27.6541 33.1799 27.6463C33.1734 27.6385 33.1635 27.6331 33.1522 27.6312C33.1409 27.6292 33.1291 27.6309 33.1193 27.6359C33.1095 27.6409 33.1024 27.6488 33.0996 27.6579L32.8325 28.4296C32.8131 28.4837 32.7695 28.5298 32.7104 28.5589C32.6514 28.588 32.581 28.598 32.5134 28.5868C32.4458 28.5756 32.3858 28.5441 32.3452 28.4986C32.3046 28.453 32.2865 28.3966 32.2943 28.3407L32.4361 27.4139C32.4382 27.3975 32.4328 27.3811 32.421 27.3678C32.4091 27.3545 32.3917 27.3452 32.372 27.3418C32.3523 27.3383 32.3317 27.341 32.3143 27.3492C32.2968 27.3574 32.2837 27.3706 32.2774 27.3862L31.9437 28.2777C31.9231 28.3334 31.8773 28.3806 31.8156 28.4096C31.7539 28.4387 31.681 28.4475 31.6116 28.4342C31.5423 28.4209 31.4818 28.3865 31.4424 28.338C31.403 28.2896 31.3877 28.2307 31.3996 28.1733L31.5816 27.2827C31.5849 27.266 31.5804 27.249 31.569 27.235C31.5575 27.221 31.54 27.211 31.5199 27.2071L31.4876 27.201C31.4684 27.1972 31.4482 27.1992 31.4307 27.2067C31.4132 27.2142 31.3997 27.2266 31.3926 27.2416L31.0111 28.1059C30.9837 28.1654 30.9295 28.214 30.8596 28.2418C30.7896 28.2696 30.7093 28.2745 30.6351 28.2555C30.5609 28.2365 30.4984 28.195 30.4605 28.1395C30.4226 28.0841 30.4121 28.0188 30.4312 27.9573L30.7082 27.1239C30.7098 27.1192 30.7102 27.1143 30.7095 27.1095C30.7087 27.1047 30.7068 27.1001 30.7039 27.0959C30.7009 27.0917 30.697 27.088 30.6922 27.0851C30.6875 27.0822 30.6821 27.08 30.6764 27.0788L30.6635 27.0759C30.6537 27.0742 30.6435 27.0752 30.6345 27.0787C30.6255 27.0822 30.6182 27.0881 30.6137 27.0954L30.0443 28.043C30.0347 28.0589 30.0209 28.073 30.0039 28.0841C29.987 28.0953 29.9672 28.1032 29.9461 28.1075C29.925 28.1118 29.9029 28.1122 29.8816 28.1088C29.8602 28.1053 29.84 28.0981 29.8224 28.0876L29.2256 27.7319C29.2101 27.7228 29.1915 27.7179 29.1724 27.7179C29.1533 27.7179 29.1347 27.7228 29.1192 27.7319C29.1085 27.7379 29.0996 27.7457 29.0929 27.7547C29.0863 27.7637 29.082 27.7738 29.0805 27.7843C29.0789 27.7948 29.0801 27.8054 29.0839 27.8155C29.0878 27.8255 29.0942 27.8348 29.1027 27.8427L29.9229 28.599C29.9376 28.6131 29.9561 28.6241 29.9771 28.6312C29.998 28.6382 30.0207 28.6411 30.0433 28.6396L30.4247 28.6095C30.485 28.6049 30.5458 28.6103 30.6034 28.6256C30.661 28.6409 30.7141 28.6657 30.7595 28.6985L30.8997 28.8C30.9167 28.8123 30.937 28.8211 30.959 28.8257C30.981 28.8303 31.0039 28.8305 31.0261 28.8264L31.4026 28.7561C31.4655 28.7444 31.5308 28.744 31.5939 28.7552C31.657 28.7664 31.7163 28.7887 31.7676 28.8207L31.9203 28.9154C31.936 28.9251 31.954 28.9321 31.9732 28.9359C31.9924 28.9396 32.0123 28.9401 32.0317 28.9373L32.3162 28.8967C32.3414 28.8909 32.3672 28.887 32.3933 28.8849L32.3953 28.8845Z" fill="#262424"/>
<path id="Vector_71" d="M28.4207 23.4238H31.4063V26.7258H28.4207V23.4238Z" fill="white"/>
<path id="Vector_72" d="M31.4067 26.8475H28.4225C28.383 26.8475 28.345 26.8346 28.317 26.8118C28.289 26.7889 28.2733 26.7579 28.2733 26.7256V23.4241C28.2733 23.3918 28.289 23.3608 28.317 23.3379C28.345 23.3151 28.383 23.3022 28.4225 23.3022H31.4067C31.4463 23.3022 31.4842 23.3151 31.5122 23.3379C31.5402 23.3608 31.5559 23.3918 31.5559 23.4241V26.7256C31.5559 26.7579 31.5402 26.7889 31.5122 26.8118C31.4842 26.8346 31.4463 26.8475 31.4067 26.8475ZM28.5717 26.6038H31.2575V23.5459H28.5717V26.6038Z" fill="#262424"/>
<path id="Vector_73" d="M30.2558 22.48H27.2697L28.4206 23.4239H31.4067L30.2558 22.48Z" fill="white"/>
<path id="Vector_74" d="M31.4067 23.5464H28.4225C28.4029 23.5465 28.3834 23.5433 28.3652 23.5372C28.347 23.5311 28.3305 23.5221 28.3166 23.5107L27.1657 22.5668C27.1448 22.5498 27.1306 22.528 27.1249 22.5044C27.1192 22.4807 27.1222 22.4562 27.1335 22.4339C27.1449 22.4117 27.164 22.3926 27.1886 22.3793C27.2132 22.3659 27.2421 22.3588 27.2716 22.3589H30.2558C30.2755 22.3588 30.295 22.362 30.3132 22.3681C30.3314 22.3743 30.3479 22.3833 30.3618 22.3946L31.5127 23.3385C31.5335 23.3556 31.5477 23.3773 31.5535 23.401C31.5592 23.4246 31.5562 23.4491 31.5449 23.4714C31.5335 23.4937 31.5143 23.5127 31.4897 23.526C31.4652 23.5394 31.4363 23.5465 31.4067 23.5464ZM28.4827 23.3028H31.0476L30.1942 22.6026H27.6293L28.4827 23.3028Z" fill="#262424"/>
<path id="Vector_75" d="M34.3918 26.7261H31.4062V23.4241H34.3918V26.7261Z" fill="white"/>
<path id="Vector_76" d="M34.3934 26.8475H31.4092C31.3696 26.8475 31.3317 26.8346 31.3037 26.8118C31.2757 26.7889 31.26 26.7579 31.26 26.7256V23.4241C31.26 23.3918 31.2757 23.3608 31.3037 23.3379C31.3317 23.3151 31.3696 23.3022 31.4092 23.3022H34.3934C34.433 23.3022 34.4709 23.3151 34.4989 23.3379C34.5269 23.3608 34.5426 23.3918 34.5426 23.4241V26.7256C34.5426 26.7579 34.5269 26.7889 34.4989 26.8118C34.4709 26.8346 34.433 26.8475 34.3934 26.8475ZM31.5584 26.6038H34.2442V23.5459H31.5584V26.6038Z" fill="#262424"/>
<path id="Vector_77" d="M32.557 22.48H35.5432L34.3923 23.4239H31.4066L32.557 22.48Z" fill="white"/>
<path id="Vector_78" d="M34.3934 23.5461H31.4092C31.3797 23.5462 31.3508 23.5391 31.3262 23.5257C31.3016 23.5124 31.2824 23.4933 31.2711 23.4711C31.2597 23.4488 31.2567 23.4243 31.2625 23.4006C31.2682 23.377 31.2824 23.3552 31.3033 23.3382L32.4537 22.3927C32.4676 22.3813 32.4841 22.3723 32.5023 22.3662C32.5205 22.36 32.54 22.3569 32.5596 22.3569H35.5438C35.5733 22.3569 35.6022 22.364 35.6268 22.3773C35.6514 22.3907 35.6706 22.4097 35.6819 22.432C35.6933 22.4542 35.6963 22.4788 35.6906 22.5024C35.6848 22.5261 35.6706 22.5478 35.6497 22.5649L34.4979 23.51C34.4702 23.5328 34.4327 23.5458 34.3934 23.5461ZM31.7668 23.3024H34.3317L35.1857 22.6022H32.6193L31.7668 23.3024Z" fill="#262424"/>
<path id="Vector_79" d="M31.4067 29.7433C30.2229 29.7433 29.0657 29.4568 28.0814 28.9198C27.0971 28.3829 26.3299 27.6196 25.8767 26.7266C25.4236 25.8336 25.305 24.8509 25.5358 23.9028C25.7666 22.9547 26.3365 22.0838 27.1734 21.4002C28.0104 20.7166 29.0767 20.251 30.2377 20.0623C31.3987 19.8736 32.6021 19.9702 33.6958 20.34C34.7896 20.7098 35.7244 21.3361 36.3822 22.1398C37.0401 22.9434 37.3913 23.8883 37.3915 24.855C37.39 26.1508 36.7591 27.3933 35.6371 28.3098C34.515 29.2262 32.9936 29.7418 31.4067 29.7433ZM31.4067 20.2124C30.2818 20.2123 29.1822 20.4846 28.2469 20.9949C27.3116 21.5051 26.5827 22.2304 26.1522 23.0791C25.7217 23.9277 25.6091 24.8615 25.8286 25.7623C26.0481 26.6632 26.5899 27.4907 27.3853 28.1401C28.1808 28.7896 29.1942 29.2318 30.2975 29.4109C31.4007 29.59 32.5442 29.4978 33.5834 29.1462C34.6225 28.7945 35.5106 28.1991 36.1353 27.4353C36.76 26.6715 37.0933 25.7735 37.093 24.855C37.0915 23.6238 36.4919 22.4434 35.4258 21.5728C34.3598 20.7023 32.9144 20.2125 31.4067 20.2111V20.2124Z" fill="#262424"/>
<path id="Vector_80" d="M30.4134 11.6699H29.8041C29.6695 11.6699 29.5604 11.759 29.5604 11.8689V13.0703C29.5604 13.1802 29.6695 13.2693 29.8041 13.2693H30.4134C30.548 13.2693 30.6571 13.1802 30.6571 13.0703V11.8689C30.6571 11.759 30.548 11.6699 30.4134 11.6699Z" fill="#88C0C2"/>
<path id="Vector_81" d="M33.2528 12.0287V12.7695C33.2528 12.9021 33.1883 13.0292 33.0734 13.123C32.9586 13.2168 32.8029 13.2694 32.6405 13.2694H31.3852C31.3455 13.2694 31.3061 13.2631 31.2694 13.2506C31.2328 13.2382 31.1994 13.22 31.1713 13.1971C31.1433 13.1742 31.121 13.147 31.1058 13.117C31.0906 13.087 31.0828 13.0549 31.0828 13.0225V11.8674C31.0828 11.835 31.0906 11.8029 31.1058 11.7729C31.1209 11.743 31.1432 11.7157 31.1713 11.6928L32.2182 10.8379C32.25 10.8119 32.2932 10.7974 32.3381 10.7974C32.3831 10.7974 32.4262 10.8119 32.458 10.8379C32.482 10.8574 32.4982 10.8823 32.5047 10.9095C32.5112 10.9366 32.5075 10.9647 32.4943 10.9902L32.0909 11.7655H32.929C32.9714 11.7654 33.0134 11.7721 33.0527 11.7853C33.0919 11.7985 33.1276 11.8178 33.1577 11.8423C33.1878 11.8667 33.2116 11.8958 33.228 11.9277C33.2443 11.9597 33.2527 11.994 33.2528 12.0287Z" fill="#88C0C2"/>
<path id="Vector_82" d="M32.4416 15.7824C32.4052 15.7824 32.37 15.7716 32.3427 15.7519C32.3154 15.7322 32.2979 15.705 32.2935 15.6755C32.289 15.646 32.2979 15.6162 32.3185 15.5917C32.3391 15.5671 32.3699 15.5496 32.4053 15.5424C33.3525 15.3453 34.1791 14.873 34.7304 14.2138C35.2816 13.5547 35.5195 12.754 35.3996 11.9619C35.2797 11.1697 34.8101 10.4405 34.0788 9.91084C33.3476 9.38119 32.4049 9.08747 31.4274 9.08475H31.42C30.4413 9.08403 29.4959 9.37513 28.7614 9.90338C28.027 10.4316 27.554 11.1607 27.4313 11.9536C27.3086 12.7465 27.5447 13.5487 28.0951 14.2095C28.6456 14.8703 29.4726 15.3443 30.4208 15.5424C30.4582 15.5511 30.49 15.5713 30.5094 15.5989C30.5288 15.6264 30.5342 15.6591 30.5245 15.6899C30.5149 15.7206 30.4909 15.7471 30.4576 15.7636C30.4244 15.7802 30.3846 15.7855 30.3467 15.7784C29.3295 15.5645 28.4428 15.0551 27.8528 14.3456C27.2627 13.636 27.0098 12.7751 27.1415 11.9242C27.2731 11.0733 27.7803 10.2908 28.568 9.72347C29.3557 9.1561 30.3697 8.8428 31.42 8.84229H31.4284C32.4777 8.84624 33.4892 9.16225 34.2736 9.73119C35.0581 10.3001 35.5619 11.083 35.6906 11.9333C35.8193 12.7836 35.5642 13.6431 34.9729 14.3509C34.3817 15.0587 33.4948 15.5663 32.4784 15.7788C32.4663 15.7812 32.454 15.7825 32.4416 15.7824Z" fill="#262424"/>
<path id="Vector_83" d="M31.4206 15.0226H31.4141C30.5505 15.022 29.7226 14.7412 29.1125 14.2421C28.5024 13.743 28.1601 13.0664 28.1609 12.3612C28.1617 11.6559 28.5055 10.9799 29.1167 10.4817C29.728 9.98347 30.5565 9.70394 31.4201 9.70459H31.4261C32.2897 9.70518 33.1176 9.9859 33.7278 10.485C34.3379 10.9841 34.6803 11.6606 34.6796 12.3658C34.6789 13.071 34.3351 13.7471 33.7239 14.2454C33.1128 14.7436 32.2842 15.0232 31.4206 15.0226ZM31.4206 9.94828C31.0322 9.94798 30.6475 10.0102 30.2885 10.1313C29.9295 10.2524 29.6032 10.4301 29.3283 10.6541C29.0534 10.8782 28.8352 11.1443 28.6863 11.4372C28.5373 11.7302 28.4604 12.0442 28.4601 12.3614C28.4597 12.6785 28.5358 12.9927 28.6842 13.2858C28.8325 13.579 29.05 13.8454 29.3244 14.0699C29.5989 14.2944 29.9247 14.4726 30.2834 14.5942C30.6422 14.7159 31.0267 14.7786 31.4151 14.7789H31.4206C31.809 14.7792 32.1937 14.717 32.5527 14.5959C32.9117 14.4748 33.238 14.2971 33.5129 14.0731C33.7878 13.849 34.006 13.5829 34.155 13.29C34.304 12.997 34.3808 12.683 34.3812 12.3658C34.3815 12.0486 34.3054 11.7345 34.1571 11.4414C34.0088 11.1482 33.7912 10.8818 33.5168 10.6573C33.2424 10.4328 32.9165 10.2546 32.5578 10.133C32.1991 10.0113 31.8145 9.94857 31.4261 9.94828H31.4206Z" fill="#262424"/>
<path id="Vector_84" d="M31.4068 18.5421C31.3672 18.5421 31.3293 18.5292 31.3013 18.5064C31.2733 18.4835 31.2576 18.4525 31.2576 18.4202L31.264 15.6585C31.264 15.6261 31.2798 15.5952 31.3077 15.5723C31.3357 15.5495 31.3737 15.5366 31.4132 15.5366C31.4528 15.5366 31.4908 15.5495 31.5187 15.5723C31.5467 15.5952 31.5625 15.6261 31.5625 15.6585L31.556 18.4202C31.556 18.4525 31.5403 18.4835 31.5123 18.5064C31.4843 18.5292 31.4464 18.5421 31.4068 18.5421Z" fill="#262424"/>
<path id="Vector_85" d="M20.0691 17.7585V18.5517C20.0691 18.5766 20.06 18.6009 20.0431 18.6215C20.0261 18.6422 20.0021 18.6583 19.9739 18.6678C19.9458 18.6774 19.9148 18.6798 19.8849 18.675C19.855 18.6702 19.8276 18.6582 19.806 18.6406L19.5543 18.4351L18.5382 19.2653C18.4563 19.3321 18.3454 19.3696 18.2296 19.3696C18.1139 19.3696 18.0029 19.3321 17.921 19.2653L17.258 18.7251L16.4075 19.4196C16.367 19.4527 16.3189 19.479 16.2659 19.4969C16.213 19.5148 16.1562 19.5241 16.0989 19.5241C16.0416 19.5241 15.9848 19.5148 15.9319 19.4969C15.8789 19.479 15.8308 19.4527 15.7903 19.4196C15.7497 19.3865 15.7176 19.3472 15.6956 19.304C15.6737 19.2608 15.6624 19.2144 15.6624 19.1676C15.6624 19.1208 15.6737 19.0744 15.6956 19.0312C15.7176 18.9879 15.7497 18.9487 15.7903 18.9156L16.9492 17.9693C16.9897 17.9362 17.0378 17.9099 17.0907 17.892C17.1437 17.874 17.2004 17.8648 17.2578 17.8648C17.3151 17.8648 17.3719 17.874 17.4248 17.892C17.4778 17.9099 17.5259 17.9362 17.5664 17.9693L18.2289 18.5107L18.9386 17.9315L18.7367 17.7666C18.7152 17.749 18.7005 17.7266 18.6946 17.7022C18.6886 17.6778 18.6917 17.6525 18.7033 17.6295C18.715 17.6065 18.7347 17.5869 18.76 17.573C18.7854 17.5592 18.8151 17.5518 18.8456 17.5518H19.817C19.8501 17.5518 19.883 17.5572 19.9136 17.5676C19.9442 17.578 19.9721 17.5933 19.9955 17.6125C20.0189 17.6317 20.0374 17.6544 20.0501 17.6795C20.0627 17.7045 20.0692 17.7314 20.0691 17.7585Z" fill="#88C0C2"/>
<path id="Vector_86" d="M18.0828 22.2441C17.1789 22.2446 16.2977 22.0133 15.5634 21.5828C14.8292 21.1524 14.279 20.5445 13.9905 19.845C13.7021 19.1455 13.6899 18.3897 13.9557 17.6842C14.2215 16.9788 14.7519 16.3593 15.472 15.9132C16.1921 15.4671 17.0656 15.2169 17.9692 15.1979C18.8728 15.179 19.7608 15.3922 20.5081 15.8075C21.2553 16.2228 21.8239 16.8193 22.1337 17.5127C22.4436 18.206 22.4789 18.9614 22.2348 19.672C22.2229 19.702 22.1973 19.7271 22.1633 19.742C22.1292 19.7569 22.0894 19.7604 22.0523 19.7518C22.0151 19.7432 21.9835 19.7233 21.964 19.696C21.9445 19.6688 21.9387 19.6365 21.9478 19.6058C22.2111 18.8367 22.1214 18.0155 21.6957 17.2965C21.2699 16.5775 20.5374 16.0101 19.6357 15.7008C18.7339 15.3916 17.725 15.3618 16.7982 15.6171C15.8715 15.8723 15.0907 16.395 14.6025 17.087C14.1143 17.779 13.9522 18.5928 14.1467 19.3755C14.3412 20.1582 14.8789 20.856 15.6589 21.3379C16.4388 21.8198 17.4073 22.0526 18.3826 21.9926C19.3579 21.9327 20.2728 21.5841 20.9556 21.0123C20.9832 20.9892 21.021 20.9759 21.0606 20.9755C21.1002 20.9751 21.1384 20.9875 21.1667 21.0101C21.1951 21.0326 21.2113 21.0635 21.2118 21.0958C21.2123 21.1281 21.1971 21.1593 21.1695 21.1825C20.768 21.5189 20.2879 21.7861 19.7578 21.9685C19.2276 22.1508 18.6581 22.2446 18.0828 22.2441Z" fill="#262424"/>
<path id="Vector_87" d="M18.0753 21.3773C17.3588 21.3761 16.6628 21.1821 16.0952 20.8251C15.5275 20.4682 15.1199 19.9683 14.9355 19.4029C14.7511 18.8376 14.8002 18.2384 15.0752 17.6982C15.3502 17.1579 15.8358 16.7069 16.4566 16.4149C17.0775 16.1229 17.7989 16.0063 18.5092 16.0831C19.2194 16.1599 19.8788 16.426 20.3851 16.8399C20.8914 17.2538 21.2164 17.7926 21.3096 18.3727C21.4029 18.9528 21.2592 19.5417 20.9008 20.0484C20.6143 20.453 20.2023 20.7889 19.7062 21.0221C19.2102 21.2554 18.6477 21.3779 18.0753 21.3773ZM18.0857 16.3037C17.5663 16.303 17.0558 16.414 16.6055 16.6255C16.1553 16.837 15.7812 17.1416 15.5209 17.5087C15.2606 17.8757 15.1232 18.2923 15.1227 18.7165C15.1221 19.1406 15.2584 19.5574 15.5177 19.925C15.7771 20.2925 16.1504 20.5978 16.6 20.8101C17.0497 21.0224 17.56 21.1342 18.0794 21.1344C18.5988 21.1345 19.1092 21.023 19.5591 20.811C20.009 20.5989 20.3825 20.2939 20.6422 19.9265C20.9017 19.5597 21.0385 19.1436 21.0388 18.72C21.0391 18.2963 20.9028 17.8801 20.6438 17.5131C20.3848 17.146 20.012 16.8411 19.563 16.6289C19.114 16.4167 18.6045 16.3047 18.0857 16.3041V16.3037Z" fill="#262424"/>
<path id="Vector_88" d="M24.5048 21.8702C24.4786 21.8703 24.4528 21.8647 24.4302 21.854L21.5027 20.4731C21.4857 20.4651 21.4708 20.4545 21.4589 20.4418C21.4469 20.4291 21.4382 20.4146 21.4331 20.3991C21.428 20.3836 21.4267 20.3675 21.4292 20.3516C21.4318 20.3358 21.4382 20.3205 21.448 20.3066C21.4578 20.2927 21.4708 20.2806 21.4864 20.2708C21.5019 20.2611 21.5196 20.2539 21.5386 20.2498C21.5575 20.2456 21.5773 20.2446 21.5967 20.2466C21.6161 20.2487 21.6349 20.2539 21.6519 20.2619L24.5794 21.6428C24.6079 21.6562 24.6301 21.6769 24.6427 21.7017C24.6553 21.7265 24.6576 21.754 24.6491 21.7799C24.6405 21.8059 24.6218 21.8288 24.5957 21.8451C24.5696 21.8614 24.5376 21.8703 24.5048 21.8702Z" fill="#262424"/>
<path id="Vector_89" d="M18.2469 32.3734L17.4303 32.68C17.401 32.691 17.3687 32.6955 17.3366 32.6929C17.3045 32.6903 17.2739 32.6808 17.2478 32.6653C17.2218 32.6499 17.2013 32.629 17.1884 32.6049C17.1755 32.5807 17.1708 32.5542 17.1746 32.5281L17.2796 31.7971C17.2827 31.7758 17.2801 31.7543 17.272 31.734C17.2639 31.7136 17.2506 31.695 17.2328 31.6793L16.6225 31.142C16.6012 31.1225 16.5866 31.0988 16.5801 31.0733C16.5736 31.0478 16.5755 31.0213 16.5856 30.9965C16.5957 30.9718 16.6136 30.9496 16.6376 30.9324C16.6616 30.9151 16.6907 30.9034 16.722 30.8983L17.6038 30.7545C17.6294 30.7503 17.6536 30.7416 17.6748 30.7291C17.6959 30.7165 17.7134 30.7004 17.7262 30.6818L18.1664 30.0417C18.1821 30.0187 18.205 29.9995 18.2328 29.9862C18.2606 29.9729 18.2923 29.9658 18.3245 29.9658C18.3568 29.9658 18.3884 29.9729 18.4162 29.9862C18.4441 29.9995 18.467 30.0187 18.4827 30.0417L18.9229 30.6818C18.9356 30.7004 18.9532 30.7165 18.9743 30.7291C18.9954 30.7416 19.0196 30.7503 19.0452 30.7545L19.927 30.8983C19.9584 30.9034 19.9875 30.9151 20.0115 30.9324C20.0354 30.9496 20.0534 30.9718 20.0635 30.9965C20.0736 31.0213 20.0755 31.0478 20.069 31.0733C20.0625 31.0988 20.0478 31.1225 20.0265 31.142L19.4128 31.6817C19.395 31.6974 19.3816 31.7161 19.3736 31.7364C19.3655 31.7568 19.3629 31.7783 19.366 31.7995L19.4709 32.5306C19.4748 32.5567 19.47 32.5832 19.4572 32.6073C19.4443 32.6314 19.4238 32.6523 19.3977 32.6678C19.3717 32.6833 19.341 32.6928 19.309 32.6954C19.2769 32.6979 19.2446 32.6935 19.2153 32.6824L18.3986 32.3758C18.3751 32.3665 18.3493 32.3614 18.3231 32.361C18.2969 32.3606 18.2709 32.3648 18.2469 32.3734Z" fill="#88C0C2"/>
<path id="Vector_90" d="M18.3285 34.8534C17.965 34.8532 17.6029 34.8157 17.2508 34.7417C16.6078 34.6068 16.0117 34.3525 15.5088 33.9987C15.0058 33.6448 14.6097 33.201 14.3511 32.7017C14.0925 32.2025 13.9786 31.6612 14.018 31.1201C14.0574 30.5789 14.2493 30.0525 14.5785 29.5818C14.9078 29.1111 15.3657 28.7088 15.9164 28.4062C16.4672 28.1036 17.0961 27.9089 17.7541 27.8371C18.4121 27.7654 19.0815 27.8186 19.7102 27.9927C20.3389 28.1667 20.9099 28.4568 21.3789 28.8405C21.3935 28.8517 21.4052 28.8652 21.4133 28.8801C21.4214 28.8951 21.4258 28.9112 21.4261 28.9276C21.4264 28.944 21.4227 28.9602 21.4151 28.9754C21.4076 28.9905 21.3964 29.0043 21.3822 29.0158C21.368 29.0274 21.3511 29.0364 21.3325 29.0425C21.3139 29.0486 21.294 29.0516 21.2739 29.0513C21.2539 29.0509 21.2341 29.0473 21.2159 29.0406C21.1976 29.0339 21.1811 29.0243 21.1675 29.0123C20.4764 28.4471 19.5563 28.1073 18.5801 28.0569C17.6039 28.0064 16.6387 28.2487 15.8658 28.7383C15.0929 29.2279 14.5655 29.9311 14.3826 30.7157C14.1997 31.5004 14.3739 32.3126 14.8725 32.9998C15.3711 33.687 16.1598 34.2019 17.0904 34.4478C18.0211 34.6937 19.0297 34.6538 19.9268 34.3354C20.8239 34.017 21.5478 33.4421 21.9625 32.7187C22.3772 31.9953 22.4543 31.1731 22.1791 30.4066C22.168 30.3756 22.1724 30.3422 22.1914 30.3138C22.2104 30.2855 22.2424 30.2644 22.2804 30.2553C22.3183 30.2462 22.3592 30.2498 22.394 30.2653C22.4287 30.2808 22.4545 30.3069 22.4656 30.338C22.6534 30.863 22.689 31.4166 22.5697 31.9549C22.4503 32.4931 22.1793 33.0013 21.778 33.4393C21.3767 33.8773 20.8561 34.2331 20.2575 34.4785C19.6588 34.724 18.9984 34.8523 18.3285 34.8534Z" fill="#262424"/>
<path id="Vector_91" d="M18.3284 33.9896C18.0537 33.9894 17.7802 33.9611 17.5142 33.9051C16.9955 33.7966 16.5176 33.5852 16.1228 33.2898C15.7281 32.9944 15.4286 32.624 15.2509 32.2115C15.0733 31.7991 15.023 31.3572 15.1044 30.925C15.1859 30.4928 15.3965 30.0837 15.7178 29.7339C16.0391 29.3841 16.4611 29.1045 16.9464 28.9196C17.4317 28.7348 17.9653 28.6506 18.4999 28.6743C19.0346 28.6981 19.5538 28.8292 20.0117 29.056C20.4695 29.2828 20.8517 29.5983 21.1246 29.9745C21.4169 30.378 21.5734 30.8375 21.5783 31.3063C21.5832 31.7751 21.4363 32.2367 21.1524 32.6442C20.8686 33.0518 20.458 33.3909 19.962 33.6271C19.4661 33.8634 18.9025 33.9884 18.3284 33.9896ZM18.3179 28.9129C17.6658 28.9139 17.0323 29.091 16.5162 29.4165C16.0001 29.742 15.6302 30.1977 15.4641 30.7127C15.298 31.2277 15.345 31.7731 15.5978 32.264C15.8507 32.7549 16.2951 33.1638 16.862 33.427C17.429 33.6903 18.0865 33.7931 18.7324 33.7195C19.3783 33.646 19.9764 33.4001 20.4334 33.0202C20.8905 32.6403 21.1809 32.1478 21.2596 31.6191C21.3383 31.0904 21.2008 30.5554 20.8684 30.0972C20.6057 29.736 20.2323 29.437 19.785 29.2296C19.3377 29.0222 18.8318 28.9136 18.3174 28.9145L18.3179 28.9129Z" fill="#262424"/>
<path id="Vector_92" d="M21.7966 29.7704C21.7639 29.7704 21.7322 29.7616 21.7062 29.7454C21.6802 29.7292 21.6614 29.7065 21.6528 29.6807C21.6441 29.655 21.6461 29.6277 21.6583 29.6029C21.6706 29.5781 21.6924 29.5574 21.7205 29.5437L24.6296 28.1373C24.6465 28.1288 24.6652 28.1231 24.6848 28.1206C24.7044 28.1181 24.7244 28.1188 24.7436 28.1227C24.7628 28.1265 24.781 28.1335 24.7969 28.1431C24.8128 28.1528 24.8262 28.1649 24.8363 28.1788C24.8464 28.1928 24.853 28.2082 24.8557 28.2242C24.8584 28.2402 24.8572 28.2565 24.8522 28.2722C24.8471 28.2878 24.8383 28.3025 24.8262 28.3153C24.8141 28.3281 24.799 28.3388 24.7818 28.3468L21.8727 29.7533C21.8497 29.7645 21.8234 29.7704 21.7966 29.7704Z" fill="#262424"/>
<path id="Vector_93" d="M19.5689 11.4495C19.9356 11.319 20.2282 11.08 20.388 10.7806L20.5984 10.3862L20.8088 10.7806C20.9686 11.08 21.2613 11.319 21.628 11.4495L22.1109 11.6213L21.628 11.7927C21.2613 11.9232 20.9686 12.1622 20.8088 12.4616L20.5984 12.856L20.388 12.4616C20.2282 12.1622 19.9356 11.9232 19.5689 11.7927L19.0859 11.6209L19.5689 11.4495Z" fill="#88C0C2"/>
<path id="Vector_94" d="M13.8919 35.7487C14.0649 35.6872 14.203 35.5744 14.2783 35.4331L14.3778 35.2471L14.4773 35.4331C14.5526 35.5744 14.6906 35.6872 14.8637 35.7487L15.0915 35.8299L14.8637 35.9111C14.6906 35.9726 14.5526 36.0854 14.4773 36.2267L14.3778 36.4127L14.2783 36.2267C14.203 36.0854 14.0649 35.9726 13.8919 35.9111L13.6641 35.8299L13.8919 35.7487Z" fill="#88C0C2"/>
<path id="Vector_95" d="M17.6878 37.777C17.9614 37.6797 18.1798 37.5013 18.299 37.2779L18.4562 36.9834L18.6133 37.2779C18.7323 37.5012 18.9503 37.6795 19.2236 37.777L19.5842 37.9053L19.2236 38.0333C18.9499 38.1306 18.7316 38.3089 18.6124 38.5324L18.4552 38.8269L18.298 38.5324C18.1788 38.3089 17.9604 38.1306 17.6868 38.0333L17.3262 37.9049L17.6878 37.777Z" fill="#88C0C2"/>
<path id="Vector_96" d="M37.3332 8.15245C37.7187 8.01536 38.0263 7.76418 38.1942 7.44942L38.4155 7.03516L38.6368 7.44942C38.8047 7.76418 39.1123 8.01536 39.4978 8.15245L40.0051 8.33318L39.4978 8.51392C39.1123 8.65101 38.8047 8.90219 38.6368 9.21695L38.4155 9.63121L38.1942 9.21695C38.0263 8.90219 37.7187 8.65101 37.3332 8.51392L36.8259 8.33318L37.3332 8.15245Z" fill="#88C0C2"/>
<g id="Group">
<path id="Vector_97" d="M15.1062 9.32373C15.2799 9.56841 15.5117 9.78235 15.7879 9.95306C16.064 10.1238 16.3791 10.2478 16.7146 10.318L16.2252 11.1558C16.2252 11.1558 14.7565 10.9999 14.1587 9.71403L15.1062 9.32373Z" fill="#DE9244"/>
<path id="Vector_98" d="M46.2524 12.3074C46.5979 12.2841 46.9342 12.2047 47.2416 12.0739C47.5491 11.9432 47.8215 11.7637 48.043 11.5459L48.7607 12.266C48.7607 12.266 47.9594 13.2813 46.2803 13.1737L46.2524 12.3074Z" fill="#DE9244"/>
<path id="Vector_99" d="M12 24.8748C12.3691 24.7166 12.6958 24.4998 12.9611 24.2373C13.2265 23.9747 13.4251 23.6716 13.5453 23.3457L14.7544 23.8688C14.7544 23.8688 14.4505 25.3029 12.5262 25.8248L12 24.8748Z" fill="#DE9244"/>
<path id="Vector_100" d="M28.6089 39.6602C29.0085 39.5635 29.3804 39.4027 29.7031 39.1872C30.0257 38.9717 30.2925 38.7059 30.4879 38.4053L31.5493 39.1099C31.5493 39.1099 30.9117 40.4668 28.8993 40.676L28.6089 39.6602Z" fill="#DE9244"/>
<path id="Vector_101" d="M34.0317 7.91314C34.3745 7.91314 34.6524 7.68621 34.6524 7.40628C34.6524 7.12634 34.3745 6.89941 34.0317 6.89941C33.6889 6.89941 33.411 7.12634 33.411 7.40628C33.411 7.68621 33.6889 7.91314 34.0317 7.91314Z" fill="#DE9244"/>
<path id="Vector_102" d="M25.7665 17.0206C26.1093 17.0206 26.3872 16.7936 26.3872 16.5137C26.3872 16.2338 26.1093 16.0068 25.7665 16.0068C25.4237 16.0068 25.1458 16.2338 25.1458 16.5137C25.1458 16.7936 25.4237 17.0206 25.7665 17.0206Z" fill="#DE9244"/>
<path id="Vector_103" d="M25.3517 36.1021C25.6945 36.1021 25.9724 35.8752 25.9724 35.5952C25.9724 35.3153 25.6945 35.0884 25.3517 35.0884C25.0089 35.0884 24.731 35.3153 24.731 35.5952C24.731 35.8752 25.0089 36.1021 25.3517 36.1021Z" fill="#DE9244"/>
</g>
<path id="Vector_104" d="M39.8214 52.1915C40.2793 52.1915 40.6505 51.8884 40.6505 51.5144C40.6505 51.1405 40.2793 50.8374 39.8214 50.8374C39.3635 50.8374 38.9923 51.1405 38.9923 51.5144C38.9923 51.8884 39.3635 52.1915 39.8214 52.1915Z" fill="#88C0C2"/>
</g>
</g>
</svg>
