<svg width="63" height="64" viewBox="0 0 63 64" fill="none" xmlns="http://www.w3.org/2000/svg">
<g id="Icon">
<circle id="Background" cx="31.5" cy="32.3994" r="31.5" fill="#7F0B0C"/>
<g id="&#240;&#159;&#166;&#134; illustration &#34;Dream&#34;">
<path id="Vector" d="M30.9732 44.4472C28.6483 43.7769 26.461 42.6928 24.3634 41.5326C22.0449 40.2539 19.2703 41.002 16.7934 40.8251C14.4669 40.6677 12.1212 39.6596 10.59 37.7177C9.0587 35.7758 8.49227 32.8346 9.52112 30.5231C10.1787 29.0445 11.4172 27.8808 11.7612 26.2785C12.1868 24.3012 11.1324 22.1824 11.646 20.2316C11.9996 18.891 13.0541 17.8882 14.2173 17.3453C15.9518 16.537 17.4911 16.9332 19.2303 16.6732C21.3424 16.3584 23.3313 16.7493 25.4274 15.8738C27.3475 15.0762 29.0468 13.6878 31.0276 13.1449C32.5421 12.7349 34.1333 12.8403 35.5926 13.4473C37.8919 14.4077 39.7688 16.5777 42.2041 16.9403C43.3114 17.1065 44.2586 16.3354 45.3467 16.1073C46.97 15.762 48.6495 15.953 50.1753 16.6562C51.7011 17.3595 53.0057 18.544 53.9262 20.0619C54.4748 20.9233 54.8312 21.916 54.9663 22.9588C55.1359 24.5505 54.6287 26.1423 54.275 27.7004C53.5358 30.9776 54.9343 34.2106 54.3742 37.4454C53.8494 40.4803 51.1325 41.0144 48.7116 40.8393C47.5644 40.7562 46.0219 40.6271 44.9258 41.101C43.953 41.5237 43.2778 42.5973 42.4441 43.2711C41.7145 43.8618 40.8265 44.1554 39.9448 44.3853C37.4343 45.0196 34.8398 45.1394 32.2901 44.739C31.8465 44.6696 31.4068 44.5722 30.9732 44.4472Z" fill="#EFEFEF"/>
<path id="Vector_2" d="M37.3704 21.3502C38.7463 21.3502 39.8617 20.1173 39.8617 18.5965C39.8617 17.0756 38.7463 15.8428 37.3704 15.8428C35.9945 15.8428 34.8791 17.0756 34.8791 18.5965C34.8791 20.1173 35.9945 21.3502 37.3704 21.3502Z" fill="#FFD200"/>
<path id="Vector_3" d="M26.3394 20.3668C27.2231 20.3668 27.9395 19.575 27.9395 18.5982C27.9395 17.6214 27.2231 16.8296 26.3394 16.8296C25.4558 16.8296 24.7394 17.6214 24.7394 18.5982C24.7394 19.575 25.4558 20.3668 26.3394 20.3668Z" fill="#CCCCCC"/>
<path id="Vector_4" d="M40.4263 32.4814C41.356 32.4814 42.1096 31.6484 42.1096 30.6208C42.1096 29.5933 41.356 28.7603 40.4263 28.7603C39.4967 28.7603 38.743 29.5933 38.743 30.6208C38.743 31.6484 39.4967 32.4814 40.4263 32.4814Z" fill="#FFD200"/>
<path id="Vector_5" d="M50.5357 33.3336C51.3292 33.3336 51.9725 32.6226 51.9725 31.7454C51.9725 30.8683 51.3292 30.1572 50.5357 30.1572C49.7421 30.1572 49.0988 30.8683 49.0988 31.7454C49.0988 32.6226 49.7421 33.3336 50.5357 33.3336Z" fill="#CCCCCC"/>
<path id="Vector_6" d="M21.9074 25.7692C22.7009 25.7692 23.3442 25.0581 23.3442 24.181C23.3442 23.3038 22.7009 22.5928 21.9074 22.5928C21.1138 22.5928 20.4705 23.3038 20.4705 24.181C20.4705 25.0581 21.1138 25.7692 21.9074 25.7692Z" fill="#FFD200"/>
<path id="Vector_7" d="M38.7431 25.2863C39.2114 25.2863 39.5911 24.8667 39.5911 24.349C39.5911 23.8313 39.2114 23.4116 38.7431 23.4116C38.2747 23.4116 37.895 23.8313 37.895 24.349C37.895 24.8667 38.2747 25.2863 38.7431 25.2863Z" fill="#CCCCCC"/>
<path id="Vector_8" d="M32.8789 42.988C33.3473 42.988 33.727 42.5683 33.727 42.0506C33.727 41.5329 33.3473 41.1133 32.8789 41.1133C32.4106 41.1133 32.0309 41.5329 32.0309 42.0506C32.0309 42.5683 32.4106 42.988 32.8789 42.988Z" fill="#FFD200"/>
<path id="Vector_9" d="M45.7676 38.4089C46.2359 38.4089 46.6156 37.9892 46.6156 37.4715C46.6156 36.9538 46.2359 36.5342 45.7676 36.5342C45.2992 36.5342 44.9196 36.9538 44.9196 37.4715C44.9196 37.9892 45.2992 38.4089 45.7676 38.4089Z" fill="#FFD200"/>
<path id="Vector_10" d="M15.9646 26.7058C16.4329 26.7058 16.8126 26.2861 16.8126 25.7684C16.8126 25.2507 16.4329 24.8311 15.9646 24.8311C15.4962 24.8311 15.1165 25.2507 15.1165 25.7684C15.1165 26.2861 15.4962 26.7058 15.9646 26.7058Z" fill="#CCCCCC"/>
<path id="Vector_11" d="M38.2185 41.1042C38.6868 41.1042 39.0665 40.6845 39.0665 40.1668C39.0665 39.6492 38.6868 39.2295 38.2185 39.2295C37.7501 39.2295 37.3704 39.6492 37.3704 40.1668C37.3704 40.6845 37.7501 41.1042 38.2185 41.1042Z" fill="#CCCCCC"/>
<g id="Group">
<path id="Vector_12" d="M15.1163 22.7502C15.5847 22.7502 15.9644 22.3305 15.9644 21.8128C15.9644 21.2952 15.5847 20.8755 15.1163 20.8755C14.648 20.8755 14.2683 21.2952 14.2683 21.8128C14.2683 22.3305 14.648 22.7502 15.1163 22.7502Z" fill="#FFD200"/>
<path id="Vector_13" d="M17.6607 35.6838C18.1291 35.6838 18.5088 35.2641 18.5088 34.7464C18.5088 34.2288 18.1291 33.8091 17.6607 33.8091C17.1924 33.8091 16.8127 34.2288 16.8127 34.7464C16.8127 35.2641 17.1924 35.6838 17.6607 35.6838Z" fill="#FFD200"/>
<path id="Vector_14" d="M47.7116 26.8583C49.7052 26.8583 51.3214 25.072 51.3214 22.8684C51.3214 20.6648 49.7052 18.8784 47.7116 18.8784C45.718 18.8784 44.1019 20.6648 44.1019 22.8684C44.1019 25.072 45.718 26.8583 47.7116 26.8583Z" fill="#FFD200"/>
</g>
<path id="Vector_15" d="M25.6916 40.9702C25.6916 40.9702 21.7298 44.3005 20.5073 43.6921C19.2849 43.0837 18.1232 38.2872 18.1232 38.2872L19.3457 37.67C19.3457 37.67 20.997 40.8623 21.5474 40.4874C22.0978 40.1124 23.9715 37.4648 23.9715 37.4648L25.6916 40.9702Z" fill="#24285B"/>
<path id="Vector_16" d="M26.922 26.4556C26.922 26.4556 19.7329 29.8283 15.7391 29.6514L15.8991 31.6782C15.8991 31.6782 22.6354 32.872 26.9188 30.8912C31.2022 28.9104 26.922 26.4556 26.922 26.4556Z" fill="#68E1FD"/>
<path id="Vector_17" d="M32.1334 24.3097L31.9494 26.3471L30.6901 26.0306L31.367 23.5156L32.1334 24.3097Z" fill="#F4A28C"/>
<path id="Vector_18" d="M31.6069 22.0461C31.7133 21.9454 31.8408 21.8756 31.9777 21.843C32.1147 21.8105 32.2569 21.8163 32.3913 21.8598C32.5258 21.9034 32.6482 21.9834 32.7477 22.0925C32.8471 22.2016 32.9202 22.3365 32.9606 22.4848C33.159 23.1922 33.3142 24.2215 32.5718 24.34C31.4373 24.5169 31.1781 22.9057 31.1781 22.9057C31.2415 22.5788 31.3907 22.2799 31.6069 22.0461Z" fill="#F4A28C"/>
<path id="Vector_19" d="M31.8725 23.1995C31.8725 23.1995 31.7429 22.8794 31.5173 23.1146C31.2917 23.3499 31.6181 23.6947 31.7973 23.6116C31.9765 23.5285 31.8725 23.1995 31.8725 23.1995Z" fill="#F4A28C"/>
<path id="Vector_20" d="M32.1429 22.9162C32.1429 22.9162 31.9669 24.5964 31.2149 24.0817C30.4628 23.567 31.1669 23.1833 31.0549 22.3326C30.9429 21.4819 31.3397 21.16 32.1845 20.9177C32.5733 20.8063 32.8118 20.7868 32.9846 20.709C33.0577 20.6754 33.1373 20.6624 33.2161 20.6711C33.295 20.6797 33.3706 20.7099 33.4364 20.7587C33.5021 20.8076 33.5559 20.8737 33.593 20.9511C33.63 21.0285 33.6491 21.1149 33.6486 21.2024C33.6086 21.8692 33.2854 22.6085 32.1429 22.9162Z" fill="#24285B"/>
<path id="Vector_21" d="M26.9218 26.4549C27.3118 26.0945 27.7676 25.8314 28.258 25.6837C28.7485 25.5359 29.262 25.507 29.7635 25.5989C31.7028 25.9527 35.4326 26.4832 35.615 28.747C35.8646 31.8385 29.7363 40.1669 29.7363 40.1669L23.8353 37.6095C23.8353 37.6095 23.4449 29.6932 26.9218 26.4549Z" fill="#68E1FD"/>
<path id="Vector_22" d="M29.7364 40.1678L24.245 50.5724L23.0625 49.9375L25.693 40.9778L23.9217 37.6528L29.7364 40.1678Z" fill="#24285B"/>
<path id="Vector_23" opacity="0.08" d="M26.9218 26.4549C27.3118 26.0945 27.7676 25.8314 28.258 25.6837C28.7485 25.5359 29.262 25.507 29.7635 25.5989L30.3284 25.698C30.3284 25.698 23.5121 33.7398 30.9124 38.4938L29.7331 40.1739L23.8353 37.6095C23.8353 37.6095 23.4449 29.6932 26.9218 26.4549Z" fill="black"/>
<path id="Vector_24" d="M24.2115 50.5544L24.6707 51.5908C24.6881 51.631 24.6938 51.6761 24.687 51.72C24.6803 51.7638 24.6614 51.8044 24.633 51.8359C24.6046 51.8675 24.5681 51.8886 24.5285 51.8963C24.4888 51.904 24.4479 51.898 24.4115 51.8791L23.4739 51.375C23.341 51.3037 23.2393 51.177 23.191 51.0228C23.1427 50.8686 23.1518 50.6995 23.2162 50.5526L23.4051 50.1211L24.2115 50.5544Z" fill="#68E1FD"/>
<path id="Vector_25" d="M46.1899 33.2169L45.4587 32.4812L40.1416 34.0729C39.7504 34.1901 39.338 34.191 38.9463 34.0755C38.5546 33.96 38.1975 33.7321 37.9111 33.415C37.0604 32.4848 36.5296 31.2558 36.4103 29.9397C36.1223 26.8075 33.4565 26.4556 33.4565 26.4556C33.4565 26.4556 30.914 27.4071 32.9125 32.4493C34.1046 35.4559 36.1351 36.694 37.5783 37.2069C37.7536 37.2726 37.9251 37.35 38.0919 37.4385C38.2536 37.5177 38.4273 37.5627 38.604 37.5712C38.823 37.5852 39.0426 37.5852 39.2616 37.5712C41.0265 37.4332 43.3386 36.3579 46.1899 33.2169Z" fill="#68E1FD"/>
<path id="Vector_26" opacity="0.2" d="M46.1899 33.2169L45.4587 32.4812L40.1416 34.0729C39.7504 34.1901 39.338 34.191 38.9463 34.0755C38.5546 33.96 38.1975 33.7321 37.9111 33.415C37.0604 32.4848 36.5296 31.2558 36.4103 29.9397C36.1223 26.8075 33.4565 26.4556 33.4565 26.4556C33.4565 26.4556 30.914 27.4071 32.9125 32.4493C34.1046 35.4559 36.1351 36.694 37.5783 37.2069C37.7536 37.2726 37.9251 37.35 38.0919 37.4385C38.2536 37.5177 38.4273 37.5627 38.604 37.5712C38.823 37.5852 39.0426 37.5852 39.2616 37.5712C41.0265 37.4332 43.3386 36.3579 46.1899 33.2169Z" fill="white"/>
<path id="Vector_27" d="M45.4587 32.4815C45.4587 32.4815 46.1868 31.7475 46.2588 31.675C46.2783 31.65 46.3032 31.6308 46.3311 31.6191C46.359 31.6074 46.3892 31.6035 46.4188 31.6078C46.4956 31.6396 46.4972 31.7563 46.486 31.8465C46.7891 31.7333 47.0993 31.6446 47.414 31.5812C47.4548 31.568 47.4981 31.568 47.5388 31.5812C47.5728 31.6005 47.6007 31.6307 47.6188 31.6679C47.6854 31.8124 47.711 31.9757 47.6925 32.1366C47.6739 32.2974 47.612 32.4484 47.5148 32.5699C47.3319 32.8088 47.0935 32.988 46.8252 33.0881C46.686 33.1394 46.3132 33.3445 46.1852 33.2119L45.4587 32.4815Z" fill="#F4A28C"/>
<path id="Vector_28" d="M19.3456 37.6767C19.3456 37.6767 18.9488 36.9693 18.8272 36.9428C18.7056 36.9162 17.1151 37.5105 17.0543 37.6767C16.9935 37.843 18.1232 38.294 18.1232 38.294L19.3456 37.6767Z" fill="#68E1FD"/>
<path id="Vector_29" d="M15.7391 29.8991C15.7391 29.8991 14.9295 29.6974 14.5471 29.7982C14.1646 29.8991 13.0814 30.4579 13.4926 30.8293C13.9038 31.2007 14.5327 31.0486 14.7311 31.0999C14.9295 31.1512 15.8863 31.4696 15.8863 31.4696L15.7391 29.8991Z" fill="#F4A28C"/>
<path id="Vector_30" d="M32.8835 20.7406C32.6139 21.1199 32.3039 21.4619 31.9603 21.7593C31.6763 22.0066 31.3496 22.1872 31.0003 22.2899C31.0003 22.2899 30.9427 20.9458 30.3042 20.7159C30.0514 20.6257 29.6242 20.4683 29.3282 20.3621L29.0082 20.2401L29.0306 19.9925C29.0306 19.9925 30.5922 19.5221 31.2483 19.5698C31.9043 19.6176 32.8835 20.7406 32.8835 20.7406Z" fill="#68E1FD"/>
<path id="Vector_31" d="M28.9522 20.5113C29.1227 20.5113 29.261 20.3585 29.261 20.17C29.261 19.9814 29.1227 19.8286 28.9522 19.8286C28.7816 19.8286 28.6434 19.9814 28.6434 20.17C28.6434 20.3585 28.7816 20.5113 28.9522 20.5113Z" fill="#68E1FD"/>
<path id="Vector_32" opacity="0.08" d="M31.0069 22.296C31.0069 22.296 30.9493 20.9518 30.3109 20.7219C30.0581 20.6317 29.6309 20.4743 29.3348 20.3682C29.562 20.1754 30.0133 20.2037 30.2629 20.2603C30.5396 20.3425 30.8016 20.4765 31.0373 20.6565C31.3349 20.8599 31.6453 21.0721 31.8261 21.4028C31.8861 21.513 31.9313 21.6321 31.9606 21.7566C31.6791 22.0061 31.3547 22.1897 31.0069 22.296Z" fill="black"/>
</g>
</g>
</svg>
