<svg width="63" height="64" viewBox="0 0 63 64" fill="none" xmlns="http://www.w3.org/2000/svg">
<g id="Icon">
<circle id="Background" cx="31.5" cy="32.3994" r="31.5" fill="#7F0B0C"/>
<g id="&#240;&#159;&#166;&#134; emoji &#34;pencil&#34;">
<path id="Vector" d="M14.1571 47.9531L17.0952 50.8915L12.5756 52.721L14.1571 47.9531Z" fill="#3F3F3F"/>
<path id="Vector_2" d="M16.9215 38.8988L32.0376 23.7812L41.1191 32.8636L26.1313 47.8528" fill="#F4AA41"/>
<path id="Vector_3" d="M14.0116 47.4815L16.8332 40.1182L24.7802 48.0656L17.4174 50.8876" fill="#A57939"/>
<path id="Vector_4" d="M36.8964 18.9222L42.9186 12.8994L52 21.9817L46.029 27.9533" fill="#EA5A47"/>
<path id="Vector_5" d="M31.0593 24.7591L37.2261 18.5918L46.3076 27.6741L40.1931 33.7891" fill="#9B9B9A"/>
<g id="Group">
<path id="Vector_6" d="M17.3971 50.8965L24.7803 48.0654L45.6463 27.1976L37.6994 19.25L16.8333 40.118L13.9934 47.5109L17.3971 50.8965Z" stroke="black" stroke-width="1.70127" stroke-miterlimit="10" stroke-linecap="round" stroke-linejoin="round"/>
<path id="Vector_7" d="M40.4401 16.5089L43.2524 13.6963L51.1993 21.6439L48.4107 24.4327" stroke="black" stroke-width="1.70127" stroke-miterlimit="10" stroke-linecap="round" stroke-linejoin="round"/>
<path id="Vector_8" d="M17.3374 39.6138L25.2843 47.5613" stroke="black" stroke-width="1.70127" stroke-miterlimit="10" stroke-linecap="round" stroke-linejoin="round"/>
<path id="Vector_9" d="M13.9993 47.4937L12 52.8992L17.4174 50.8874" stroke="black" stroke-width="1.70127" stroke-miterlimit="10" stroke-linecap="round" stroke-linejoin="round"/>
<path id="Vector_10" d="M32.0709 25.3564L39.7072 32.9934" stroke="black" stroke-width="1.70127" stroke-miterlimit="10" stroke-linecap="round" stroke-linejoin="round"/>
</g>
</g>
</g>
</svg>
