<svg width="30" height="30" viewBox="0 0 30 30" fill="none" xmlns="http://www.w3.org/2000/svg">
<g id="grommet-icons:view">
<path id="Vector" d="M15 26.25C8.75 26.25 1.25 20 1.25 15C1.25 10 8.75 3.75 15 3.75C21.25 3.75 28.75 10 28.75 15C28.75 20 21.25 26.25 15 26.25ZM15 8.75C13.3424 8.75 11.7527 9.40848 10.5806 10.5806C9.40848 11.7527 8.75 13.3424 8.75 15C8.75 16.6576 9.40848 18.2473 10.5806 19.4194C11.7527 20.5915 13.3424 21.25 15 21.25C16.6576 21.25 18.2473 20.5915 19.4194 19.4194C20.5915 18.2473 21.25 16.6576 21.25 15C21.25 13.3424 20.5915 11.7527 19.4194 10.5806C18.2473 9.40848 16.6576 8.75 15 8.75Z" stroke="black" stroke-width="2"/>
</g>
</svg>
