<svg width="52" height="58" viewBox="0 0 52 58" fill="none" xmlns="http://www.w3.org/2000/svg">
<g id="ic:round-apple">
<path id="Vector" d="M37.4278 48.6119C35.2117 50.7884 32.792 50.4447 30.4628 49.4138C27.998 48.3599 25.7367 48.314 23.1361 49.4138C19.8798 50.8342 18.1612 50.4218 16.2164 48.6119C5.1811 37.0878 6.80926 19.5382 19.3371 18.8967C22.3899 19.0571 24.5155 20.5921 26.302 20.7296C28.9704 20.1797 31.5257 18.5989 34.375 18.8051C37.7896 19.08 40.3675 20.4547 42.0635 22.929C35.0081 27.2133 36.6815 36.6296 43.1489 39.2643C41.86 42.7009 40.1866 46.1146 37.4052 48.6348L37.4278 48.6119ZM26.0759 18.7593C25.7367 13.6502 29.8297 9.43461 34.5333 9.02222C35.189 14.9332 29.2417 19.332 26.0759 18.7593Z" fill="white"/>
</g>
</svg>
