<svg width="21" height="21" viewBox="0 0 21 21" fill="none" xmlns="http://www.w3.org/2000/svg">
<g id="Instagram">
<path id="Vector" d="M14.8704 2.56849C15.9675 2.57164 17.0187 2.99241 17.7945 3.7389C18.5702 4.48538 19.0075 5.49693 19.0107 6.55262V14.52C19.0075 15.5757 18.5702 16.5872 17.7945 17.3337C17.0187 18.0802 15.9675 18.501 14.8704 18.5041H6.59067C5.4936 18.501 4.4424 18.0802 3.66665 17.3337C2.89089 16.5872 2.45363 15.5757 2.45036 14.52V6.55262C2.45363 5.49693 2.89089 4.48538 3.66665 3.7389C4.4424 2.99241 5.4936 2.57164 6.59067 2.56849H14.8704ZM14.8704 0.975098H6.59067C3.40271 0.975098 0.794495 3.48492 0.794495 6.55262V14.52C0.794495 17.5877 3.40271 20.0975 6.59067 20.0975H14.8704C18.0584 20.0975 20.6666 17.5877 20.6666 14.52V6.55262C20.6666 3.48492 18.0584 0.975098 14.8704 0.975098Z" fill="white"/>
<path id="Vector_2" d="M16.1125 6.5529C15.8668 6.5529 15.6267 6.48281 15.4225 6.35148C15.2182 6.22016 15.059 6.0335 14.965 5.81512C14.871 5.59673 14.8464 5.35642 14.8943 5.12459C14.9423 4.89275 15.0606 4.6798 15.2343 4.51265C15.4079 4.34551 15.6293 4.23168 15.8702 4.18556C16.1111 4.13945 16.3608 4.16312 16.5878 4.25357C16.8147 4.34403 17.0087 4.49722 17.1452 4.69376C17.2816 4.8903 17.3545 5.12137 17.3545 5.35775C17.3548 5.51479 17.323 5.67036 17.2607 5.81551C17.1984 5.96067 17.1069 6.09256 16.9915 6.2036C16.8761 6.31465 16.739 6.40267 16.5882 6.46261C16.4373 6.52256 16.2757 6.55324 16.1125 6.5529ZM10.7306 7.34939C11.3857 7.34939 12.0261 7.53631 12.5707 7.88653C13.1154 8.23674 13.54 8.73452 13.7906 9.31691C14.0413 9.89929 14.1069 10.5401 13.9791 11.1584C13.8513 11.7767 13.5359 12.3446 13.0727 12.7903C12.6094 13.236 12.0193 13.5396 11.3768 13.6626C10.7343 13.7856 10.0683 13.7224 9.46309 13.4812C8.85787 13.24 8.34058 12.8315 7.97664 12.3073C7.61269 11.7832 7.41844 11.167 7.41844 10.5366C7.41938 9.69158 7.76864 8.88142 8.38958 8.2839C9.01053 7.68638 9.85245 7.35029 10.7306 7.34939ZM10.7306 5.75599C9.74802 5.75599 8.7875 6.03637 7.97051 6.56167C7.15353 7.08697 6.51676 7.8336 6.14074 8.70714C5.76473 9.58068 5.66634 10.5419 5.85803 11.4693C6.04973 12.3966 6.52289 13.2484 7.21768 13.917C7.91247 14.5856 8.79769 15.0409 9.76139 15.2254C10.7251 15.4098 11.724 15.3151 12.6318 14.9533C13.5396 14.5915 14.3155 13.9787 14.8614 13.1926C15.4073 12.4064 15.6986 11.4821 15.6986 10.5366C15.6986 9.2687 15.1752 8.05274 14.2435 7.1562C13.3118 6.25966 12.0482 5.75599 10.7306 5.75599Z" fill="white"/>
</g>
</svg>
