<svg width="63" height="64" viewBox="0 0 63 64" fill="none" xmlns="http://www.w3.org/2000/svg">
<g id="Icon">
<circle id="Background" cx="31.5" cy="32.3994" r="31.5" fill="#7F0B0C"/>
<g id="&#240;&#159;&#166;&#134; icon &#34;vr virtual reality&#34;">
<path id="Vector" d="M50.5721 15.692C50.5721 12.9609 48.5258 12.4319 46.5375 12.3294C46.358 12.3201 46.1785 12.3473 46.0099 12.4095C45.8412 12.4717 45.687 12.5676 45.5567 12.6913C45.4263 12.815 45.3225 12.9639 45.2515 13.129C45.1805 13.2941 45.1439 13.472 45.1438 13.6517V19.4359C45.1438 19.4359 49.3488 19.6511 50.5721 15.692Z" fill="#464965"/>
<path id="Vector_2" d="M14.6444 39.1276L12.6534 40.953C12.3142 41.2641 12.1072 41.6935 12.0753 42.1527L11.4281 51.4489H38.0534L39.748 47.532C39.748 47.532 42.1279 47.1714 42.2363 44.8634C42.3447 42.5555 41.1545 42.0042 41.1545 42.0042C41.534 41.2933 42.0216 40.6457 42.5998 40.0844C42.8154 39.8778 42.9523 39.6025 42.9867 39.3058C43.0212 39.0092 42.9511 38.7099 42.7886 38.4593L42.5247 38.0482C41.7374 38.366 40.9823 38.7582 40.2694 39.2194C39.2109 39.8998 38.3351 40.8292 37.7188 41.9263L33.6883 49.0439L30.329 41.5747C30.0988 41.0631 29.7151 40.6359 29.2311 40.3524L23.8808 37.2182L23.8241 35.9766C20.4994 36.7635 17.3857 37.7602 14.6444 39.1276Z" fill="#9EBFFF"/>
<path id="Vector_3" d="M23.8244 35.9764L23.6917 33.0709L17.4333 32.5591V36.5688L14.6443 39.1268L23.8244 35.9764Z" fill="#464965"/>
<path id="Vector_4" d="M17.4333 30.3785V32.559L26.0681 34.517C26.0681 34.517 26.7265 31.7537 26.9689 27.7115C23.8349 27.371 20.6477 28.4932 17.4333 30.3785Z" fill="#9EBFFF"/>
<path id="Vector_5" d="M15.7094 24.8547L15.4126 22.5749C15.3508 22.1043 15.4718 21.6279 15.7505 21.2438C16.7265 19.8997 19.6653 16.8658 27.2653 14.7983C27.2653 14.7983 27.5339 16.2569 26.3825 17.7155L28.2632 17.6771C28.1315 18.7436 27.6606 19.7395 26.9198 20.518C25.6912 21.7841 15.7094 24.8547 15.7094 24.8547Z" fill="#9EBFFF"/>
<path id="Vector_6" d="M48.7537 34.1102C45.3272 35.8836 38.8604 35.8639 35.6662 35.7282C35.1597 35.7071 34.6809 35.491 34.33 35.1252C33.9791 34.7594 33.7831 34.2721 33.783 33.7651V20.8306C33.7831 20.5659 33.8368 20.3038 33.9408 20.0603C34.0447 19.8168 34.1968 19.5967 34.3878 19.4134C34.5789 19.2301 34.805 19.0873 35.0527 18.9935C35.3003 18.8997 35.5643 18.8569 35.8289 18.8677C39.8441 19.0274 48.5421 18.9741 50.5722 15.6924V31.1008C50.5738 31.7209 50.4051 32.3295 50.0844 32.8602C49.7637 33.3908 49.3034 33.8232 48.7537 34.1102Z" fill="#F76B99"/>
<path id="Vector_7" d="M46.822 25.319C47.542 25.319 48.1257 24.6743 48.1257 23.879C48.1257 23.0837 47.542 22.439 46.822 22.439C46.102 22.439 45.5183 23.0837 45.5183 23.879C45.5183 24.6743 46.102 25.319 46.822 25.319Z" fill="white"/>
<path id="Vector_8" d="M45.515 28.3004C45.4216 28.7306 45.3706 29.169 45.3629 29.6093C45.3563 29.7371 45.3771 29.8649 45.4241 29.9839C45.4711 30.103 45.5431 30.2106 45.6352 30.2995C45.7273 30.3883 45.8375 30.4564 45.9582 30.4991C46.0788 30.5417 46.2073 30.558 46.3348 30.5468C47.0254 30.48 47.6999 30.298 48.3304 30.0084C48.5551 29.9069 48.743 29.7385 48.8683 29.5262C48.9936 29.3138 49.0503 29.068 49.0305 28.8222C49.0194 28.6928 49.0008 28.5641 48.9747 28.4369C48.5723 26.4902 46.0695 26.3914 45.515 28.3004Z" fill="white"/>
<path id="Vector_9" d="M23.2375 31.0628C22.5947 31.0561 21.9643 30.8854 21.4059 30.5669C21.3081 30.509 21.2374 30.4148 21.2092 30.3048C21.181 30.1948 21.1976 30.0781 21.2554 29.9803C21.3133 29.8826 21.4075 29.8118 21.5175 29.7836C21.6275 29.7554 21.7442 29.772 21.842 29.8299C21.9089 29.869 23.4757 30.7654 24.5707 29.6708C24.6513 29.5918 24.7597 29.5478 24.8726 29.5483C24.9854 29.5489 25.0934 29.594 25.1732 29.6737C25.2529 29.7535 25.298 29.8615 25.2986 29.9743C25.2991 30.0872 25.2551 30.1956 25.1762 30.2762C24.9229 30.5314 24.6205 30.7327 24.2873 30.8679C23.9541 31.0031 23.597 31.0694 23.2375 31.0628Z" fill="#464965"/>
<g id="Group">
<path id="Vector_10" d="M38.2178 31.7401C37.4928 31.7401 36.834 31.7266 36.2775 31.7087C36.2209 31.7075 36.165 31.6951 36.1132 31.6722C36.0614 31.6494 36.0146 31.6164 35.9756 31.5753C35.9366 31.5342 35.9062 31.4858 35.886 31.4329C35.8659 31.3799 35.8564 31.3235 35.8583 31.2669C35.8601 31.2103 35.8731 31.1546 35.8966 31.103C35.9201 31.0515 35.9536 31.0051 35.9951 30.9666C36.0367 30.9281 36.0854 30.8982 36.1386 30.8787C36.1918 30.8592 36.2483 30.8504 36.3049 30.8529C38.325 30.9245 40.3475 30.8782 42.3621 30.7141C42.4743 30.7057 42.5853 30.7418 42.6711 30.8145C42.7569 30.8873 42.8107 30.9909 42.8207 31.103C42.8307 31.2151 42.7962 31.3266 42.7247 31.4134C42.6531 31.5003 42.5503 31.5555 42.4384 31.5671C40.964 31.6986 39.4897 31.7401 38.2178 31.7401Z" fill="white"/>
<path id="Vector_11" d="M38.2269 28.2467C37.588 28.2467 36.937 28.2361 36.2775 28.2148C36.2209 28.2136 36.165 28.2012 36.1132 28.1784C36.0614 28.1555 36.0146 28.1225 35.9756 28.0814C35.9366 28.0404 35.9062 27.9919 35.886 27.939C35.8659 27.8861 35.8564 27.8296 35.8583 27.773C35.8601 27.7164 35.8731 27.6607 35.8966 27.6092C35.9201 27.5576 35.9536 27.5112 35.9951 27.4727C36.0367 27.4342 36.0854 27.4044 36.1386 27.3848C36.1918 27.3653 36.2483 27.3565 36.3049 27.359C37.6623 27.4026 38.9838 27.4009 40.2317 27.3533C40.3449 27.3494 40.4551 27.3905 40.538 27.4677C40.621 27.5448 40.67 27.6517 40.6743 27.7649C40.6786 27.8781 40.6378 27.9884 40.561 28.0716C40.4841 28.1548 40.3774 28.2042 40.2642 28.2089C39.6032 28.2341 38.9223 28.2467 38.2269 28.2467Z" fill="white"/>
<path id="Vector_12" d="M39.4444 24.7403C39.3318 24.74 39.2239 24.6954 39.144 24.6161C39.0641 24.5368 39.0186 24.4293 39.0174 24.3167C39.0161 24.2042 39.0593 24.0957 39.1375 24.0147C39.2157 23.9337 39.3227 23.8868 39.4352 23.8841C40.8632 23.8525 42.1906 23.764 43.3807 23.6211C43.4932 23.6079 43.6065 23.6398 43.6955 23.71C43.7846 23.7801 43.8422 23.8827 43.8557 23.9953C43.8692 24.1078 43.8375 24.2211 43.7676 24.3104C43.6977 24.3996 43.5952 24.4574 43.4827 24.4712C42.2651 24.6175 40.9098 24.708 39.4541 24.7401L39.4444 24.7403Z" fill="white"/>
<path id="Vector_13" d="M42.8752 27.2241L42.505 27.2493C42.2691 27.2653 42.0909 27.4696 42.1069 27.7055C42.1229 27.9414 42.3272 28.1196 42.5631 28.1036L42.9333 28.0784C43.1692 28.0624 43.3474 27.8582 43.3314 27.6223C43.3154 27.3864 43.1111 27.2081 42.8752 27.2241Z" fill="white"/>
</g>
<path id="Vector_14" d="M17.4333 28.5062V30.3782C20.4011 28.8596 23.6438 27.9529 26.9688 27.7118C27.0297 26.6959 27.065 25.6008 27.056 24.4473L17.4333 28.5062Z" fill="#667EC6"/>
<path id="Vector_15" d="M16.8643 29.3198C16.8643 29.3198 19.5732 27.6349 23.6924 26.829L21.9604 21.9282C21.9604 21.9282 17.9744 23.0657 15.7098 25.0157L16.8643 29.3198Z" fill="#464965"/>
<path id="Vector_16" d="M16.2796 29.8028C17.38 29.7274 18.1879 28.4381 18.0842 26.9229C17.9805 25.4077 17.0044 24.2404 15.904 24.3158C14.8036 24.3911 13.9956 25.6805 14.0994 27.1957C14.2031 28.7109 15.1792 29.8781 16.2796 29.8028Z" fill="#464965"/>
<path id="Vector_17" d="M24.4138 20.4888C25.9228 20.239 27.4522 20.1345 28.981 20.1765C29.4656 20.1926 29.9285 20.3811 30.2864 20.7082C30.6442 21.0354 30.8735 21.4795 30.9329 21.9607C31.0354 22.7751 31.0475 23.5983 30.9692 24.4153C30.9221 24.882 30.7154 25.3181 30.384 25.65C30.0525 25.9818 29.6166 26.189 29.15 26.2366C28.0366 26.3487 26.4135 26.53 24.7258 26.7858C24.7258 26.7858 21.6901 27.3092 21.1089 24.3602C20.5278 21.4113 24.4138 20.4888 24.4138 20.4888Z" fill="#464965"/>
<path id="Vector_18" d="M21.8464 23.8902C21.4894 21.0109 24.4139 20.4897 24.4139 20.4897C23.6619 20.61 22.9774 20.7494 22.3954 20.8846C21.6735 21.0518 21.0353 21.472 20.5965 22.0691C20.1576 22.6662 19.9471 23.4008 20.0031 24.1397C20.0054 24.1693 20.0078 24.1988 20.0105 24.2283C20.1714 26.0125 21.8509 27.2648 23.617 26.9642C23.9868 26.9019 24.3581 26.8421 24.7259 26.7863C24.7255 26.7863 22.1785 26.5721 21.8464 23.8902Z" fill="white"/>
<path id="Vector_19" d="M15.8359 28.9051C16.3857 28.8675 16.7749 28.0104 16.7051 26.9907C16.6353 25.971 16.133 25.175 15.5831 25.2126C15.0333 25.2502 14.6441 26.1074 14.7139 27.127C14.7837 28.1467 15.286 28.9427 15.8359 28.9051Z" fill="white"/>
<path id="Vector_20" d="M11.3983 51.876C11.4085 51.876 11.4185 51.877 11.4285 51.877C11.5369 51.8769 11.6412 51.8357 11.7204 51.7617C11.7996 51.6877 11.8478 51.5864 11.8552 51.4783L12.5405 41.6372L14.8681 39.5026L23.4231 36.5668L23.4537 37.2375C23.4569 37.3088 23.478 37.3781 23.5149 37.4393C23.5517 37.5004 23.6033 37.5513 23.6649 37.5874L29.0151 40.7224C29.4229 40.9604 29.7459 41.3201 29.9388 41.751L33.298 49.22C33.3305 49.2922 33.3823 49.354 33.4477 49.3985C33.5132 49.443 33.5897 49.4685 33.6687 49.4721C33.7478 49.4758 33.8263 49.4575 33.8956 49.4192C33.9649 49.381 34.0222 49.3243 34.0612 49.2554L38.0917 42.1378C38.6744 41.1022 39.5011 40.2246 40.4999 39.5811C41.0934 39.2018 41.7146 38.8676 42.3582 38.5813L42.4285 38.6908C42.5375 38.8571 42.5849 39.0563 42.5627 39.2539C42.5405 39.4515 42.4499 39.6351 42.3067 39.7731C41.6916 40.3682 41.1737 41.0563 40.7721 41.8122C40.7458 41.8629 40.7301 41.9184 40.7258 41.9754C40.7215 42.0324 40.7288 42.0896 40.7472 42.1437C40.7654 42.1975 40.7943 42.247 40.8322 42.2893C40.8701 42.3315 40.9163 42.3656 40.9678 42.3895C41.0059 42.409 41.9009 42.8923 41.8094 44.8441C41.7194 46.7648 39.766 47.0965 39.6846 47.1094C39.6129 47.1203 39.545 47.1492 39.4875 47.1935C39.43 47.2378 39.3847 47.296 39.3559 47.3626L37.6614 51.2796C37.6163 51.3838 37.6144 51.5016 37.6562 51.6072C37.698 51.7128 37.78 51.7975 37.8842 51.8426C37.9884 51.8877 38.1063 51.8895 38.2119 51.8477C38.3175 51.8059 38.4021 51.7239 38.4472 51.6197L40.053 47.9087C41.0329 47.674 42.5744 46.8202 42.6652 44.8841C42.7464 43.147 42.1355 42.2768 41.7139 41.8874C42.0406 41.3411 42.4375 40.84 42.8945 40.3968C43.1832 40.122 43.3668 39.7549 43.4135 39.359C43.4602 38.9631 43.3671 38.5633 43.1503 38.2288L42.8864 37.8176C42.8336 37.7353 42.7542 37.6735 42.6614 37.6426C42.5686 37.6116 42.468 37.6134 42.3764 37.6475C41.5607 37.9756 40.7784 38.3815 40.0405 38.8595C38.9237 39.5784 37.9993 40.5591 37.3476 41.7164L33.7334 48.0986L30.7198 41.3993C30.4542 40.806 30.0094 40.3108 29.448 39.9832L24.2981 36.9665L24.1869 34.5298L25.9738 34.935C26.2892 34.9549 26.4334 34.817 26.483 34.6245C26.5181 34.4886 27.3248 31.3129 27.366 26.7402C27.9909 26.6663 28.5629 26.6051 29.0466 26.5567C29.5921 26.4996 30.1014 26.2567 30.4891 25.8688C30.8769 25.4809 31.1196 24.9716 31.1766 24.4261C31.2557 23.61 31.2437 22.7877 31.1408 21.9743C31.0738 21.4102 30.8063 20.8889 30.3871 20.5054C29.9679 20.122 29.4249 19.9019 28.857 19.8853C26.3775 19.7962 23.9892 20.2119 22.4225 20.5753C21.566 20.7705 20.8183 21.2899 20.3366 22.0245C19.2572 22.4277 17.7373 23.077 16.4408 23.9343C16.3011 23.9018 16.1582 23.8851 16.0147 23.8844L15.8363 22.5196C15.7883 22.1575 15.8813 21.7908 16.0961 21.4954C16.9507 20.3185 19.6908 17.4055 26.8615 15.3552C26.8154 16.1217 26.5301 16.8544 26.0458 17.4502C25.9955 17.5139 25.9644 17.5906 25.956 17.6713C25.9476 17.752 25.9624 17.8334 25.9985 17.9061C26.0346 17.9787 26.0907 18.0396 26.1601 18.0817C26.2295 18.1237 26.3094 18.1451 26.3905 18.1435L27.7512 18.1157C27.699 18.331 27.6319 18.5423 27.5504 18.7483C27.5087 18.8539 27.5106 18.9718 27.5558 19.0759C27.6009 19.1801 27.6856 19.2621 27.7912 19.3038C27.8968 19.3456 28.0147 19.3436 28.1189 19.2985C28.223 19.2533 28.305 19.1686 28.3468 19.063C28.5234 18.6297 28.6389 18.1739 28.6899 17.7088C28.6943 17.6493 28.6861 17.5896 28.6661 17.5334C28.646 17.4773 28.6144 17.4259 28.5734 17.3827C28.5323 17.3394 28.4827 17.3052 28.4277 17.2823C28.3726 17.2593 28.3134 17.2481 28.2538 17.2494L27.1851 17.2713C27.898 15.9444 27.696 14.7784 27.6858 14.7212C27.675 14.663 27.6523 14.6076 27.619 14.5586C27.5858 14.5096 27.5427 14.468 27.4926 14.4364C27.4424 14.4049 27.3863 14.3841 27.3277 14.3753C27.2691 14.3666 27.2094 14.37 27.1522 14.3855C19.6157 16.4356 16.5565 19.4048 15.4038 20.9922C15.06 21.4647 14.911 22.0512 14.9876 22.6305L15.1759 24.0758C14.2134 24.5413 13.5743 25.7992 13.6718 27.2249C13.7128 28.0076 13.9978 28.7578 14.4869 29.3702C14.9559 29.9309 15.5513 30.2343 16.1759 30.2343C16.22 30.2343 16.2642 30.2328 16.3085 30.2298C16.5505 30.2126 16.7869 30.1492 17.0049 30.0429V36.3804L14.3596 38.8073L14.3576 38.8089L11.8356 41.122C11.7548 41.1961 11.7055 41.2984 11.6979 41.4077L11.001 51.4191C10.9931 51.5324 11.0305 51.6441 11.105 51.7298C11.1795 51.8155 11.285 51.8681 11.3983 51.876ZM25.7472 34.0055L17.8615 32.2175V29.3156C17.883 29.2867 22.5375 27.059 26.5088 26.8459C26.4869 29.2515 26.2319 31.6492 25.7472 34.0055ZM22.6163 21.4094C24.4372 20.9776 26.3004 20.7496 28.1717 20.7294C28.3888 20.7294 28.6071 20.7333 28.8266 20.7409C29.1903 20.7512 29.5382 20.8917 29.807 21.137C30.0757 21.3823 30.2474 21.716 30.2908 22.0772C30.386 22.8273 30.3975 23.5857 30.3248 24.3382C30.2886 24.6878 30.1335 25.0144 29.8852 25.2631C29.637 25.5119 29.3108 25.6678 28.9613 25.7047C27.6156 25.8396 25.596 26.0707 23.6198 26.407C23.2702 26.4658 22.9122 26.4519 22.5682 26.3662C22.2242 26.2804 21.9016 26.1246 21.6205 25.9086C21.3469 25.7011 21.1198 25.4388 20.9537 25.1384C20.7876 24.838 20.6861 24.5061 20.6558 24.1642L20.6492 24.0842C20.6067 23.4775 20.7812 22.8755 21.1415 22.3855C21.5018 21.8956 22.0245 21.5496 22.6163 21.4094ZM19.8696 23.1274C19.7939 23.4623 19.7689 23.8067 19.7954 24.1491L19.8029 24.2403C19.8431 24.7003 19.9792 25.1467 20.2022 25.5509C20.4253 25.9552 20.7305 26.3083 21.0981 26.5875C21.2507 26.7049 21.413 26.8091 21.5832 26.899C20.5061 27.2084 19.4515 27.5914 18.4268 28.0453C18.51 27.6675 18.5385 27.2796 18.5113 26.8937C18.4703 26.1111 18.1852 25.361 17.6962 24.7487C17.5858 24.6163 17.4633 24.4945 17.3304 24.3848C18.144 23.9025 18.9928 23.4822 19.8696 23.1274ZM16.2502 29.3755C15.8577 29.4021 15.4652 29.2053 15.144 28.8209C14.7707 28.3471 14.5548 27.7684 14.5265 27.1659C14.4404 25.9102 15.0847 24.8004 15.9332 24.7423C15.9568 24.7407 16.7371 24.9357 17.0394 25.2969C17.4127 25.7706 17.6286 26.3491 17.6569 26.9515C17.7427 28.2075 17.0987 29.3174 16.2502 29.3755ZM17.7227 36.8847C17.7665 36.8446 17.8014 36.7959 17.8253 36.7415C17.8492 36.6872 17.8615 36.6285 17.8615 36.5691V33.0955L23.3208 34.3334L23.3821 35.6757L16.4452 38.056L17.7227 36.8847Z" fill="#464965"/>
<path id="Vector_21" d="M35.6476 36.156C36.401 36.1879 37.2887 36.212 38.253 36.212C41.7441 36.212 46.2348 35.8957 48.9501 34.4902C49.5705 34.1686 50.0902 33.682 50.4518 33.084C50.8135 32.4861 51.0031 31.7999 50.9999 31.1011V15.6919C50.9999 12.4999 48.4655 12.0001 46.5592 11.9018C46.3217 11.8894 46.0842 11.9255 45.8611 12.0078C45.638 12.0902 45.434 12.2171 45.2615 12.3808C45.089 12.5445 44.9516 12.7416 44.8576 12.9601C44.7637 13.1785 44.7152 13.4139 44.7152 13.6517V18.0251C41.5598 18.5579 37.905 18.5212 35.8454 18.4393C35.5232 18.4264 35.2018 18.4786 34.9003 18.593C34.5988 18.7073 34.3236 18.8813 34.091 19.1046C33.8584 19.3279 33.6734 19.5959 33.5469 19.8925C33.4204 20.189 33.3551 20.5081 33.355 20.8305V33.765C33.3539 34.3826 33.592 34.9767 34.0195 35.4225C34.447 35.8683 35.0305 36.1312 35.6476 36.156ZM45.5719 13.6773C45.5686 13.4728 45.633 13.273 45.755 13.1088C45.8433 12.9926 45.9588 12.8998 46.0913 12.8385C46.2238 12.7771 46.3692 12.7491 46.515 12.7569C47.3987 12.8025 48.1028 12.9325 48.6468 13.1622C50.152 13.7983 50.2518 15.8879 48.8424 16.715C47.9686 17.2278 46.8293 17.5984 45.5715 17.8635L45.5719 13.6773ZM34.2111 20.8305C34.2114 20.4229 34.3735 20.0321 34.6618 19.7439C34.9501 19.4558 35.3411 19.2939 35.7487 19.2939C35.7696 19.2939 35.7907 19.2939 35.812 19.2952C40.0934 19.4658 47.2426 19.3298 50.144 16.8281V31.1007C50.147 31.6425 50.0004 32.1747 49.7204 32.6386C49.4403 33.1025 49.0377 33.48 48.5568 33.7298C45.1448 35.4958 38.418 35.4166 35.6843 35.2997C35.2878 35.284 34.9129 35.1152 34.6383 34.829C34.3636 34.5427 34.2105 34.1611 34.2111 33.7644V20.8305Z" fill="#464965"/>
<path id="Vector_22" d="M21.842 29.8301C21.7442 29.7722 21.6275 29.7556 21.5175 29.7838C21.4075 29.812 21.3133 29.8828 21.2554 29.9805C21.1976 30.0783 21.181 30.195 21.2092 30.305C21.2374 30.415 21.3081 30.5092 21.4059 30.5671C21.9641 30.8855 22.5943 31.0562 23.2369 31.063C23.5964 31.0696 23.9536 31.0033 24.2868 30.8681C24.62 30.7329 24.9224 30.5316 25.1757 30.2764C25.253 30.1956 25.2956 30.0877 25.2945 29.9758C25.2933 29.8639 25.2483 29.757 25.1693 29.6778C25.0902 29.5987 24.9833 29.5536 24.8714 29.5523C24.7596 29.5509 24.6516 29.5935 24.5707 29.6707C23.476 30.7656 21.9091 29.8692 21.842 29.8301Z" fill="#464965"/>
</g>
</g>
</svg>
