<svg width="20" height="21" viewBox="0 0 20 21" fill="none" xmlns="http://www.w3.org/2000/svg">
<g id="Linkdin">
<path id="Vector" d="M18.0664 0.827148H1.86028C0.97475 0.827148 0.20105 1.46431 0.20105 2.33944V18.5815C0.20105 19.4614 0.97475 20.2455 1.86028 20.2455H18.0616C18.9519 20.2455 19.6194 19.4562 19.6194 18.5815V2.33944C19.6246 1.46431 18.9519 0.827148 18.0664 0.827148ZM6.22031 17.0133H3.43845V8.3639H6.22031V17.0133ZM4.92561 7.04883H4.90567C4.01537 7.04883 3.43889 6.38609 3.43889 5.55647C3.43889 4.71169 4.03054 4.06455 4.94078 4.06455C5.85101 4.06455 6.40799 4.70692 6.42793 5.55647C6.4275 6.38609 5.85101 7.04883 4.92561 7.04883ZM16.3872 17.0133H13.6054V12.284C13.6054 11.151 13.2005 10.3768 12.1941 10.3768C11.4251 10.3768 10.97 10.897 10.7676 11.4037C10.6917 11.5857 10.6714 11.8336 10.6714 12.0868V17.0133H7.88951V8.3639H10.6714V9.56758C11.0762 8.9911 11.7086 8.16148 13.1801 8.16148C15.0062 8.16148 16.3876 9.36516 16.3876 11.9602L16.3872 17.0133Z" fill="white"/>
</g>
</svg>
