<svg width="63" height="64" viewBox="0 0 63 64" fill="none" xmlns="http://www.w3.org/2000/svg">
<g id="Icon">
<circle id="Background" cx="31.5" cy="32.3994" r="31.5" fill="#7F0B0C"/>
<g id="&#240;&#159;&#166;&#134; illustration &#34;Management office work plan clock time&#34;">
<path id="Vector" d="M48.0619 47.0775L48.0154 47.111C46.2546 48.4022 44.7851 48.4013 44.7851 48.4013C44.7851 48.4013 44.7209 47.1753 46.4938 45.8198L46.5736 45.7591C48.4285 44.3801 49.5082 44.0885 50.0066 44.5367C50.5049 44.9849 49.3189 46.143 48.0619 47.0775Z" fill="#9AB3DA"/>
<path id="Vector_2" d="M48.0154 47.1112C46.2546 48.4024 44.7851 48.4015 44.7851 48.4015C44.7851 48.4015 44.7209 47.1755 46.4938 45.82C46.4872 46.2366 47.063 46.4756 48.5725 45.5864C48.5725 45.5855 46.877 47.1357 48.0154 47.1112Z" fill="#E9F3FF"/>
<path id="Vector_3" d="M45.0653 48.2386C45.0541 48.2387 45.0431 48.236 45.0338 48.2308C45.0246 48.2257 45.0174 48.2184 45.0133 48.2098C45.0092 48.2013 45.0084 48.1919 45.011 48.183C45.0135 48.1741 45.0194 48.166 45.0277 48.1598L49.5803 44.7761C49.5913 44.7689 49.6052 44.7653 49.6193 44.7663C49.6334 44.7672 49.6465 44.7724 49.656 44.781C49.6654 44.7896 49.6706 44.8008 49.6703 44.8123C49.67 44.8238 49.6643 44.8349 49.6545 44.8431L45.1018 48.2268C45.0918 48.2343 45.0788 48.2385 45.0653 48.2386Z" fill="#404B7C"/>
<path id="Vector_4" d="M48.2071 45.7175C48.1938 45.7365 48.1805 45.7555 48.1661 45.7745C46.6157 47.9386 44.8062 48.4131 44.8062 48.4131C44.8062 48.4131 44.1318 46.9209 45.6622 44.6744C45.6844 44.6409 45.7088 44.6074 45.732 44.5739C47.3522 42.2713 48.5415 41.5605 49.3754 41.9525C50.2093 42.3446 49.3046 44.1574 48.2071 45.7175Z" fill="#E9F3FF"/>
<path id="Vector_5" d="M48.1661 45.7746C46.6157 47.9387 44.8062 48.4131 44.8062 48.4131C44.8062 48.4131 44.1318 46.9209 45.6622 44.6744C45.856 45.1906 46.6822 45.2983 48.1141 43.7119C48.1141 43.7119 46.7741 46.1739 48.1661 45.7746Z" fill="#9AB3DA"/>
<path id="Vector_6" d="M45.0521 48.1099C45.0424 48.1099 45.0329 48.1077 45.0245 48.1038C45.0162 48.0998 45.0092 48.094 45.0044 48.0872C44.9996 48.0803 44.9971 48.0725 44.9971 48.0646C44.9971 48.0567 44.9996 48.0489 45.0045 48.042L48.9801 42.391C48.9875 42.3805 48.9996 42.3729 49.0138 42.3697C49.028 42.3666 49.0432 42.3682 49.056 42.3742C49.0688 42.3802 49.0781 42.3901 49.0819 42.4017C49.0858 42.4134 49.0838 42.4258 49.0765 42.4362L45.1008 48.0873C45.0959 48.0943 45.0888 48.1 45.0802 48.104C45.0717 48.108 45.062 48.11 45.0521 48.1099Z" fill="#404B7C"/>
<path id="Vector_7" d="M41.032 47.0343L41.0863 47.0705C43.1539 48.465 44.8161 48.4079 44.8161 48.4079C44.8161 48.4079 44.8161 47.0171 42.7353 45.5502L42.6411 45.485C40.4628 43.9946 39.2236 43.7049 38.6843 44.2328C38.145 44.7607 39.5603 46.0247 41.032 47.0343Z" fill="#9AB3DA"/>
<path id="Vector_8" d="M41.0909 47.071C43.1585 48.4654 44.8207 48.4084 44.8207 48.4084C44.8207 48.4084 44.8207 47.0176 42.7399 45.5507C42.7709 46.0225 42.133 46.314 40.3733 45.3696C40.3678 45.3651 42.3799 47.0556 41.0909 47.071Z" fill="#E9F3FF"/>
<path id="Vector_9" d="M44.4906 48.2278C44.4776 48.2276 44.465 48.2238 44.4551 48.2169L39.1096 44.5597C39.104 44.5559 39.0994 44.5512 39.096 44.5459C39.0926 44.5407 39.0905 44.5349 39.0898 44.529C39.0892 44.5231 39.0899 44.5171 39.0921 44.5114C39.0942 44.5057 39.0978 44.5004 39.1024 44.4958C39.1071 44.4913 39.1128 44.4875 39.1192 44.4847C39.1257 44.4819 39.1327 44.4802 39.1399 44.4797C39.1472 44.4791 39.1545 44.4798 39.1615 44.4815C39.1684 44.4833 39.1749 44.4862 39.1805 44.49L44.5271 48.149C44.5353 48.1551 44.5411 48.1631 44.5437 48.1719C44.5463 48.1808 44.5456 48.19 44.5416 48.1985C44.5377 48.207 44.5307 48.2144 44.5216 48.2196C44.5125 48.2248 44.5017 48.2276 44.4906 48.2278Z" fill="#404B7C"/>
<path id="Vector_10" d="M40.8761 45.3162C40.8916 45.3389 40.9071 45.3606 40.9226 45.3814C42.7044 47.8769 44.7919 48.4202 44.7919 48.4202C44.7919 48.4202 45.5671 46.6998 43.8063 44.1147C43.7797 44.0757 43.7531 44.0377 43.7266 43.9988C41.8617 41.3475 40.4907 40.529 39.5306 40.9808C38.5704 41.4326 39.6125 43.5198 40.8761 45.3162Z" fill="#E9F3FF"/>
<path id="Vector_11" d="M40.9214 45.3814C42.7043 47.8769 44.7918 48.4202 44.7918 48.4202C44.7918 48.4202 45.567 46.6998 43.8062 44.1146C43.5847 44.7095 42.6324 44.8336 40.9834 43.0063C40.9834 43.0073 42.526 45.8423 40.9214 45.3814Z" fill="#9AB3DA"/>
<path id="Vector_12" d="M44.5094 48.064C44.4998 48.064 44.4903 48.0619 44.4819 48.0579C44.4736 48.0539 44.4666 48.0482 44.4618 48.0414L39.8837 41.5383C39.8801 41.5331 39.8777 41.5274 39.8768 41.5215C39.8759 41.5156 39.8764 41.5096 39.8783 41.5038C39.8802 41.498 39.8834 41.4926 39.8879 41.4879C39.8923 41.4832 39.8979 41.4792 39.9042 41.4763C39.9105 41.4733 39.9175 41.4714 39.9248 41.4706C39.932 41.4698 39.9393 41.4702 39.9464 41.4718C39.9534 41.4733 39.96 41.476 39.9658 41.4797C39.9716 41.4833 39.9764 41.4878 39.9801 41.493L44.557 47.9997C44.5609 48.0065 44.5626 48.0139 44.5621 48.0213C44.5616 48.0287 44.5589 48.0359 44.5542 48.0423C44.5495 48.0486 44.5429 48.0539 44.5351 48.0577C44.5273 48.0615 44.5185 48.0637 44.5094 48.064Z" fill="#404B7C"/>
<path id="Vector_13" d="M46.4274 43.8616V43.9422C46.4008 47.0136 44.8294 48.4198 44.8294 48.4198C44.8294 48.4198 42.9977 47.172 42.9468 44.021C42.9468 43.9739 42.9468 43.9304 42.9468 43.8797C42.9468 40.6245 43.6799 39.2754 44.8593 39.2754C46.0387 39.2754 46.4274 41.6559 46.4274 43.8616Z" fill="#9AB3DA"/>
<path id="Vector_14" d="M46.4263 43.9426C46.4008 47.014 44.8294 48.4202 44.8294 48.4202C44.8294 48.4202 42.9977 47.1724 42.9468 44.0214C43.5392 44.4741 44.4972 44.1744 44.8294 41.7749C44.8294 41.7785 45.2469 45.0627 46.4263 43.9426Z" fill="#E9F3FF"/>
<path id="Vector_15" d="M44.8294 47.9766C44.8147 47.9766 44.8006 47.9718 44.7903 47.9633C44.7799 47.9548 44.774 47.9433 44.774 47.9313V39.9432C44.774 39.9312 44.7799 39.9197 44.7903 39.9112C44.8006 39.9027 44.8147 39.8979 44.8294 39.8979C44.8441 39.8979 44.8582 39.9027 44.8686 39.9112C44.879 39.9197 44.8848 39.9312 44.8848 39.9432V47.9313C44.8848 47.9433 44.879 47.9548 44.8686 47.9633C44.8582 47.9718 44.8441 47.9766 44.8294 47.9766Z" fill="#404B7C"/>
<path id="Vector_16" d="M46.391 52.8991H42.7454C42.4544 52.899 42.1748 52.8067 41.9654 52.6415C41.756 52.4764 41.6331 52.2513 41.6224 52.0135L41.4652 48.4079C41.4634 48.3655 41.4721 48.3233 41.4907 48.2837C41.5093 48.2441 41.5375 48.2079 41.5736 48.1774C41.6097 48.1469 41.6529 48.1227 41.7006 48.1061C41.7484 48.0895 41.7998 48.081 41.8517 48.0811H47.2847C47.3366 48.081 47.3879 48.0895 47.4357 48.1061C47.4835 48.1227 47.5267 48.1469 47.5628 48.1774C47.5989 48.2079 47.627 48.2441 47.6457 48.2837C47.6643 48.3233 47.673 48.3655 47.6712 48.4079L47.5139 52.0135C47.5033 52.2513 47.3804 52.4764 47.171 52.6415C46.9615 52.8067 46.682 52.899 46.391 52.8991Z" fill="#F68D88"/>
<path id="Vector_17" d="M47.2847 48.0811H46.2204C46.1385 48.3726 46.1628 48.7928 46.8605 48.9911C47.1116 49.066 47.3837 49.0805 47.6446 49.0327L47.6723 48.4079C47.674 48.3655 47.6653 48.3231 47.6466 48.2834C47.6279 48.2438 47.5997 48.2076 47.5635 48.1771C47.5273 48.1466 47.4839 48.1223 47.436 48.1058C47.3881 48.0893 47.3366 48.0809 47.2847 48.0811Z" fill="#ECBDBB"/>
<path id="Vector_18" d="M44.9214 49.2482C44.7797 48.838 45.0477 48.3681 45.2603 48.0811H44.092C43.4186 49.0028 43.8262 50.678 45.6556 50.3194C46.5615 50.1383 47.1794 50.2361 47.5848 50.3936L47.6158 49.6693C46.5604 49.1314 45.1296 49.8368 44.9214 49.2482Z" fill="#ECBDBB"/>
<path id="Vector_19" d="M47.3444 52.4648C46.4585 50.8649 44.8582 52.4341 43.8084 50.758C43.0897 49.6108 42.1273 49.609 41.5238 49.762L41.5581 50.5507C43.4341 49.9513 43.3522 52.4576 44.9479 52.2611C45.8007 52.1561 46.2846 52.5264 46.5504 52.8949C46.7132 52.8753 46.8688 52.8265 47.006 52.7522C47.1432 52.6779 47.2587 52.5798 47.3444 52.4648Z" fill="#ECBDBB"/>
<path id="Vector_20" d="M42.4076 51.4011C41.9237 51.4998 42.381 52.3863 42.8007 52.1508C43.2204 51.9154 42.7742 51.3259 42.4076 51.4011Z" fill="#ECBDBB"/>
<path id="Vector_21" d="M46.4463 50.7944C46.1141 50.9564 46.6955 51.5296 46.9424 51.2788C47.1894 51.028 46.6977 50.6721 46.4463 50.7944Z" fill="#ECBDBB"/>
<path id="Vector_22" d="M22.9635 15.6465H46.6069V33.4617H22.9635V15.6465Z" fill="#9AB3DA"/>
<path id="Vector_23" d="M46.649 15.6465H22.9215C22.7459 15.6465 22.6036 15.7628 22.6036 15.9064V15.9073C22.6036 16.0508 22.7459 16.1671 22.9215 16.1671H46.649C46.8246 16.1671 46.9669 16.0508 46.9669 15.9073V15.9064C46.9669 15.7628 46.8246 15.6465 46.649 15.6465Z" fill="#404B7C"/>
<path id="Vector_24" d="M37.8727 16.1671H31.6988C31.6145 16.1671 31.5337 16.1397 31.4741 16.091C31.4145 16.0422 31.381 15.9761 31.381 15.9072V15.2499L32.1983 14.5825H37.3777L38.1949 15.2508V15.9072C38.1949 15.9417 38.1866 15.9758 38.1703 16.0075C38.1541 16.0393 38.1303 16.0681 38.1003 16.0923C38.0703 16.1165 38.0347 16.1355 37.9957 16.1484C37.9566 16.1612 37.9148 16.1676 37.8727 16.1671Z" fill="#E9F3FF"/>
<path id="Vector_25" d="M32.7297 15.6919C32.8979 15.6919 33.0343 15.5804 33.0343 15.4429C33.0343 15.3053 32.8979 15.1938 32.7297 15.1938C32.5615 15.1938 32.4252 15.3053 32.4252 15.4429C32.4252 15.5804 32.5615 15.6919 32.7297 15.6919Z" fill="white"/>
<path id="Vector_26" d="M36.8416 15.6919C37.0098 15.6919 37.1462 15.5804 37.1462 15.4429C37.1462 15.3053 37.0098 15.1938 36.8416 15.1938C36.6735 15.1938 36.5371 15.3053 36.5371 15.4429C36.5371 15.5804 36.6735 15.6919 36.8416 15.6919Z" fill="white"/>
<path id="Vector_27" d="M46.649 32.9409H22.9215C22.7459 32.9409 22.6036 33.0573 22.6036 33.2008V33.2017C22.6036 33.3452 22.7459 33.4616 22.9215 33.4616H46.649C46.8246 33.4616 46.9669 33.3452 46.9669 33.2017V33.2008C46.9669 33.0573 46.8246 32.9409 46.649 32.9409Z" fill="#404B7C"/>
<path id="Vector_28" d="M43.6721 17.5254H25.8991C25.6551 17.5254 25.4573 17.6871 25.4573 17.8867V31.2216C25.4573 31.4211 25.6551 31.5829 25.8991 31.5829H43.6721C43.9162 31.5829 44.114 31.4211 44.114 31.2216V17.8867C44.114 17.6871 43.9162 17.5254 43.6721 17.5254Z" fill="#E9F3FF"/>
<path id="Vector_29" d="M30.051 31.3071C30.0363 31.3071 30.0222 31.3023 30.0118 31.2938C30.0014 31.2853 29.9956 31.2738 29.9956 31.2618V17.7069C29.9956 17.6949 30.0014 17.6834 30.0118 17.6749C30.0222 17.6664 30.0363 17.6616 30.051 17.6616C30.0657 17.6616 30.0797 17.6664 30.0901 17.6749C30.1005 17.6834 30.1063 17.6949 30.1063 17.7069V31.2663C30.105 31.2776 30.0985 31.2879 30.0883 31.2955C30.0781 31.303 30.0648 31.3071 30.051 31.3071Z" fill="#404B7C"/>
<path id="Vector_30" d="M34.7851 31.3071C34.7704 31.3071 34.7563 31.3023 34.746 31.2938C34.7356 31.2853 34.7297 31.2738 34.7297 31.2618V17.7069C34.7297 17.6949 34.7356 17.6834 34.746 17.6749C34.7563 17.6664 34.7704 17.6616 34.7851 17.6616C34.7998 17.6616 34.8139 17.6664 34.8243 17.6749C34.8346 17.6834 34.8405 17.6949 34.8405 17.7069V31.2663C34.8391 31.2776 34.8327 31.2879 34.8224 31.2955C34.8122 31.303 34.7989 31.3071 34.7851 31.3071Z" fill="#404B7C"/>
<path id="Vector_31" d="M39.5194 31.3071C39.5047 31.3071 39.4906 31.3023 39.4802 31.2938C39.4698 31.2853 39.464 31.2738 39.464 31.2618V17.7069C39.464 17.6949 39.4698 17.6834 39.4802 17.6749C39.4906 17.6664 39.5047 17.6616 39.5194 17.6616C39.534 17.6616 39.5481 17.6664 39.5585 17.6749C39.5689 17.6834 39.5747 17.6949 39.5747 17.7069V31.2663C39.5734 31.2776 39.5669 31.2879 39.5567 31.2955C39.5464 31.303 39.5331 31.3071 39.5194 31.3071Z" fill="#404B7C"/>
<path id="Vector_32" d="M29.0045 19.0649H26.453C26.3178 19.0649 26.2083 19.1545 26.2083 19.2651C26.2083 19.3756 26.3178 19.4652 26.453 19.4652H29.0045C29.1397 19.4652 29.2492 19.3756 29.2492 19.2651C29.2492 19.1545 29.1397 19.0649 29.0045 19.0649Z" fill="#9AB3DA"/>
<path id="Vector_33" d="M29.0045 20.0229H26.453C26.3178 20.0229 26.2083 20.1125 26.2083 20.2231C26.2083 20.3336 26.3178 20.4232 26.453 20.4232H29.0045C29.1397 20.4232 29.2492 20.3336 29.2492 20.2231C29.2492 20.1125 29.1397 20.0229 29.0045 20.0229Z" fill="#9AB3DA"/>
<path id="Vector_34" d="M29.0045 20.9819H26.453C26.3178 20.9819 26.2083 21.0715 26.2083 21.182C26.2083 21.2926 26.3178 21.3822 26.453 21.3822H29.0045C29.1397 21.3822 29.2492 21.2926 29.2492 21.182C29.2492 21.0715 29.1397 20.9819 29.0045 20.9819Z" fill="#9AB3DA"/>
<path id="Vector_35" d="M33.3124 24.1128H30.7609C30.6257 24.1128 30.5161 24.2024 30.5161 24.3129C30.5161 24.4234 30.6257 24.513 30.7609 24.513H33.3124C33.4475 24.513 33.5571 24.4234 33.5571 24.3129C33.5571 24.2024 33.4475 24.1128 33.3124 24.1128Z" fill="white"/>
<path id="Vector_36" d="M33.3124 25.0708H30.7609C30.6257 25.0708 30.5161 25.1604 30.5161 25.2709C30.5161 25.3814 30.6257 25.471 30.7609 25.471H33.3124C33.4475 25.471 33.5571 25.3814 33.5571 25.2709C33.5571 25.1604 33.4475 25.0708 33.3124 25.0708Z" fill="white"/>
<path id="Vector_37" d="M32.1662 26.0298H30.7609C30.6257 26.0298 30.5161 26.1194 30.5161 26.2299C30.5161 26.3404 30.6257 26.43 30.7609 26.43H32.1662C32.3013 26.43 32.4109 26.3404 32.4109 26.2299C32.4109 26.1194 32.3013 26.0298 32.1662 26.0298Z" fill="white"/>
<path id="Vector_38" d="M43.1406 28.0967H40.5891C40.4539 28.0967 40.3444 28.1863 40.3444 28.2968C40.3444 28.4073 40.4539 28.4969 40.5891 28.4969H43.1406C43.2758 28.4969 43.3853 28.4073 43.3853 28.2968C43.3853 28.1863 43.2758 28.0967 43.1406 28.0967Z" fill="#F68D88"/>
<path id="Vector_39" d="M43.1406 29.0547H40.5891C40.4539 29.0547 40.3444 29.1443 40.3444 29.2548C40.3444 29.3653 40.4539 29.4549 40.5891 29.4549H43.1406C43.2758 29.4549 43.3853 29.3653 43.3853 29.2548C43.3853 29.1443 43.2758 29.0547 43.1406 29.0547Z" fill="#F68D88"/>
<path id="Vector_40" d="M41.9944 30.0137H40.5891C40.4539 30.0137 40.3444 30.1033 40.3444 30.2138C40.3444 30.3243 40.4539 30.4139 40.5891 30.4139H41.9944C42.1296 30.4139 42.2392 30.3243 42.2392 30.2138C42.2392 30.1033 42.1296 30.0137 41.9944 30.0137Z" fill="#F68D88"/>
<path id="Vector_41" d="M33.1285 22.4825C33.9037 21.6675 33.8118 20.1509 33.8118 20.1509H31.2016C31.2016 20.1509 31.2935 21.6675 30.5183 22.4825H33.1285Z" fill="#9AB3DA"/>
<path id="Vector_42" d="M32.535 20.4228C32.8102 20.4228 33.0333 20.2404 33.0333 20.0154C33.0333 19.7903 32.8102 19.6079 32.535 19.6079C32.2597 19.6079 32.0366 19.7903 32.0366 20.0154C32.0366 20.2404 32.2597 20.4228 32.535 20.4228Z" fill="#404B7C"/>
<path id="Vector_43" d="M37.659 26.9878C38.4342 26.1729 38.3423 24.6562 38.3423 24.6562H35.7321C35.7321 24.6562 35.8273 26.1729 35.0521 26.9878H37.6623H37.659Z" fill="#F68D88"/>
<path id="Vector_44" d="M37.0654 24.9277C37.3406 24.9277 37.5637 24.7453 37.5637 24.5203C37.5637 24.2952 37.3406 24.1128 37.0654 24.1128C36.7901 24.1128 36.567 24.2952 36.567 24.5203C36.567 24.7453 36.7901 24.9277 37.0654 24.9277Z" fill="#404B7C"/>
<path id="Vector_45" d="M40.1961 21.219L42.7432 20.7209C42.8108 20.7076 42.8821 20.7163 42.9421 20.7452C43.002 20.7741 43.0458 20.8209 43.0643 20.8758L43.8794 23.2934C43.889 23.3218 43.8915 23.3514 43.8868 23.3806C43.8821 23.4098 43.8702 23.4379 43.8519 23.4632C43.8336 23.4886 43.8093 23.5107 43.7803 23.5282C43.7514 23.5457 43.7184 23.5582 43.6834 23.565L41.1363 24.063C41.0687 24.0764 40.9973 24.0677 40.9374 24.0388C40.8775 24.0099 40.8336 23.9631 40.8152 23.9082L40.0001 21.4906C39.9905 21.4622 39.9879 21.4326 39.9927 21.4034C39.9974 21.3742 40.0092 21.3461 40.0275 21.3207C40.0458 21.2954 40.0702 21.2733 40.0991 21.2558C40.1281 21.2383 40.1611 21.2258 40.1961 21.219Z" fill="#9AB3DA"/>
<path id="Vector_46" d="M40.6833 21.9959C40.6686 21.9973 40.6538 21.994 40.6422 21.9865C40.6305 21.979 40.623 21.9681 40.6212 21.9561C40.6195 21.944 40.6236 21.932 40.6328 21.9225C40.6419 21.9129 40.6553 21.9068 40.67 21.9054L42.8084 21.487C42.8231 21.4843 42.8385 21.4864 42.8513 21.4929C42.8641 21.4995 42.8731 21.5099 42.8765 21.5219C42.8799 21.5339 42.8773 21.5465 42.8693 21.5569C42.8613 21.5674 42.8486 21.5748 42.8339 21.5776L40.6999 21.995H40.6866L40.6833 21.9959Z" fill="#404B7C"/>
<path id="Vector_47" d="M40.8682 22.5237C40.8535 22.5252 40.8387 22.5218 40.8271 22.5143C40.8155 22.5068 40.8079 22.4959 40.8062 22.4839C40.8044 22.4719 40.8086 22.4598 40.8177 22.4503C40.8268 22.4408 40.8402 22.4346 40.8549 22.4332L42.9933 22.0149C43.0006 22.0135 43.0081 22.0133 43.0155 22.0143C43.0229 22.0153 43.0299 22.0175 43.0362 22.0208C43.0425 22.024 43.048 22.0282 43.0524 22.0332C43.0567 22.0382 43.0598 22.0438 43.0614 22.0497C43.0631 22.0557 43.0633 22.0618 43.0621 22.0678C43.0609 22.0738 43.0582 22.0796 43.0542 22.0848C43.0503 22.0899 43.0451 22.0944 43.039 22.098C43.033 22.1015 43.0261 22.104 43.0188 22.1054L40.8815 22.5237H40.8682Z" fill="#404B7C"/>
<path id="Vector_48" d="M41.0533 23.0525C41.0386 23.0539 41.0238 23.0505 41.0122 23.0431C41.0005 23.0356 40.993 23.0247 40.9912 23.0127C40.9895 23.0006 40.9936 22.9886 41.0028 22.9791C41.0119 22.9695 41.0253 22.9634 41.04 22.9619L42.3556 22.7048C42.3703 22.702 42.3857 22.7042 42.3985 22.7107C42.4112 22.7172 42.4203 22.7276 42.4237 22.7397C42.4271 22.7517 42.4245 22.7643 42.4165 22.7747C42.4085 22.7852 42.3957 22.7926 42.3811 22.7953L41.0665 23.0525H41.0533Z" fill="#404B7C"/>
<path id="Vector_49" d="M41.4994 21.3022C41.7747 21.3022 41.9978 21.1198 41.9978 20.8948C41.9978 20.6697 41.7747 20.4873 41.4994 20.4873C41.2242 20.4873 41.0011 20.6697 41.0011 20.8948C41.0011 21.1198 41.2242 21.3022 41.4994 21.3022Z" fill="#404B7C"/>
<path id="Vector_50" d="M29.4751 28.3273L26.928 27.8293C26.8604 27.816 26.789 27.8247 26.7291 27.8536C26.6692 27.8825 26.6253 27.9293 26.6069 27.9842L25.7973 30.4018C25.7877 30.4302 25.7852 30.4598 25.7899 30.489C25.7946 30.5182 25.8065 30.5463 25.8248 30.5716C25.8431 30.597 25.8674 30.6191 25.8964 30.6366C25.9254 30.6541 25.9583 30.6666 25.9933 30.6734L28.5404 31.1714C28.608 31.1848 28.6794 31.1761 28.7393 31.1472C28.7992 31.1183 28.8431 31.0714 28.8616 31.0166L29.6766 28.599C29.6862 28.5703 29.6885 28.5403 29.6834 28.5109C29.6783 28.4815 29.666 28.4532 29.6472 28.4278C29.6283 28.4024 29.6033 28.3804 29.5737 28.3631C29.5442 28.3458 29.5106 28.3337 29.4751 28.3273Z" fill="#9AB3DA"/>
<path id="Vector_51" d="M28.9868 29.1039H28.9735L26.8351 28.6811C26.8204 28.6783 26.8077 28.6709 26.7997 28.6605C26.7917 28.65 26.7891 28.6374 26.7925 28.6254C26.7958 28.6134 26.8049 28.603 26.8177 28.5964C26.8305 28.5899 26.8459 28.5878 26.8606 28.5905L28.999 29.0098C29.0143 29.0111 29.0283 29.0173 29.0379 29.0271C29.0476 29.0368 29.0521 29.0493 29.0505 29.0618C29.0489 29.0743 29.0413 29.0858 29.0293 29.0937C29.0174 29.1016 29.0021 29.1053 28.9868 29.1039Z" fill="#404B7C"/>
<path id="Vector_52" d="M28.8019 29.6321H28.7886L26.6502 29.2138C26.6355 29.211 26.6227 29.2036 26.6147 29.1932C26.6067 29.1827 26.6041 29.1701 26.6075 29.1581C26.6109 29.1461 26.62 29.1357 26.6327 29.1291C26.6455 29.1226 26.6609 29.1205 26.6756 29.1233L28.8141 29.5425C28.8276 29.5447 28.8397 29.551 28.8478 29.5602C28.856 29.5693 28.8597 29.5806 28.8581 29.5919C28.8566 29.6031 28.85 29.6135 28.8396 29.6209C28.8292 29.6284 28.8157 29.6324 28.8019 29.6321Z" fill="#404B7C"/>
<path id="Vector_53" d="M28.618 30.1604H28.6047L27.2902 29.9033C27.2755 29.9005 27.2627 29.8931 27.2548 29.8826C27.2468 29.8722 27.2442 29.8596 27.2475 29.8476C27.2509 29.8356 27.26 29.8251 27.2728 29.8186C27.2855 29.8121 27.301 29.8099 27.3156 29.8127L28.629 30.0708C28.6425 30.073 28.6545 30.0792 28.6626 30.0883C28.6708 30.0973 28.6745 30.1085 28.6731 30.1197C28.6717 30.1309 28.6653 30.1412 28.6551 30.1487C28.6449 30.1563 28.6317 30.1604 28.618 30.1604Z" fill="#404B7C"/>
<path id="Vector_54" d="M28.1706 28.4101C28.4458 28.4101 28.6689 28.2277 28.6689 28.0027C28.6689 27.7776 28.4458 27.5952 28.1706 27.5952C27.8954 27.5952 27.6722 27.7776 27.6722 28.0027C27.6722 28.2277 27.8954 28.4101 28.1706 28.4101Z" fill="#404B7C"/>
<path id="Vector_55" d="M41.3654 25.637C41.5385 25.637 41.6788 25.5223 41.6788 25.3808C41.6788 25.2392 41.5385 25.1245 41.3654 25.1245C41.1923 25.1245 41.052 25.2392 41.052 25.3808C41.052 25.5223 41.1923 25.637 41.3654 25.637Z" fill="#404B7C"/>
<path id="Vector_56" d="M42.6301 26.3987C42.8747 26.3987 43.0731 26.2365 43.0731 26.0365C43.0731 25.8365 42.8747 25.6743 42.6301 25.6743C42.3855 25.6743 42.1871 25.8365 42.1871 26.0365C42.1871 26.2365 42.3855 26.3987 42.6301 26.3987Z" fill="#F68D88"/>
<path id="Vector_57" d="M32.1484 29.6591C32.848 29.6591 33.4152 29.1954 33.4152 28.6233C33.4152 28.0512 32.848 27.5874 32.1484 27.5874C31.4487 27.5874 30.8815 28.0512 30.8815 28.6233C30.8815 29.1954 31.4487 29.6591 32.1484 29.6591Z" fill="#F68D88"/>
<path id="Vector_58" d="M33.7265 30.5073C34.0207 30.5073 34.2592 30.3123 34.2592 30.0718C34.2592 29.8312 34.0207 29.6362 33.7265 29.6362C33.4323 29.6362 33.1938 29.8312 33.1938 30.0718C33.1938 30.3123 33.4323 30.5073 33.7265 30.5073Z" fill="#404B7C"/>
<path id="Vector_59" d="M37.2115 20.0175L37.5847 20.635L38.4186 20.7337C38.4561 20.7384 38.4912 20.7516 38.5201 20.7718C38.5489 20.7919 38.5702 20.8183 38.5817 20.8478C38.5932 20.8773 38.5944 20.9089 38.5852 20.939C38.5759 20.9691 38.5566 20.9964 38.5294 21.018L37.9314 21.4997L38.0742 22.1779C38.0807 22.2086 38.0765 22.2401 38.0622 22.2689C38.0478 22.2977 38.0239 22.3226 37.9932 22.3409C37.9624 22.3592 37.926 22.3701 37.8881 22.3723C37.8501 22.3745 37.8122 22.3681 37.7785 22.3536L37.0332 22.033L36.288 22.3536C36.2543 22.3681 36.2164 22.3745 36.1784 22.3723C36.1405 22.3701 36.1041 22.3592 36.0733 22.3409C36.0426 22.3226 36.0187 22.2977 36.0043 22.2689C35.99 22.2401 35.9858 22.2086 35.9923 22.1779L36.1351 21.4997L35.5316 21.0189C35.5043 20.9973 35.485 20.97 35.4758 20.9399C35.4665 20.9098 35.4677 20.8783 35.4792 20.8487C35.4907 20.8192 35.5121 20.7928 35.5409 20.7727C35.5697 20.7525 35.6048 20.7393 35.6423 20.7346L36.4762 20.6359L36.8494 20.0184C36.8665 19.9912 36.8923 19.9683 36.9242 19.9523C36.9561 19.9363 36.9927 19.9278 37.0301 19.9277C37.0675 19.9276 37.1042 19.936 37.1362 19.9518C37.1682 19.9676 37.1943 19.9903 37.2115 20.0175Z" fill="#F68D88"/>
<path id="Vector_60" d="M44.6047 36.0623C44.59 36.0641 44.5751 36.0611 44.5631 36.0539C44.5512 36.0467 44.5432 36.0359 44.541 36.0239C44.5388 36.0118 44.5425 35.9996 44.5514 35.9898C44.5602 35.9801 44.5734 35.9736 44.5881 35.9718C44.5881 35.9718 44.6634 35.9528 44.793 35.9111C44.7998 35.9084 44.8073 35.907 44.8149 35.9068C44.8225 35.9066 44.8301 35.9076 44.8372 35.91C44.8443 35.9123 44.8507 35.9157 44.8561 35.9202C44.8614 35.9246 44.8656 35.9299 44.8684 35.9357C44.8711 35.9415 44.8724 35.9477 44.872 35.9539C44.8717 35.9601 44.8698 35.9662 44.8665 35.9718C44.8632 35.9774 44.8585 35.9824 44.8527 35.9865C44.8469 35.9905 44.8401 35.9935 44.8328 35.9953C44.6999 36.0379 44.6246 36.0569 44.6213 36.0578L44.6047 36.0623Z" fill="#404B7C"/>
<path id="Vector_61" d="M45.3367 35.8126C45.322 35.8152 45.3066 35.813 45.294 35.8064C45.2813 35.7998 45.2724 35.7893 45.2691 35.7773C45.2659 35.7653 45.2687 35.7527 45.2768 35.7423C45.2849 35.732 45.2976 35.7247 45.3123 35.722C45.4807 35.6559 45.6446 35.5826 45.8162 35.5056C45.8226 35.5023 45.8297 35.5001 45.8371 35.4991C45.8445 35.4981 45.8521 35.4984 45.8594 35.4999C45.8667 35.5014 45.8736 35.5041 45.8796 35.5078C45.8855 35.5115 45.8905 35.5162 45.8942 35.5216C45.8979 35.527 45.9002 35.5329 45.901 35.539C45.9018 35.5451 45.9011 35.5513 45.8989 35.5572C45.8967 35.5631 45.893 35.5685 45.8881 35.5732C45.8832 35.5779 45.8772 35.5817 45.8705 35.5844C45.7021 35.6623 45.5305 35.7365 45.36 35.8035C45.3532 35.808 45.3452 35.8111 45.3367 35.8126Z" fill="#404B7C"/>
<path id="Vector_62" d="M46.1396 35.4511C46.1277 35.4509 46.1163 35.4476 46.1069 35.4416C46.0976 35.4357 46.0908 35.4275 46.0875 35.4182C46.0843 35.4088 46.0848 35.3989 46.089 35.3898C46.0932 35.3808 46.1008 35.3731 46.1108 35.3678C46.2393 35.3026 46.3677 35.2338 46.4929 35.1641C46.4988 35.1603 46.5056 35.1576 46.5129 35.156C46.5202 35.1545 46.5277 35.1542 46.5352 35.1551C46.5426 35.156 46.5497 35.1582 46.5561 35.1614C46.5625 35.1647 46.568 35.169 46.5722 35.174C46.5765 35.1791 46.5795 35.1848 46.581 35.1908C46.5825 35.1968 46.5825 35.203 46.581 35.209C46.5795 35.215 46.5765 35.2207 46.5722 35.2258C46.5679 35.2308 46.5624 35.2351 46.556 35.2383C46.4297 35.309 46.3002 35.3787 46.1695 35.4448C46.1605 35.4492 46.1501 35.4514 46.1396 35.4511ZM46.9857 34.9685C46.9742 34.9684 46.9631 34.9655 46.9538 34.96C46.9445 34.9546 46.9375 34.9469 46.9337 34.9381C46.9299 34.9293 46.9296 34.9197 46.9328 34.9107C46.9359 34.9017 46.9424 34.8938 46.9513 34.8879C47.0997 34.7919 47.247 34.6914 47.3877 34.5891C47.3931 34.5851 47.3995 34.582 47.4064 34.5801C47.4133 34.5781 47.4206 34.5773 47.4279 34.5776C47.4352 34.5779 47.4423 34.5794 47.4489 34.582C47.4555 34.5846 47.4614 34.5883 47.4663 34.5927C47.4712 34.5972 47.4749 34.6024 47.4773 34.608C47.4797 34.6137 47.4808 34.6196 47.4804 34.6256C47.4799 34.6316 47.4781 34.6374 47.4749 34.6428C47.4717 34.6482 47.4673 34.653 47.4619 34.657C47.319 34.7611 47.1706 34.8626 47.0189 34.9594C47.0093 34.9653 46.9976 34.9685 46.9857 34.9685ZM47.6767 34.4759C47.6656 34.476 47.6548 34.4733 47.6456 34.4683C47.6364 34.4633 47.6292 34.4561 47.6251 34.4477C47.6209 34.4393 47.6199 34.4301 47.6222 34.4213C47.6245 34.4124 47.63 34.4043 47.6379 34.398C47.7487 34.3075 47.8594 34.2169 47.9569 34.1327C47.9671 34.1249 47.9806 34.1205 47.9946 34.1205C48.0087 34.1205 48.0222 34.1249 48.0324 34.1327C48.0427 34.1405 48.049 34.1512 48.0499 34.1626C48.0509 34.1741 48.0465 34.1854 48.0377 34.1943C47.9347 34.2849 47.8262 34.3754 47.7143 34.466C47.7037 34.473 47.6903 34.4765 47.6767 34.4759ZM48.3744 33.8557C48.3638 33.8558 48.3534 33.8534 48.3444 33.8488C48.3354 33.8442 48.3283 33.8377 48.3237 33.8298C48.3192 33.822 48.3175 33.8133 48.3188 33.8047C48.3201 33.7962 48.3244 33.7881 48.3312 33.7814C48.4508 33.6619 48.5671 33.5369 48.6756 33.4111C48.6841 33.4012 48.6971 33.3946 48.7116 33.3925C48.7261 33.3905 48.7411 33.3932 48.7531 33.4002C48.7651 33.4072 48.7733 33.4178 48.7758 33.4297C48.7783 33.4415 48.7749 33.4538 48.7664 33.4636C48.6556 33.5913 48.5383 33.7171 48.4176 33.8394C48.4124 33.8444 48.406 33.8485 48.3987 33.8513C48.3914 33.8541 48.3835 33.8556 48.3755 33.8557H48.3744ZM48.9137 33.2499C48.9037 33.2499 48.894 33.2477 48.8855 33.2435C48.8769 33.2394 48.8699 33.2334 48.8652 33.2263C48.8604 33.2192 48.8581 33.2111 48.8584 33.203C48.8588 33.1949 48.8618 33.187 48.8672 33.1802C48.9491 33.077 49.0289 32.9701 49.1042 32.8624C49.1115 32.8519 49.1236 32.8443 49.1378 32.8411C49.1521 32.838 49.1672 32.8396 49.18 32.8456C49.1928 32.8516 49.2021 32.8615 49.206 32.8732C49.2098 32.8848 49.2078 32.8972 49.2005 32.9076C49.1241 33.0163 49.0432 33.1249 48.9602 33.23C48.9553 33.2359 48.9487 33.2409 48.941 33.2443C48.9333 33.2478 48.9247 33.2497 48.9159 33.2499H48.9137ZM49.4209 32.5156C49.4115 32.5156 49.4022 32.5136 49.394 32.5099C49.3857 32.5062 49.3788 32.5008 49.3738 32.4943C49.3688 32.4878 49.366 32.4803 49.3655 32.4726C49.365 32.4649 49.3669 32.4573 49.371 32.4504C49.4541 32.3118 49.5316 32.1688 49.6025 32.0257C49.6081 32.0145 49.6189 32.0056 49.6325 32.001C49.6461 31.9963 49.6614 31.9962 49.675 32.0008C49.6887 32.0054 49.6996 32.0142 49.7053 32.0253C49.711 32.0364 49.7111 32.0489 49.7055 32.0601C49.6335 32.205 49.5549 32.3499 49.4707 32.4911C49.4662 32.4986 49.4593 32.5049 49.4507 32.5094C49.4421 32.5139 49.4322 32.5163 49.422 32.5165L49.4209 32.5156ZM49.7775 31.8256C49.7712 31.8265 49.7649 31.8265 49.7586 31.8256C49.7448 31.8215 49.7336 31.8131 49.7274 31.8022C49.7211 31.7914 49.7204 31.7789 49.7254 31.7676C49.7764 31.6526 49.8251 31.534 49.8694 31.4145C49.8736 31.4025 49.8836 31.3924 49.897 31.3863C49.9036 31.3834 49.9109 31.3815 49.9184 31.3808C49.9259 31.3801 49.9335 31.3806 49.9408 31.3824C49.9481 31.3841 49.9549 31.387 49.9608 31.3908C49.9667 31.3947 49.9716 31.3995 49.9753 31.4049C49.9789 31.4103 49.9812 31.4163 49.9821 31.4224C49.9829 31.4286 49.9822 31.4348 49.9801 31.4408C49.9347 31.5612 49.886 31.6816 49.8351 31.803C49.8297 31.8107 49.8217 31.8169 49.8121 31.8209C49.8024 31.825 49.7915 31.8266 49.7808 31.8256H49.7775ZM50.072 31.0179H50.0588C50.0445 31.0151 50.0322 31.0078 50.0246 30.9977C50.0169 30.9875 50.0144 30.9752 50.0178 30.9636C50.061 30.8151 50.0997 30.6612 50.1285 30.5108C50.1298 30.5049 50.1324 30.4992 50.1363 30.4941C50.1403 30.489 50.1454 30.4846 50.1514 30.4811C50.1574 30.4776 50.1642 30.4751 50.1714 30.4738C50.1786 30.4724 50.186 30.4723 50.1933 30.4733C50.2006 30.4743 50.2075 30.4765 50.2138 30.4797C50.22 30.4829 50.2254 30.4871 50.2297 30.492C50.234 30.4969 50.237 30.5025 50.2386 30.5083C50.2403 30.5142 50.2405 30.5203 50.2393 30.5262C50.206 30.682 50.1662 30.8368 50.123 30.9871C50.1194 30.9959 50.1125 31.0036 50.1034 31.0091C50.0943 31.0146 50.0834 31.0177 50.072 31.0179ZM50.2415 30.2818H50.2348C50.2205 30.28 50.2076 30.2737 50.1989 30.2642C50.1902 30.2547 50.1864 30.2428 50.1883 30.2311C50.2094 30.1097 50.2271 29.9857 50.2426 29.8607C50.2443 29.8488 50.2516 29.8379 50.2629 29.8302C50.2743 29.8226 50.2889 29.819 50.3035 29.82C50.3108 29.8205 50.3179 29.8223 50.3243 29.8251C50.3308 29.8279 50.3365 29.8317 50.3411 29.8364C50.3457 29.841 50.3492 29.8463 50.3513 29.8521C50.3534 29.8578 50.3541 29.8638 50.3533 29.8698C50.3378 29.9956 50.3201 30.1215 50.2991 30.2437C50.2969 30.2546 50.29 30.2645 50.2796 30.2715C50.2692 30.2785 50.256 30.2821 50.2426 30.2818H50.2415ZM50.3356 29.4424C50.3283 29.4422 50.3212 29.4408 50.3146 29.4383C50.308 29.4358 50.302 29.4322 50.2971 29.4279C50.2921 29.4235 50.2883 29.4184 50.2858 29.4128C50.2833 29.4072 50.2822 29.4013 50.2824 29.3953C50.2902 29.2522 50.2946 29.1056 50.2946 28.9607V28.9299C50.2946 28.9179 50.3005 28.9064 50.3108 28.8979C50.3212 28.8894 50.3353 28.8846 50.35 28.8846C50.3647 28.8846 50.3788 28.8894 50.3892 28.8979C50.3995 28.9064 50.4054 28.9179 50.4054 28.9299V28.9616C50.4054 29.1083 50.4054 29.2559 50.3932 29.4007C50.3921 29.4126 50.3853 29.4236 50.3743 29.4314C50.3633 29.4392 50.349 29.4431 50.3345 29.4424H50.3356ZM50.3411 28.6927C50.3268 28.6927 50.3131 28.6881 50.3028 28.68C50.2924 28.6719 50.2863 28.6609 50.2858 28.6492C50.2858 28.527 50.2736 28.4011 50.2636 28.2761C50.2632 28.2702 50.2642 28.2642 50.2665 28.2586C50.2689 28.253 50.2726 28.2478 50.2775 28.2433C50.2823 28.2389 50.2882 28.2352 50.2947 28.2326C50.3013 28.23 50.3084 28.2285 50.3157 28.2282C50.323 28.2277 50.3303 28.2284 50.3373 28.2303C50.3442 28.2322 50.3507 28.2352 50.3561 28.2392C50.3616 28.2432 50.3661 28.248 50.3692 28.2534C50.3723 28.2588 50.3741 28.2647 50.3744 28.2707C50.3843 28.3966 50.3921 28.5233 50.3965 28.6465C50.3968 28.6524 50.3957 28.6584 50.3932 28.664C50.3906 28.6695 50.3868 28.6747 50.3819 28.679C50.3769 28.6834 50.371 28.6869 50.3644 28.6894C50.3578 28.6919 50.3506 28.6933 50.3434 28.6936L50.3411 28.6927ZM50.2692 27.8515C50.2554 27.8515 50.2421 27.8474 50.2318 27.8399C50.2216 27.8323 50.2152 27.8219 50.2138 27.8107C50.1939 27.6586 50.1695 27.502 50.1418 27.3471C50.1398 27.3351 50.1436 27.3229 50.1525 27.3133C50.1615 27.3036 50.1747 27.2972 50.1894 27.2955C50.2041 27.2938 50.219 27.297 50.2309 27.3043C50.2427 27.3116 50.2505 27.3224 50.2526 27.3345C50.2802 27.4902 50.3046 27.6477 50.3245 27.8008C50.3261 27.8126 50.3218 27.8245 50.3127 27.8339C50.3036 27.8432 50.2903 27.8492 50.2758 27.8506H50.2703L50.2692 27.8515ZM50.144 27.109C50.1309 27.1089 50.1183 27.1051 50.1084 27.0981C50.0984 27.0911 50.0919 27.0815 50.0898 27.071C50.0647 26.9502 50.0373 26.8277 50.0078 26.7033C50.005 26.6913 50.0082 26.6789 50.0166 26.6688C50.025 26.6587 50.038 26.6517 50.0527 26.6495C50.0673 26.6472 50.0825 26.6498 50.0949 26.6566C50.1073 26.6635 50.1158 26.6741 50.1186 26.6861C50.1488 26.8111 50.1765 26.9345 50.2016 27.0565C50.2029 27.0624 50.2027 27.0684 50.2011 27.0742C50.1995 27.0801 50.1965 27.0856 50.1923 27.0905C50.1881 27.0954 50.1827 27.0995 50.1765 27.1027C50.1703 27.1059 50.1634 27.108 50.1562 27.109H50.1462H50.144ZM49.9425 26.2814C49.9299 26.2814 49.9176 26.278 49.9077 26.2715C49.8979 26.2651 49.891 26.2561 49.8882 26.2461C49.8461 26.0967 49.8007 25.9446 49.752 25.7933C49.7483 25.7813 49.7506 25.7686 49.7584 25.758C49.7662 25.7474 49.7788 25.7397 49.7935 25.7367C49.8082 25.7337 49.8238 25.7356 49.8367 25.742C49.8497 25.7484 49.8591 25.7587 49.8627 25.7707C49.9115 25.9237 49.958 26.0768 50.0001 26.2234C50.0017 26.2293 50.0019 26.2353 50.0007 26.2412C49.9994 26.2471 49.9968 26.2527 49.9929 26.2578C49.989 26.2628 49.9839 26.2672 49.9779 26.2706C49.9719 26.2741 49.9651 26.2765 49.958 26.2778H49.9458L49.9425 26.2814Z" fill="#404B7C"/>
<path id="Vector_63" d="M49.7165 25.5515C49.7043 25.5514 49.6926 25.5481 49.683 25.542C49.6734 25.536 49.6665 25.5275 49.6633 25.518C49.6434 25.4576 49.6231 25.3996 49.6024 25.3441C49.5997 25.3366 49.5994 25.3287 49.6015 25.3211C49.6036 25.3134 49.6081 25.3064 49.6146 25.3006C49.6146 25.3006 49.6677 25.2527 49.7552 25.1648C49.7595 25.1595 49.7651 25.1551 49.7716 25.1516C49.7781 25.1482 49.7855 25.146 49.7931 25.145C49.8008 25.1441 49.8086 25.1445 49.8161 25.1461C49.8235 25.1478 49.8305 25.1508 49.8365 25.1548C49.8425 25.1588 49.8474 25.1638 49.8508 25.1694C49.8543 25.1751 49.8563 25.1813 49.8567 25.1876C49.8571 25.1939 49.8558 25.2002 49.8531 25.2061C49.8503 25.212 49.846 25.2174 49.8405 25.2219C49.7829 25.2798 49.7397 25.3206 49.7165 25.3423C49.7342 25.3924 49.7515 25.4425 49.7685 25.4926C49.7705 25.4984 49.7711 25.5044 49.7703 25.5104C49.7694 25.5163 49.7671 25.5221 49.7635 25.5273C49.7599 25.5325 49.755 25.5371 49.7493 25.5408C49.7435 25.5445 49.7368 25.5472 49.7298 25.5487L49.7165 25.5515Z" fill="#404B7C"/>
<path id="Vector_64" d="M50.1529 24.8623C50.1424 24.862 50.1322 24.8593 50.1235 24.8545C50.1148 24.8497 50.108 24.8429 50.1038 24.835C50.0996 24.8272 50.0983 24.8185 50.0999 24.81C50.1015 24.8015 50.1061 24.7936 50.113 24.7871C50.2238 24.6604 50.3345 24.5291 50.4386 24.3969C50.4423 24.3915 50.4474 24.3869 50.4534 24.3832C50.4594 24.3795 50.4662 24.3768 50.4735 24.3753C50.4808 24.3739 50.4884 24.3736 50.4958 24.3746C50.5032 24.3757 50.5103 24.3779 50.5167 24.3812C50.523 24.3845 50.5284 24.3889 50.5326 24.394C50.5368 24.3991 50.5397 24.4048 50.5411 24.4109C50.5425 24.4169 50.5424 24.4231 50.5408 24.4291C50.5391 24.4351 50.536 24.4408 50.5316 24.4458C50.4209 24.5798 50.3102 24.7129 50.1994 24.8405C50.1945 24.8471 50.1877 24.8525 50.1796 24.8563C50.1715 24.8601 50.1623 24.8622 50.1529 24.8623Z" fill="#404B7C"/>
<path id="Vector_65" d="M50.6666 24.2288C50.6567 24.2288 50.647 24.2267 50.6385 24.2227C50.63 24.2186 50.6229 24.2128 50.6181 24.2058C50.6132 24.1988 50.6107 24.1908 50.6109 24.1828C50.6111 24.1747 50.6139 24.1668 50.619 24.16C50.6987 24.0522 50.7762 23.9417 50.8493 23.8322C50.8564 23.8216 50.8683 23.8138 50.8824 23.8104C50.8965 23.807 50.9117 23.8083 50.9246 23.8141C50.9375 23.8198 50.9471 23.8296 50.9513 23.8411C50.9554 23.8527 50.9538 23.8651 50.9468 23.8756C50.8726 23.987 50.7939 24.0984 50.7142 24.207C50.7092 24.2137 50.7022 24.2192 50.6939 24.223C50.6856 24.2268 50.6762 24.2288 50.6666 24.2288ZM51.1616 23.4754C51.154 23.4768 51.146 23.4768 51.1384 23.4754C51.1317 23.4729 51.1257 23.4693 51.1208 23.4649C51.1159 23.4605 51.112 23.4553 51.1096 23.4496C51.1071 23.444 51.106 23.438 51.1064 23.432C51.1068 23.426 51.1086 23.4202 51.1118 23.4148C51.1948 23.2708 51.2724 23.1259 51.3432 22.9819C51.3459 22.9764 51.3499 22.9714 51.355 22.9671C51.3601 22.9628 51.3661 22.9594 51.3728 22.9571C51.3795 22.9547 51.3867 22.9535 51.3939 22.9534C51.4012 22.9533 51.4084 22.9544 51.4152 22.9566C51.422 22.9588 51.4281 22.9621 51.4334 22.9662C51.4386 22.9704 51.4427 22.9753 51.4456 22.9808C51.4485 22.9862 51.45 22.9921 51.4501 22.9981C51.4502 23.004 51.4489 23.0099 51.4462 23.0154C51.3753 23.1603 51.2967 23.3079 51.2126 23.4537C51.2071 23.4611 51.1993 23.467 51.1898 23.4709C51.1804 23.4747 51.1699 23.4763 51.1594 23.4754H51.1616ZM51.5171 22.7737C51.5082 22.7737 51.4994 22.7719 51.4916 22.7686C51.4837 22.7652 51.4769 22.7604 51.4718 22.7544C51.4667 22.7485 51.4634 22.7416 51.4622 22.7344C51.4611 22.7272 51.462 22.7199 51.465 22.713C51.5171 22.5935 51.5647 22.4722 51.6068 22.3508C51.6109 22.3388 51.6207 22.3286 51.634 22.3225C51.6473 22.3164 51.663 22.3149 51.6777 22.3182C51.6924 22.3216 51.7048 22.3296 51.7123 22.3405C51.7198 22.3513 51.7216 22.3642 51.7175 22.3762C51.6743 22.4966 51.6256 22.6188 51.5736 22.7384C51.5707 22.7491 51.5631 22.7585 51.5523 22.765C51.5415 22.7715 51.5282 22.7746 51.5149 22.7737H51.5171ZM51.8017 21.9515H51.7906C51.7835 21.9503 51.7767 21.948 51.7707 21.9447C51.7647 21.9413 51.7595 21.9371 51.7555 21.9321C51.7515 21.9272 51.7487 21.9216 51.7473 21.9158C51.7459 21.9099 51.746 21.9039 51.7474 21.8981C51.7873 21.7423 51.8194 21.5857 51.8416 21.4336C51.8438 21.4217 51.8514 21.411 51.8629 21.4036C51.8744 21.3962 51.889 21.3927 51.9036 21.3937C51.9109 21.3944 51.9179 21.3963 51.9243 21.3992C51.9308 21.4021 51.9364 21.406 51.9409 21.4108C51.9455 21.4155 51.9488 21.4209 51.9508 21.4267C51.9527 21.4325 51.9532 21.4385 51.9523 21.4444C51.9291 21.6002 51.8969 21.7586 51.8571 21.9171C51.8538 21.9271 51.8464 21.9359 51.8361 21.942C51.8258 21.9481 51.8133 21.9512 51.8006 21.9506L51.8017 21.9515ZM51.9291 21.1991C51.9218 21.1987 51.9147 21.1972 51.9081 21.1946C51.9015 21.192 51.8957 21.1884 51.8908 21.1839C51.886 21.1794 51.8823 21.1743 51.8799 21.1686C51.8775 21.163 51.8766 21.157 51.877 21.1511C51.8859 21.046 51.8892 20.941 51.8892 20.8387V20.7744C51.889 20.7685 51.8903 20.7625 51.893 20.757C51.8956 20.7515 51.8996 20.7464 51.9046 20.7421C51.9097 20.7378 51.9157 20.7344 51.9223 20.732C51.929 20.7296 51.9362 20.7283 51.9435 20.7282C51.958 20.7284 51.9719 20.7331 51.9823 20.7413C51.9928 20.7496 51.9991 20.7607 51.9999 20.7726V20.8378C51.9999 20.9428 51.9999 21.0497 51.9877 21.1565C51.9873 21.1625 51.9854 21.1684 51.9822 21.1739C51.9789 21.1793 51.9744 21.1841 51.9688 21.1881C51.9632 21.1921 51.9568 21.1951 51.9497 21.197C51.9427 21.1988 51.9353 21.1996 51.9279 21.1991H51.9291ZM51.9025 20.3452C51.8889 20.3453 51.8757 20.3413 51.8655 20.3339C51.8553 20.3266 51.8487 20.3164 51.8471 20.3054C51.8244 20.1498 51.7915 19.9954 51.7485 19.8427C51.7469 19.8367 51.7468 19.8306 51.7481 19.8246C51.7494 19.8186 51.7521 19.8129 51.7561 19.8077C51.7602 19.8026 51.7654 19.7982 51.7715 19.7947C51.7776 19.7912 51.7845 19.7887 51.7917 19.7874C51.799 19.7861 51.8065 19.786 51.8139 19.7871C51.8212 19.7881 51.8282 19.7904 51.8345 19.7937C51.8407 19.7969 51.8462 19.8012 51.8504 19.8062C51.8547 19.8112 51.8577 19.8168 51.8593 19.8227C51.9033 19.9787 51.9369 20.1365 51.9601 20.2954C51.961 20.3014 51.9605 20.3074 51.9585 20.3132C51.9565 20.319 51.9532 20.3244 51.9487 20.3291C51.9441 20.3338 51.9385 20.3377 51.9321 20.3407C51.9257 20.3436 51.9186 20.3454 51.9113 20.3461H51.9047L51.9025 20.3452ZM51.7142 19.6018C51.7022 19.6018 51.6906 19.5986 51.681 19.5928C51.6714 19.5869 51.6644 19.5786 51.6611 19.5692C51.6168 19.4497 51.5658 19.3302 51.5093 19.2143C51.5066 19.2087 51.5053 19.2028 51.5054 19.1969C51.5055 19.1909 51.5071 19.1851 51.5099 19.1796C51.5128 19.1741 51.517 19.1692 51.5222 19.165C51.5274 19.1609 51.5336 19.1576 51.5404 19.1554C51.5471 19.1532 51.5543 19.1521 51.5616 19.1522C51.5689 19.1523 51.5761 19.1535 51.5828 19.1559C51.5894 19.1583 51.5955 19.1617 51.6006 19.1659C51.6056 19.1702 51.6096 19.1752 51.6123 19.1808C51.6699 19.2994 51.7231 19.4207 51.7674 19.543C51.7715 19.5544 51.77 19.5666 51.7632 19.5772C51.7563 19.5877 51.7447 19.5955 51.7308 19.5991L51.7142 19.6018ZM51.3155 18.8113C51.3055 18.8113 51.2956 18.809 51.287 18.8046C51.2784 18.8003 51.2715 18.7942 51.2668 18.7869C51.1782 18.6502 51.0797 18.5152 50.9733 18.383C50.9668 18.3731 50.9651 18.3615 50.9684 18.3506C50.9718 18.3397 50.9801 18.3301 50.9916 18.3239C51.0031 18.3177 51.017 18.3152 51.0306 18.3169C51.0443 18.3186 51.0566 18.3245 51.0653 18.3332C51.176 18.4673 51.2746 18.6049 51.3643 18.7452C51.3677 18.7505 51.3699 18.7563 51.3706 18.7623C51.3713 18.7682 51.3705 18.7743 51.3684 18.78C51.3662 18.7857 51.3627 18.791 51.358 18.7956C51.3533 18.8002 51.3475 18.804 51.341 18.8068C51.3331 18.81 51.3244 18.8115 51.3155 18.8113ZM50.8183 18.1703C50.8097 18.1703 50.8012 18.1686 50.7935 18.1655C50.7859 18.1623 50.7792 18.1578 50.774 18.1521C50.6843 18.0535 50.5869 17.9548 50.485 17.8588C50.4754 17.8497 50.4707 17.8378 50.4719 17.8258C50.473 17.8139 50.4799 17.8027 50.4911 17.7949C50.5022 17.7871 50.5167 17.7833 50.5314 17.7842C50.546 17.7851 50.5596 17.7908 50.5691 17.7999C50.6721 17.8977 50.7707 17.9982 50.8626 18.0987C50.8691 18.1054 50.8731 18.1135 50.8742 18.1221C50.8753 18.1306 50.8735 18.1392 50.8688 18.1468C50.8642 18.1545 50.857 18.161 50.848 18.1654C50.8391 18.1699 50.8288 18.1722 50.8183 18.1721V18.1703ZM50.1306 17.5274C50.116 17.5272 50.1021 17.5223 50.0918 17.5138C49.959 17.406 49.8161 17.2983 49.6677 17.1942C49.6622 17.1903 49.6576 17.1856 49.6543 17.1803C49.651 17.175 49.6491 17.1692 49.6485 17.1633C49.6479 17.1573 49.6488 17.1514 49.651 17.1457C49.6533 17.1401 49.6569 17.1348 49.6616 17.1303C49.6663 17.1258 49.6721 17.1221 49.6786 17.1194C49.6851 17.1167 49.6921 17.1151 49.6994 17.1146C49.7066 17.1142 49.7139 17.1149 49.7208 17.1167C49.7278 17.1185 49.7342 17.1215 49.7397 17.1253C49.8903 17.2313 50.0343 17.3399 50.1694 17.4495C50.1777 17.4557 50.1836 17.4639 50.1861 17.4729C50.1886 17.4819 50.1877 17.4913 50.1835 17.4999C50.1793 17.5085 50.172 17.5158 50.1625 17.5209C50.153 17.526 50.1419 17.5285 50.1306 17.5283V17.5274ZM49.4351 17.0239C49.4227 17.0239 49.4106 17.0204 49.4008 17.014C49.2823 16.937 49.1583 16.86 49.032 16.7858C49.0262 16.7823 49.0212 16.7779 49.0174 16.7728C49.0136 16.7677 49.011 16.762 49.0099 16.7562C49.0088 16.7503 49.0091 16.7443 49.0108 16.7385C49.0125 16.7327 49.0156 16.7272 49.0199 16.7224C49.0242 16.7176 49.0296 16.7135 49.0358 16.7104C49.042 16.7073 49.0489 16.7052 49.0561 16.7043C49.0633 16.7034 49.0706 16.7036 49.0777 16.705C49.0848 16.7064 49.0915 16.7089 49.0974 16.7124C49.2247 16.7876 49.3499 16.8655 49.4695 16.9433C49.4789 16.9491 49.4858 16.9571 49.4892 16.9663C49.4926 16.9754 49.4924 16.9853 49.4886 16.9943C49.4848 17.0034 49.4776 17.0112 49.468 17.0167C49.4584 17.0222 49.4469 17.025 49.4351 17.0248V17.0239ZM48.5846 16.5268C48.574 16.5268 48.5637 16.5243 48.5547 16.5196C48.3964 16.4363 48.2303 16.353 48.0608 16.2733C48.0481 16.2673 48.0387 16.2574 48.0349 16.2458C48.031 16.2341 48.033 16.2217 48.0403 16.2113C48.0477 16.2008 48.0598 16.1932 48.074 16.19C48.0883 16.1869 48.1034 16.1885 48.1162 16.1945C48.2867 16.276 48.454 16.3593 48.6134 16.4435C48.6238 16.4486 48.6319 16.4562 48.6365 16.4654C48.641 16.4746 48.6418 16.4847 48.6387 16.4942C48.6355 16.5038 48.6287 16.5122 48.6191 16.5182C48.6095 16.5243 48.5978 16.5276 48.5858 16.5277L48.5846 16.5268Z" fill="#404B7C"/>
<path id="Vector_66" d="M47.7808 16.1381C47.7715 16.1381 47.7623 16.1363 47.7542 16.1327L47.5593 16.0476C47.552 16.0453 47.5453 16.0418 47.5398 16.0372C47.5342 16.0327 47.5299 16.0273 47.5272 16.0213C47.5244 16.0153 47.5232 16.0089 47.5237 16.0026C47.5241 15.9962 47.5262 15.9899 47.5299 15.9843C47.5335 15.9786 47.5385 15.9736 47.5447 15.9697C47.5508 15.9657 47.5579 15.9629 47.5655 15.9613C47.5731 15.9598 47.581 15.9595 47.5887 15.9607C47.5964 15.9618 47.6038 15.9643 47.6102 15.9679L47.8062 16.0539C47.8165 16.0588 47.8245 16.0664 47.8291 16.0754C47.8337 16.0843 47.8347 16.0943 47.8318 16.1038C47.829 16.1132 47.8225 16.1217 47.8132 16.1278C47.804 16.134 47.7927 16.1376 47.7808 16.1381Z" fill="#404B7C"/>
<path id="Vector_67" d="M50.1913 25.2952C50.1985 25.0027 49.9142 24.7608 49.5564 24.7549C49.1987 24.7491 48.9028 24.9815 48.8956 25.274C48.8885 25.5666 49.1727 25.8085 49.5305 25.8143C49.8883 25.8202 50.1842 25.5877 50.1913 25.2952Z" fill="#F68D88"/>
<path id="Vector_68" d="M45.2546 36.0301C45.2627 35.7376 44.9793 35.4952 44.6216 35.4885C44.2639 35.4819 43.9674 35.7136 43.9593 36.0061C43.9512 36.2985 44.2346 36.541 44.5923 36.5477C44.95 36.5543 45.2465 36.3226 45.2546 36.0301Z" fill="#F68D88"/>
<path id="Vector_69" d="M47.5859 19.178C49.7063 19.178 51.4253 17.7725 51.4253 16.0387C51.4253 14.3049 49.7063 12.8994 47.5859 12.8994C45.4654 12.8994 43.7465 14.3049 43.7465 16.0387C43.7465 17.7725 45.4654 19.178 47.5859 19.178Z" fill="#E9F3FF"/>
<path id="Vector_70" d="M47.5859 18.5589C49.288 18.5589 50.6678 17.4307 50.6678 16.039C50.6678 14.6473 49.288 13.519 47.5859 13.519C45.8837 13.519 44.5039 14.6473 44.5039 16.039C44.5039 17.4307 45.8837 18.5589 47.5859 18.5589Z" fill="#404B7C"/>
<g id="Group">
<path id="Vector_71" d="M47.5858 16.2163C47.7057 16.2163 47.8029 16.1368 47.8029 16.0388C47.8029 15.9408 47.7057 15.8613 47.5858 15.8613C47.466 15.8613 47.3688 15.9408 47.3688 16.0388C47.3688 16.1368 47.466 16.2163 47.5858 16.2163Z" fill="white"/>
<path id="Vector_72" d="M47.4475 13.7749H47.7244V14.3336H47.4475V13.7749Z" fill="white"/>
<path id="Vector_73" d="M49.4463 14.3589L49.6421 14.519L49.1589 14.914L48.9631 14.7539L49.4463 14.3589Z" fill="white"/>
<path id="Vector_74" d="M50.3542 15.9253V16.1517H49.671V15.9253H50.3542Z" fill="white"/>
<path id="Vector_75" d="M49.6403 17.5601L49.4445 17.7201L48.9613 17.3251L49.1571 17.165L49.6403 17.5601Z" fill="white"/>
<path id="Vector_76" d="M47.7242 18.3027H47.4474V17.7441H47.7242V18.3027Z" fill="white"/>
<path id="Vector_77" d="M45.7266 17.7197L45.5308 17.5597L46.0139 17.1646L46.2097 17.3247L45.7266 17.7197Z" fill="white"/>
<path id="Vector_78" d="M44.8173 16.1519V15.9255H45.5005V16.1519H44.8173Z" fill="white"/>
<path id="Vector_79" d="M45.5302 14.5186L45.7259 14.3585L46.2091 14.7535L46.0133 14.9136L45.5302 14.5186Z" fill="white"/>
<path id="Vector_80" d="M47.6501 14.5557H47.5205L47.4552 15.9256C47.4544 15.9403 47.4573 15.9549 47.4637 15.9686C47.47 15.9823 47.4797 15.9948 47.4921 16.0054C47.5045 16.016 47.5194 16.0244 47.5359 16.0301C47.5524 16.0359 47.5702 16.0388 47.5881 16.0388C47.606 16.0388 47.6238 16.0359 47.6403 16.0301C47.6567 16.0244 47.6717 16.016 47.6841 16.0054C47.6965 15.9948 47.7062 15.9823 47.7125 15.9686C47.7188 15.9549 47.7217 15.9403 47.721 15.9256L47.6501 14.5557Z" fill="white"/>
<path id="Vector_81" d="M46.2548 17.0524L46.3478 17.1266L47.5837 16.1949C47.5966 16.1847 47.6068 16.1726 47.6138 16.1591C47.6208 16.1457 47.6244 16.1312 47.6244 16.1166C47.6244 16.1019 47.6208 16.0874 47.6138 16.074C47.6068 16.0605 47.5966 16.0484 47.5837 16.0382C47.5713 16.0277 47.5564 16.0193 47.5399 16.0136C47.5235 16.0078 47.5058 16.0049 47.4879 16.0049C47.47 16.0049 47.4523 16.0078 47.4358 16.0136C47.4194 16.0193 47.4045 16.0277 47.3921 16.0382L46.2548 17.0524Z" fill="white"/>
</g>
<path id="Vector_82" d="M41.0621 32.6099H36.123C35.7291 32.6099 35.4098 32.8709 35.4098 33.193V38.8404C35.4098 39.1625 35.7291 39.4235 36.123 39.4235H41.0621C41.4559 39.4235 41.7752 39.1625 41.7752 38.8404V33.193C41.7752 32.8709 41.4559 32.6099 41.0621 32.6099Z" fill="#F68D88"/>
<path id="Vector_83" d="M40.8129 33.4922H38.1196C38.0432 33.4922 37.9812 33.5429 37.9812 33.6054C37.9812 33.6679 38.0432 33.7186 38.1196 33.7186H40.8129C40.8893 33.7186 40.9513 33.6679 40.9513 33.6054C40.9513 33.5429 40.8893 33.4922 40.8129 33.4922Z" fill="white"/>
<path id="Vector_84" d="M37.0322 33.1475H36.5549C36.3769 33.1475 36.2327 33.2654 36.2327 33.411V33.8012C36.2327 33.9467 36.3769 34.0647 36.5549 34.0647H37.0322C37.2102 34.0647 37.3545 33.9467 37.3545 33.8012V33.411C37.3545 33.2654 37.2102 33.1475 37.0322 33.1475Z" fill="white"/>
<path id="Vector_85" d="M36.5516 33.3966L36.3777 33.5379L36.8074 33.8892L37.8317 33.1929L36.8627 33.6682L36.5516 33.3966Z" fill="#404B7C"/>
<path id="Vector_86" d="M40.8129 35.0996H38.1196C38.0432 35.0996 37.9812 35.1503 37.9812 35.2128C37.9812 35.2753 38.0432 35.326 38.1196 35.326H40.8129C40.8893 35.326 40.9513 35.2753 40.9513 35.2128C40.9513 35.1503 40.8893 35.0996 40.8129 35.0996Z" fill="white"/>
<path id="Vector_87" d="M37.0322 34.7549H36.5549C36.3769 34.7549 36.2327 34.8729 36.2327 35.0184V35.4086C36.2327 35.5542 36.3769 35.6721 36.5549 35.6721H37.0322C37.2102 35.6721 37.3545 35.5542 37.3545 35.4086V35.0184C37.3545 34.8729 37.2102 34.7549 37.0322 34.7549Z" fill="white"/>
<path id="Vector_88" d="M40.8129 36.707H38.1196C38.0432 36.707 37.9812 36.7577 37.9812 36.8202C37.9812 36.8827 38.0432 36.9334 38.1196 36.9334H40.8129C40.8893 36.9334 40.9513 36.8827 40.9513 36.8202C40.9513 36.7577 40.8893 36.707 40.8129 36.707Z" fill="white"/>
<path id="Vector_89" d="M37.0322 36.3623H36.5549C36.3769 36.3623 36.2327 36.4803 36.2327 36.6258V37.0161C36.2327 37.1616 36.3769 37.2795 36.5549 37.2795H37.0322C37.2102 37.2795 37.3545 37.1616 37.3545 37.0161V36.6258C37.3545 36.4803 37.2102 36.3623 37.0322 36.3623Z" fill="white"/>
<path id="Vector_90" d="M40.8129 38.3145H38.1196C38.0432 38.3145 37.9812 38.3651 37.9812 38.4276C37.9812 38.4901 38.0432 38.5408 38.1196 38.5408H40.8129C40.8893 38.5408 40.9513 38.4901 40.9513 38.4276C40.9513 38.3651 40.8893 38.3145 40.8129 38.3145Z" fill="white"/>
<path id="Vector_91" d="M37.0322 37.9692H36.5549C36.3769 37.9692 36.2327 38.0872 36.2327 38.2327V38.623C36.2327 38.7685 36.3769 38.8865 36.5549 38.8865H37.0322C37.2102 38.8865 37.3545 38.7685 37.3545 38.623V38.2327C37.3545 38.0872 37.2102 37.9692 37.0322 37.9692Z" fill="white"/>
<path id="Vector_92" d="M32.1972 37.0273H28.8406C28.4932 37.0273 28.2115 37.2576 28.2115 37.5417V41.4524C28.2115 41.7364 28.4932 41.9667 28.8406 41.9667H32.1972C32.5445 41.9667 32.8262 41.7364 32.8262 41.4524V37.5417C32.8262 37.2576 32.5445 37.0273 32.1972 37.0273Z" fill="#9AB3DA"/>
<path id="Vector_93" d="M32.1384 37.668H30.1683C30.1176 37.668 30.0764 37.7016 30.0764 37.7431V37.7567C30.0764 37.7982 30.1176 37.8319 30.1683 37.8319H32.1384C32.1892 37.8319 32.2303 37.7982 32.2303 37.7567V37.7431C32.2303 37.7016 32.1892 37.668 32.1384 37.668Z" fill="white"/>
<path id="Vector_94" d="M29.3842 37.418H29.0453C28.9145 37.418 28.8083 37.5047 28.8083 37.6117V37.8888C28.8083 37.9958 28.9145 38.0826 29.0453 38.0826H29.3842C29.5151 38.0826 29.6212 37.9958 29.6212 37.8888V37.6117C29.6212 37.5047 29.5151 37.418 29.3842 37.418Z" fill="white"/>
<path id="Vector_95" d="M32.1384 38.833H30.1683C30.1176 38.833 30.0764 38.8667 30.0764 38.9082V38.9217C30.0764 38.9633 30.1176 38.9969 30.1683 38.9969H32.1384C32.1892 38.9969 32.2303 38.9633 32.2303 38.9217V38.9082C32.2303 38.8667 32.1892 38.833 32.1384 38.833Z" fill="white"/>
<path id="Vector_96" d="M29.3842 38.582H29.0453C28.9145 38.582 28.8083 38.6688 28.8083 38.7758V39.0529C28.8083 39.1599 28.9145 39.2466 29.0453 39.2466H29.3842C29.5151 39.2466 29.6212 39.1599 29.6212 39.0529V38.7758C29.6212 38.6688 29.5151 38.582 29.3842 38.582Z" fill="white"/>
<path id="Vector_97" d="M32.1384 39.9985H30.1683C30.1176 39.9985 30.0764 40.0322 30.0764 40.0737V40.0873C30.0764 40.1288 30.1176 40.1624 30.1683 40.1624H32.1384C32.1892 40.1624 32.2303 40.1288 32.2303 40.0873V40.0737C32.2303 40.0322 32.1892 39.9985 32.1384 39.9985Z" fill="white"/>
<path id="Vector_98" d="M29.3842 39.7476H29.0453C28.9145 39.7476 28.8083 39.8343 28.8083 39.9413V40.2184C28.8083 40.3254 28.9145 40.4122 29.0453 40.4122H29.3842C29.5151 40.4122 29.6212 40.3254 29.6212 40.2184V39.9413C29.6212 39.8343 29.5151 39.7476 29.3842 39.7476Z" fill="white"/>
<path id="Vector_99" d="M32.1384 41.1626H30.1683C30.1176 41.1626 30.0764 41.1962 30.0764 41.2378V41.2513C30.0764 41.2928 30.1176 41.3265 30.1683 41.3265H32.1384C32.1892 41.3265 32.2303 41.2928 32.2303 41.2513V41.2378C32.2303 41.1962 32.1892 41.1626 32.1384 41.1626Z" fill="white"/>
<path id="Vector_100" d="M29.3842 40.9131H29.0453C28.9145 40.9131 28.8083 40.9998 28.8083 41.1069V41.3839C28.8083 41.4909 28.9145 41.5777 29.0453 41.5777H29.3842C29.5151 41.5777 29.6212 41.4909 29.6212 41.3839V41.1069C29.6212 40.9998 29.5151 40.9131 29.3842 40.9131Z" fill="white"/>
<path id="Vector_101" d="M16.2348 17.8244C16.4586 17.8244 16.6401 17.6761 16.6401 17.493C16.6401 17.31 16.4586 17.1616 16.2348 17.1616C16.0109 17.1616 15.8295 17.31 15.8295 17.493C15.8295 17.6761 16.0109 17.8244 16.2348 17.8244Z" fill="#E9F3FF"/>
<path id="Vector_102" d="M14.7042 18.1549C14.8149 18.1549 14.9047 18.0816 14.9047 17.991C14.9047 17.9005 14.8149 17.8271 14.7042 17.8271C14.5935 17.8271 14.5038 17.9005 14.5038 17.991C14.5038 18.0816 14.5935 18.1549 14.7042 18.1549Z" fill="#E9F3FF"/>
<path id="Vector_103" d="M50.8128 38.6731C51.1584 38.6731 51.4385 38.444 51.4385 38.1615C51.4385 37.879 51.1584 37.6499 50.8128 37.6499C50.4673 37.6499 50.1871 37.879 50.1871 38.1615C50.1871 38.444 50.4673 38.6731 50.8128 38.6731Z" fill="#E9F3FF"/>
<path id="Vector_104" d="M49.1206 37.7727C49.2919 37.7727 49.4307 37.6592 49.4307 37.5192C49.4307 37.3791 49.2919 37.2656 49.1206 37.2656C48.9494 37.2656 48.8105 37.3791 48.8105 37.5192C48.8105 37.6592 48.9494 37.7727 49.1206 37.7727Z" fill="#E9F3FF"/>
<path id="Vector_105" d="M31.2071 47.2043C31.5527 47.2043 31.8328 46.9753 31.8328 46.6927C31.8328 46.4102 31.5527 46.1812 31.2071 46.1812C30.8616 46.1812 30.5814 46.4102 30.5814 46.6927C30.5814 46.9753 30.8616 47.2043 31.2071 47.2043Z" fill="#E9F3FF"/>
<path id="Vector_106" d="M29.5149 46.303C29.6862 46.303 29.825 46.1895 29.825 46.0494C29.825 45.9094 29.6862 45.7959 29.5149 45.7959C29.3437 45.7959 29.2048 45.9094 29.2048 46.0494C29.2048 46.1895 29.3437 46.303 29.5149 46.303Z" fill="#E9F3FF"/>
<path id="Vector_107" d="M17.7586 23.5775C16.3843 23.745 15.1008 27.6675 14.6855 28.7541C14.2702 29.8407 14.5471 32.2701 14.5471 32.2701C14.5471 32.2701 15.6268 32.7002 16.0975 32.2248C16.0975 32.2248 16.5404 29.8633 17.0664 28.6636C17.5925 27.4638 18.3677 26.5131 18.7553 25.3812C19.1429 24.2494 18.8106 23.4489 17.7586 23.5775Z" fill="#F68D88"/>
<path id="Vector_108" d="M14.1738 32.2061L14.2325 33.1677C14.5819 33.3497 15.0001 33.422 15.4097 33.3714C16.1151 33.2926 16.3643 33.021 16.3643 33.021L16.3787 32.1382C16.3787 32.1382 15.5027 31.6963 14.1738 32.2061Z" fill="#9AB3DA"/>
<path id="Vector_109" d="M13.5137 31.3492L13.2734 34.3526L17.1682 33.3639L17.5193 30.3984L13.5137 31.3492Z" fill="#9AB3DA"/>
<path id="Vector_110" d="M13.2734 34.3527L12.9047 34.254L13.145 31.2515L13.5137 31.3493L13.2734 34.3527Z" fill="#404B7C"/>
<path id="Vector_111" d="M17.5193 30.3981L17.1494 30.3003L13.145 31.251L13.5138 31.3488L17.5193 30.3981Z" fill="#E9F3FF"/>
<path id="Vector_112" d="M13.959 34.17C13.959 34.17 13.98 34.4534 14.2425 34.5322C14.3203 34.5552 14.4032 34.5641 14.4856 34.5583C14.568 34.5525 14.6479 34.5322 14.7198 34.4987C14.8085 34.5204 14.9021 34.5251 14.9933 34.5123C15.0845 34.4996 15.1709 34.4698 15.2458 34.4253C15.2458 34.4253 15.5371 34.505 15.6821 34.352C15.6821 34.352 16.042 34.4199 16.1528 34.1483C16.2635 33.8766 16.2912 33.4918 16.1461 33.4067C16.0011 33.3216 15.9003 33.5117 15.9003 33.5117C15.8804 33.4875 15.8537 33.4676 15.8224 33.4536C15.7911 33.4396 15.7561 33.4321 15.7204 33.4315C15.6847 33.431 15.6494 33.4375 15.6175 33.4505C15.5856 33.4636 15.558 33.4827 15.5371 33.5063C15.5371 33.5063 15.3333 33.3451 15.1185 33.5543C15.1185 33.5543 14.9833 33.3958 14.8106 33.4981C14.6378 33.6005 14.5437 34.0034 14.5238 34.0414L13.959 34.17Z" fill="#ECBDBB"/>
<path id="Vector_113" d="M14.928 34.2947C14.9191 34.2945 14.9104 34.2927 14.9025 34.2892C14.8897 34.2836 14.8801 34.2741 14.8757 34.2628C14.8714 34.2514 14.8726 34.2391 14.8793 34.2286C14.9823 34.0392 15.0445 33.8367 15.0631 33.63C15.064 33.618 15.0707 33.6068 15.0817 33.5988C15.0927 33.5908 15.1071 33.5868 15.1218 33.5875C15.1365 33.5882 15.1502 33.5937 15.16 33.6027C15.1698 33.6117 15.1747 33.6235 15.1739 33.6355C15.1548 33.8546 15.0885 34.0692 14.9779 34.2693C14.9733 34.2769 14.9662 34.2833 14.9574 34.2878C14.9486 34.2923 14.9384 34.2947 14.928 34.2947Z" fill="#404B7C"/>
<path id="Vector_114" d="M15.3399 34.2736C15.3319 34.2751 15.3236 34.2751 15.3156 34.2736C15.309 34.271 15.3032 34.2674 15.2983 34.2629C15.2935 34.2585 15.2898 34.2533 15.2874 34.2476C15.2851 34.242 15.2841 34.236 15.2845 34.2301C15.285 34.2241 15.2869 34.2183 15.2901 34.213C15.3901 34.0232 15.4515 33.8213 15.4717 33.6154C15.4728 33.6034 15.4796 33.5923 15.4905 33.5844C15.5015 33.5764 15.5158 33.5723 15.5304 33.5728C15.5377 33.5731 15.5448 33.5747 15.5514 33.5773C15.5579 33.5799 15.5638 33.5835 15.5686 33.588C15.5735 33.5924 15.5772 33.5976 15.5795 33.6032C15.5819 33.6089 15.5829 33.6148 15.5825 33.6208C15.5622 33.8394 15.497 34.0537 15.3898 34.2546C15.3842 34.2611 15.3767 34.2662 15.3679 34.2695C15.3592 34.2729 15.3495 34.2743 15.3399 34.2736Z" fill="#404B7C"/>
<path id="Vector_115" d="M15.7408 34.2203C15.7311 34.2205 15.7214 34.2185 15.7129 34.2145C15.7044 34.2106 15.6973 34.2049 15.6923 34.198C15.6874 34.1911 15.6847 34.1832 15.6847 34.1752C15.6847 34.1672 15.6872 34.1594 15.6921 34.1524C15.8095 33.9822 15.8372 33.6209 15.8372 33.6173C15.8383 33.6054 15.8451 33.5943 15.856 33.5863C15.867 33.5784 15.8813 33.5742 15.8959 33.5747C15.9032 33.5751 15.9103 33.5766 15.9168 33.5792C15.9234 33.5818 15.9293 33.5854 15.9341 33.5899C15.9389 33.5944 15.9426 33.5996 15.945 33.6052C15.9474 33.6108 15.9484 33.6168 15.9479 33.6227C15.9479 33.6381 15.918 34.0085 15.7885 34.1968C15.7838 34.2038 15.7769 34.2097 15.7685 34.2138C15.7602 34.218 15.7506 34.2202 15.7408 34.2203Z" fill="#404B7C"/>
<path id="Vector_116" d="M15.0088 49.5195L14.7242 50.3589L14.3632 51.421H13.3477L13.4739 50.2566L13.5514 49.5494L15.0088 49.5195Z" fill="#ECBDBB"/>
<path id="Vector_117" d="M13.5515 49.5494L15.0089 49.5195L14.7243 50.3589L13.474 50.2566L13.5515 49.5494Z" fill="#404B7C"/>
<path id="Vector_118" d="M12.7198 52.8994C12.711 52.8695 12.8771 51.8128 13.2647 51.1636C13.6845 51.2023 14.1075 51.2123 14.5293 51.1935C14.5293 51.1935 15.5725 51.8427 16.495 52.1288C17.4175 52.4149 17.6213 52.529 17.5936 52.8985H12.7209L12.7198 52.8994Z" fill="#404B7C"/>
<path id="Vector_119" d="M16.0975 33.0542C16.0975 33.0542 13.2182 39.5283 12 49.9412H17.1495C17.1495 49.9412 18.0354 42.29 20.1395 37.2193L21.1639 33.439C21.7276 30.4011 17.5194 29.885 16.0975 33.0542Z" fill="#9AB3DA"/>
<path id="Vector_120" d="M17.0953 35.9409C16.928 35.9409 16.1528 35.4184 16.0753 35.2808C15.9978 35.1432 16.2968 34.1426 16.3821 33.8366C16.3855 33.8253 16.3941 33.8156 16.406 33.8094C16.418 33.8031 16.4324 33.8009 16.4463 33.8031C17.1787 33.9082 17.9184 33.9759 18.6612 34.0059C18.6691 34.0062 18.6768 34.0078 18.6839 34.0108C18.6909 34.0137 18.6971 34.0179 18.7021 34.0229C18.707 34.028 18.7105 34.0338 18.7125 34.0401C18.7144 34.0464 18.7146 34.0529 18.7132 34.0593C18.6612 34.2848 18.402 35.4175 18.3732 35.4709C18.33 35.5687 17.2016 35.9409 17.0953 35.9409ZM16.4784 33.899C16.3012 34.5075 16.1462 35.1667 16.1772 35.2437C16.2403 35.3569 16.979 35.8449 17.0964 35.8503C17.2138 35.8558 18.175 35.5063 18.2791 35.432C18.3079 35.3487 18.4795 34.6117 18.5991 34.0937C17.8878 34.063 17.1793 33.998 16.4773 33.899H16.4784Z" fill="#404B7C"/>
<path id="Vector_121" d="M15.9867 49.5794H15.9801C15.9656 49.578 15.9523 49.572 15.9432 49.5627C15.934 49.5533 15.9298 49.5414 15.9313 49.5296C16.7531 43.8423 18.8461 37.3419 18.8671 37.2767C18.8709 37.2647 18.8804 37.2544 18.8935 37.2481C18.9066 37.2419 18.9222 37.2401 18.9369 37.2432C18.9516 37.2463 18.9641 37.2541 18.9718 37.2648C18.9795 37.2755 18.9817 37.2882 18.9779 37.3002C18.9568 37.3654 16.8649 43.8595 16.0443 49.5404C16.0424 49.5516 16.0354 49.5618 16.0248 49.569C16.0141 49.5762 16.0005 49.5799 15.9867 49.5794Z" fill="#404B7C"/>
<path id="Vector_122" d="M23.2093 49.5195L23.0919 50.4187L22.9601 51.421H21.9457L21.8283 50.2584L21.7574 49.5494L23.2093 49.5195Z" fill="#ECBDBB"/>
<path id="Vector_123" d="M23.2093 49.5195L23.0919 50.4187L21.8283 50.2584L21.7574 49.5494L23.2093 49.5195Z" fill="#404B7C"/>
<path id="Vector_124" d="M21.32 52.8994C21.3112 52.8695 21.4773 51.8128 21.8649 51.1636C22.2847 51.2023 22.7077 51.2123 23.1296 51.1935C23.1296 51.1935 24.1728 51.8427 25.0952 52.1288C26.0177 52.4149 26.2215 52.529 26.1938 52.8985H21.32V52.8994Z" fill="#404B7C"/>
<path id="Vector_125" d="M19.2536 33.5536C19.2536 33.5536 18.4973 35.896 19.5216 38.0809C19.7575 42.132 20.0753 47.7595 20.1396 49.9426H25.9602C25.9602 49.9426 26.2226 38.7247 24.8671 33.3534C23.5117 27.9822 18.7553 29.9769 19.2536 33.5536Z" fill="#9AB3DA"/>
<path id="Vector_126" d="M19.5216 38.1249C19.5101 38.1249 19.4989 38.1219 19.4895 38.1163C19.4802 38.1108 19.4732 38.1031 19.4695 38.0941C18.8483 36.5648 18.7796 35.4185 19.1982 33.5514C19.1711 33.3563 19.1593 33.16 19.1628 32.9637C19.1628 32.9517 19.1686 32.9402 19.179 32.9317C19.1894 32.9232 19.2035 32.9185 19.2182 32.9185C19.2328 32.9185 19.2469 32.9232 19.2573 32.9317C19.2677 32.9402 19.2735 32.9517 19.2735 32.9637C19.27 33.1585 19.2819 33.3533 19.309 33.5469C19.3098 33.5514 19.3098 33.5559 19.309 33.5604C18.8926 35.4139 18.9601 36.5485 19.5747 38.0643C19.5793 38.0757 19.5781 38.0881 19.5715 38.0988C19.5648 38.1095 19.5533 38.1176 19.5393 38.1213L19.5216 38.1249Z" fill="#404B7C"/>
<path id="Vector_127" d="M22.453 36.0886C22.2315 36.0886 21.2835 35.7826 21.1728 35.6703C21.062 35.558 20.959 34.4316 20.9291 34.0875C20.9285 34.0811 20.9295 34.0746 20.9322 34.0685C20.9349 34.0624 20.9391 34.0568 20.9446 34.0522C20.95 34.0473 20.9567 34.0435 20.9642 34.0412C20.9718 34.0388 20.9798 34.0379 20.9878 34.0386C21 34.0386 22.237 34.0966 23.2957 33.9091C23.3035 33.9078 23.3115 33.9079 23.3193 33.9093C23.327 33.9108 23.3343 33.9136 23.3406 33.9175C23.3469 33.9215 23.3521 33.9265 23.3558 33.9322C23.3595 33.938 23.3617 33.9443 23.3621 33.9508C23.381 34.198 23.4729 35.4321 23.4618 35.4901C23.4452 35.5933 22.5759 36.0633 22.4795 36.0823C22.471 36.0853 22.4621 36.0874 22.453 36.0886ZM21.0443 34.1319C21.1052 34.8074 21.1994 35.5426 21.2603 35.6132C21.3477 35.7038 22.3289 36.0198 22.453 35.9981C22.577 35.9763 23.2802 35.5598 23.3533 35.4765C23.3533 35.386 23.299 34.5765 23.2569 34.0087C22.5271 34.1159 21.7851 34.1572 21.0443 34.1319Z" fill="#404B7C"/>
<path id="Vector_128" d="M20.9335 37.2346C19.2568 37.1304 18.125 37.1286 18.114 37.1286C18.0993 37.1286 18.0852 37.1239 18.0748 37.1154C18.0644 37.1069 18.0586 37.0954 18.0586 37.0834C18.0586 37.0714 18.0644 37.0598 18.0748 37.0513C18.0852 37.0429 18.0993 37.0381 18.114 37.0381C18.125 37.0381 19.2613 37.0381 20.9423 37.144C20.957 37.145 20.9706 37.1507 20.9802 37.1599C20.9897 37.169 20.9944 37.1809 20.9933 37.1929C20.9921 37.2049 20.9851 37.2161 20.9739 37.2239C20.9627 37.2317 20.9481 37.2355 20.9335 37.2346Z" fill="#404B7C"/>
<path id="Vector_129" d="M24.5692 49.4436H24.5637C24.5564 49.443 24.5493 49.4413 24.5429 49.4385C24.5364 49.4357 24.5307 49.4318 24.5261 49.4272C24.5214 49.4226 24.518 49.4172 24.5159 49.4115C24.5138 49.4058 24.5131 49.3998 24.5138 49.3938C25.2802 43.3561 24.1373 33.8115 24.1263 33.7156C24.1248 33.7035 24.1292 33.6916 24.1386 33.6822C24.1479 33.6729 24.1614 33.667 24.1761 33.6658C24.1908 33.6646 24.2054 33.6682 24.2169 33.6758C24.2283 33.6835 24.2355 33.6945 24.237 33.7065C24.2481 33.8025 25.3909 43.3561 24.6246 49.4029C24.6232 49.4141 24.6168 49.4245 24.6065 49.432C24.5963 49.4395 24.583 49.4437 24.5692 49.4436Z" fill="#404B7C"/>
<path id="Vector_130" d="M20.8139 23.4946C20.8139 23.4946 21.0542 22.9811 21.1549 22.8082C20.4576 22.7072 19.7463 22.6867 19.042 22.7475L19.3742 23.4946H20.8139Z" fill="#F68D88"/>
<path id="Vector_131" d="M17.7586 23.5773C17.7586 23.5773 19.9546 22.9589 22.557 23.743C22.557 23.743 24.7907 29.2963 25.289 33.2804C25.289 33.2804 20.6102 34.1859 15.5714 33.3257C15.5714 33.3257 15.9867 25.9008 17.7586 23.5773Z" fill="#F68D88"/>
<path id="Vector_132" d="M20.8582 23.4465H20.8505C20.2437 23.3816 19.6299 23.374 19.021 23.4239C19.0138 23.4245 19.0064 23.4239 18.9994 23.4222C18.9924 23.4205 18.9859 23.4176 18.9802 23.4138C18.9746 23.4101 18.9699 23.4054 18.9664 23.4001C18.963 23.3949 18.9608 23.3891 18.9601 23.3832C18.9594 23.3772 18.9601 23.3712 18.9622 23.3655C18.9643 23.3598 18.9678 23.3544 18.9724 23.3498C18.977 23.3452 18.9827 23.3414 18.9892 23.3385C18.9956 23.3357 19.0027 23.334 19.0099 23.3334C19.6273 23.2827 20.2497 23.2903 20.8649 23.356C20.8796 23.3567 20.8933 23.3622 20.9031 23.3712C20.9128 23.3802 20.9178 23.392 20.9169 23.404C20.916 23.416 20.9094 23.4272 20.8984 23.4352C20.8874 23.4432 20.8729 23.4473 20.8582 23.4465Z" fill="#ECBDBB"/>
<path id="Vector_133" d="M15.876 30.2564H15.8705C15.8559 30.255 15.8427 30.249 15.8335 30.2397C15.8244 30.2304 15.8202 30.2185 15.8217 30.2066C16.1207 27.9103 16.6922 24.8924 17.7132 23.5541C17.721 23.5439 17.7334 23.5366 17.7477 23.5339C17.7621 23.5312 17.7771 23.5332 17.7896 23.5396C17.8021 23.5459 17.811 23.5561 17.8143 23.5678C17.8176 23.5795 17.8151 23.5919 17.8073 23.6021C16.7963 24.925 16.2259 27.9293 15.9314 30.2202C15.9288 30.2305 15.9218 30.2399 15.9117 30.2465C15.9016 30.2531 15.8889 30.2566 15.876 30.2564Z" fill="#ECBDBB"/>
<path id="Vector_134" d="M24.5093 33.0092C24.4957 33.0092 24.4826 33.0052 24.4723 32.9979C24.4621 32.9905 24.4556 32.9804 24.454 32.9693C24.094 30.6006 23.1959 28.0435 23.1871 28.0182C23.183 28.0062 23.1848 27.9933 23.1923 27.9825C23.1998 27.9716 23.2122 27.9636 23.2269 27.9602C23.2416 27.9569 23.2573 27.9584 23.2706 27.9645C23.2839 27.9706 23.2937 27.9808 23.2978 27.9928C23.3067 28.0182 24.207 30.5825 24.568 32.9575C24.5699 32.9694 24.566 32.9814 24.557 32.9909C24.5481 33.0004 24.5349 33.0067 24.5204 33.0082H24.5093V33.0092Z" fill="#ECBDBB"/>
<path id="Vector_135" d="M27.1893 25.6969L27.7154 24.9273C27.7154 24.9273 27.4939 23.9992 27.485 23.8561C27.4762 23.713 27.9922 23.2603 28.0476 23.2223C28.103 23.1842 28.6755 23.177 28.6755 23.177C28.7662 23.1452 28.8649 23.1312 28.9634 23.1363C28.9949 23.137 29.0247 23.1477 29.0466 23.1661C29.0686 23.1845 29.0808 23.2092 29.0808 23.2349C29.0808 23.2349 29.3267 23.1815 29.3333 23.3309C29.355 23.3285 29.377 23.3285 29.3986 23.3309C29.4244 23.3357 29.4479 23.3465 29.4665 23.3619C29.485 23.3773 29.4978 23.3967 29.5033 23.4178C29.5087 23.439 29.5067 23.4609 29.4974 23.4812C29.4881 23.5014 29.4719 23.519 29.4507 23.5319C29.3267 23.608 29.1018 23.7456 29.0919 23.7601C29.0819 23.7746 28.6356 24.3315 28.6279 24.3541C28.6201 24.3767 28.5348 25.0079 28.4894 25.1355C28.444 25.2632 27.9933 26.1451 27.9933 26.1451L27.1893 25.6969Z" fill="#ECBDBB"/>
<path id="Vector_136" d="M27.8539 23.6719C27.8424 23.672 27.8311 23.6692 27.8216 23.6638C27.8121 23.6585 27.8049 23.6508 27.801 23.6419C27.7971 23.6331 27.7967 23.6234 27.7998 23.6143C27.8029 23.6053 27.8095 23.5972 27.8185 23.5913C27.8362 23.5786 28.2681 23.2889 28.5128 23.2128C28.5196 23.2107 28.5269 23.2098 28.5342 23.21C28.5415 23.2102 28.5487 23.2116 28.5553 23.2141C28.5619 23.2166 28.5679 23.2201 28.5729 23.2244C28.5778 23.2288 28.5817 23.2339 28.5842 23.2395C28.5868 23.2451 28.588 23.2511 28.5877 23.257C28.5874 23.263 28.5857 23.2688 28.5827 23.2743C28.5797 23.2797 28.5754 23.2846 28.57 23.2886C28.5647 23.2927 28.5584 23.2958 28.5516 23.2979C28.3245 23.3677 27.8938 23.6601 27.8871 23.6601C27.878 23.667 27.8663 23.6711 27.8539 23.6719Z" fill="#404B7C"/>
<path id="Vector_137" d="M28.1407 23.7621C28.1291 23.7621 28.1177 23.7591 28.1083 23.7535C28.0989 23.748 28.0918 23.7401 28.0882 23.7311C28.0845 23.7221 28.0844 23.7124 28.0878 23.7033C28.0913 23.6942 28.0982 23.6863 28.1075 23.6806C28.3566 23.5267 28.619 23.3878 28.8926 23.265C28.8993 23.2621 28.9067 23.2604 28.9142 23.2599C28.9217 23.2594 28.9293 23.2602 28.9365 23.2622C28.9436 23.2642 28.9502 23.2674 28.9558 23.2716C28.9613 23.2758 28.9658 23.2808 28.9689 23.2864C28.972 23.2921 28.9737 23.2982 28.9738 23.3044C28.9739 23.3105 28.9725 23.3167 28.9696 23.3224C28.9667 23.3281 28.9624 23.3332 28.957 23.3375C28.9516 23.3419 28.9451 23.3452 28.938 23.3474C28.6717 23.4679 28.416 23.6034 28.1728 23.753C28.1635 23.7587 28.1523 23.7619 28.1407 23.7621Z" fill="#404B7C"/>
<path id="Vector_138" d="M28.6289 23.7595C28.6176 23.7596 28.6064 23.7569 28.5971 23.7516C28.5877 23.7464 28.5805 23.7389 28.5765 23.7302C28.5725 23.7215 28.5719 23.712 28.5748 23.703C28.5776 23.694 28.5837 23.6859 28.5924 23.6799C28.7882 23.5437 29.0026 23.4264 29.2314 23.3303C29.2447 23.3253 29.26 23.3248 29.2738 23.329C29.2876 23.3331 29.2988 23.3416 29.305 23.3525C29.3112 23.3635 29.3118 23.3759 29.3067 23.3872C29.3016 23.3985 29.2912 23.4077 29.2779 23.4127C29.0586 23.5056 28.8528 23.6182 28.6644 23.7487C28.6545 23.7556 28.6419 23.7594 28.6289 23.7595Z" fill="#404B7C"/>
<path id="Vector_139" d="M26.4708 26.5428C26.4431 26.5048 26.36 26.1734 26.3966 26.0974C26.5813 25.887 26.7949 25.6946 27.0334 25.5242C27.1352 25.4789 28.215 25.8031 28.3711 26.4677C28.3711 26.4677 28.0666 27.0409 28.0023 27.0716C27.9381 27.1024 27.329 27.087 26.9592 26.9286C26.7505 26.8456 26.5794 26.7105 26.4708 26.5428Z" fill="#9AB3DA"/>
<path id="Vector_140" d="M26.6921 26.1126L25.8803 26.8524C25.8803 26.8524 24.0165 24.3922 22.5581 23.7439C22.5581 23.7439 22.0785 23.4877 21.9678 24.8912C21.8571 26.2946 22.4661 27.2454 22.4661 27.2454C22.4661 27.2454 24.9025 29.0563 25.7142 29.1623C26.5259 29.2682 27.2458 28.0911 27.7818 26.8379C27.5215 26.444 27.1815 26.1715 26.6921 26.1126Z" fill="#F68D88"/>
<path id="Vector_141" d="M24.0156 28.3575C24.0031 28.3574 23.991 28.3539 23.9813 28.3475C23.1851 27.8387 22.4309 27.2827 22.4309 27.2773C22.426 27.2737 22.4218 27.2694 22.4187 27.2646C22.4121 27.2546 21.8041 26.2867 21.9137 24.8868C21.9514 24.4078 22.0367 24.0665 22.1662 23.8718C22.1733 23.8612 22.1852 23.8534 22.1993 23.85C22.2134 23.8466 22.2286 23.8479 22.2415 23.8537C22.2545 23.8594 22.264 23.8692 22.2682 23.8807C22.2724 23.8923 22.2707 23.9047 22.2637 23.9153C22.1419 24.0964 22.061 24.4269 22.0245 24.8923C21.9506 25.6878 22.1183 26.486 22.5128 27.2157C22.5937 27.2755 23.3024 27.797 24.0522 28.276C24.0617 28.2818 24.0687 28.29 24.0722 28.2994C24.0756 28.3087 24.0752 28.3187 24.0711 28.3279C24.067 28.3371 24.0593 28.3449 24.0494 28.3502C24.0394 28.3556 24.0275 28.3581 24.0156 28.3575Z" fill="#ECBDBB"/>
<path id="Vector_142" d="M26.4939 27.6277C26.4836 27.6278 26.4734 27.6254 26.4646 27.6209C26.4558 27.6164 26.4487 27.61 26.4441 27.6024C26.2894 27.377 26.1132 27.1621 25.917 26.9595C25.9093 26.9501 25.9062 26.9386 25.9084 26.9274C25.9105 26.9162 25.9178 26.9061 25.9286 26.899C25.9395 26.8919 25.9532 26.8885 25.967 26.8893C25.9809 26.8901 25.9938 26.8951 26.0034 26.9034C26.2047 27.1105 26.385 27.3306 26.5427 27.5616C26.547 27.5685 26.5491 27.5762 26.5488 27.5839C26.5485 27.5917 26.5458 27.5992 26.5409 27.6058C26.536 27.6125 26.5292 27.618 26.5209 27.6218C26.5127 27.6256 26.5034 27.6277 26.4939 27.6277Z" fill="#ECBDBB"/>
<path id="Vector_143" d="M20.6845 20.468C21.7089 20.4517 21.8196 21.3436 21.4962 21.9919C21.1729 22.6402 20.5084 22.3994 20.1208 21.9539C19.7332 21.5084 19.752 20.4834 20.6845 20.468Z" fill="#ECBDBB"/>
<path id="Vector_144" d="M21.0055 21.5612L21.2137 21.5667C21.2736 21.4576 21.32 21.3438 21.3521 21.2271C21.4436 21.3161 21.5408 21.401 21.6433 21.4816C21.6644 21.4816 22.3011 21.0116 22.3421 20.8704C22.3831 20.7291 21.6622 19.7168 20.887 19.6081C20.1118 19.4995 18.6865 20.3099 18.6168 20.4801C18.547 20.6503 18.568 21.1592 18.506 21.3068C18.444 21.4544 17.3366 21.6291 17.0941 21.9298C16.8515 22.2304 16.9213 22.6822 17.0808 23.0734C17.2402 23.4645 16.6932 23.6393 16.0564 23.8883C15.4196 24.1373 14.9634 25.2691 16.4307 25.9482C17.898 26.6274 20.3067 25.7001 20.6256 24.6579C20.8704 23.8584 20.7242 23.5496 20.5769 23.1349C20.4296 22.7202 21.2026 23.0725 20.7508 22.0321C20.5116 21.4806 20.908 21.2923 20.908 21.2923L21.0055 21.5612Z" fill="#404B7C"/>
<path id="Vector_145" d="M21.0619 21.6047C21.1051 21.5278 21.1252 21.4435 21.1206 21.359C21.116 21.2744 21.0868 21.192 21.0354 21.1185C21.0116 21.0781 20.9738 21.0443 20.9268 21.0213C20.8797 20.9983 20.8255 20.987 20.7707 20.989C20.4451 21.0116 20.5282 21.5775 21.0165 21.6907L21.0619 21.6047Z" fill="#ECBDBB"/>
<path id="Vector_146" d="M20.9458 21.5438H20.9358C20.9215 21.5416 20.9087 21.5348 20.9004 21.525C20.8921 21.5151 20.8889 21.503 20.8915 21.4913C20.8915 21.4913 20.948 21.2386 20.7808 21.1861C20.767 21.1819 20.7558 21.1734 20.7497 21.1624C20.7435 21.1515 20.743 21.139 20.7481 21.1277C20.7533 21.1164 20.7637 21.1073 20.7771 21.1023C20.7905 21.0972 20.8057 21.0968 20.8195 21.101C21.0776 21.1798 21.0078 21.494 21.0045 21.5076C21.0018 21.5184 20.9944 21.5281 20.9836 21.5348C20.9727 21.5415 20.9593 21.5447 20.9458 21.5438Z" fill="#404B7C"/>
<path id="Vector_147" d="M20.7664 21.3922C20.7562 21.3923 20.7462 21.39 20.7374 21.3857C20.7287 21.3814 20.7216 21.3752 20.7169 21.3678C20.7122 21.3604 20.7101 21.3521 20.7108 21.3438C20.7115 21.3355 20.715 21.3275 20.721 21.3207C20.7706 21.269 20.8394 21.2318 20.917 21.2148C20.9317 21.2118 20.9472 21.2137 20.9602 21.22C20.9732 21.2264 20.9825 21.2367 20.9862 21.2487C20.9899 21.2607 20.9875 21.2734 20.9798 21.2841C20.972 21.2947 20.9593 21.3023 20.9447 21.3053C20.8919 21.3171 20.8451 21.3421 20.8107 21.3769C20.8052 21.382 20.7983 21.386 20.7907 21.3887C20.783 21.3914 20.7747 21.3926 20.7664 21.3922Z" fill="#404B7C"/>
<path id="Vector_148" d="M20.011 20.4684C20.299 20.07 19.9745 19.3221 19.2358 19.3519C19.068 19.3596 18.9039 19.3949 18.7532 19.4557C18.6025 19.5166 18.4684 19.6017 18.359 19.706C18.2495 19.8103 18.167 19.9316 18.1164 20.0626C18.0657 20.1936 18.0479 20.3316 18.0642 20.4684C18.1184 21.0271 19.3466 21.3893 20.011 20.4684Z" fill="#404B7C"/>
<path id="Vector_149" d="M18.9534 21.0748C18.8967 21.0748 18.8401 21.0712 18.784 21.064C18.7693 21.0622 18.7561 21.0557 18.7473 21.0459C18.7385 21.0361 18.7347 21.0239 18.7369 21.0119C18.7392 20.9999 18.7471 20.9891 18.759 20.9819C18.771 20.9747 18.7859 20.9716 18.8006 20.9734C19.2436 21.0305 19.6866 20.8322 19.9634 20.4428C20.016 20.3597 20.0479 20.2689 20.0574 20.1757C20.0669 20.0825 20.0538 19.9886 20.0188 19.8995C20.0147 19.8875 20.0166 19.8747 20.024 19.8638C20.0315 19.8529 20.044 19.8449 20.0587 19.8416C20.0733 19.8382 20.0891 19.8398 20.1023 19.8459C20.1156 19.852 20.1254 19.8622 20.1295 19.8742C20.1694 19.9757 20.184 20.0827 20.1726 20.1889C20.1612 20.2951 20.124 20.3983 20.0631 20.4926C19.7884 20.8657 19.3842 21.0748 18.9534 21.0748Z" fill="#9AB3DA"/>
</g>
</g>
</svg>
