<svg width="50" height="62" viewBox="0 0 50 62" fill="none" xmlns="http://www.w3.org/2000/svg">
<path id="Vector" d="M50 43.2093V14.4018L27.1786 0V11.0608L36.1179 16.7166C36.4714 16.9751 36.4714 17.4882 36.1179 17.6194L25.5286 24.3052C25.175 24.5637 24.825 24.4325 24.5893 24.3052L14 17.6194C13.6464 17.4882 13.6464 16.8478 14 16.7166L22.9429 11.0608V0L0 14.4018V43.2093L8.70714 37.6808V26.3615C8.70714 25.9757 9.175 25.7211 9.41071 25.8484L20 32.5343C20.3536 32.7928 20.4714 33.0513 20.4714 33.437V46.8088C20.4714 47.1946 20 47.4531 19.7643 47.3257L10.825 41.6661L2.11786 47.1946L24.9393 61.7276L47.7643 47.3257L39.0571 41.7934L30.1214 47.4531C29.7679 47.7115 29.4143 47.4531 29.4143 46.9399V33.5644C29.4143 33.1786 29.65 32.7928 29.8857 32.6655L40.475 25.9757C40.8286 25.7211 41.1786 25.9757 41.1786 26.4927V37.8081L50 43.2093Z" fill="white"/>
</svg>
