<svg width="63" height="64" viewBox="0 0 63 64" fill="none" xmlns="http://www.w3.org/2000/svg">
<g id="Icon">
<circle id="Background" cx="31.5" cy="32.3994" r="31.5" fill="#7F0B0C"/>
<g id="&#240;&#159;&#166;&#134; illustration &#34;VR&#34;">
<path id="Vector" d="M12.4874 42.1497C15.9632 44.4599 24.7407 50.2626 28.1144 52.4902C28.5235 52.7603 28.988 52.9015 29.4603 52.8993C29.9327 52.8971 30.3961 52.7516 30.8033 52.4777L51.5127 38.5482C51.6622 38.448 51.7859 38.3044 51.8715 38.132C51.957 37.9596 52.0014 37.7644 52 37.5662C51.9986 37.368 51.9516 37.1736 51.8636 37.0028C51.7757 36.832 51.65 36.6907 51.4991 36.5932L34.3799 25.502L12.4833 40.2134C12.3358 40.3127 12.2136 40.4544 12.1288 40.6245C12.044 40.7946 11.9996 40.9871 12 41.1829C12.0004 41.3787 12.0456 41.571 12.1311 41.7406C12.2166 41.9102 12.3395 42.0513 12.4874 42.1497Z" fill="#68E1FD"/>
<path id="Vector_2" d="M39.9334 38.5884C39.9184 38.5246 31.2676 44.1309 31.2676 44.1309L35.0933 47.2465L47.3139 38.8486" fill="url(#paint0_linear_1_408)"/>
<path id="Vector_3" d="M28.2884 42.243C32.9074 39.4353 36.1125 35.9976 35.4472 34.5647C34.7818 33.1318 30.4981 34.2463 25.8791 37.0539C21.2601 39.8616 18.055 43.2993 18.7203 44.7322C19.3856 46.1651 23.6694 45.0507 28.2884 42.243Z" fill="url(#paint1_linear_1_408)"/>
<path id="Vector_4" d="M33.3357 31.4289C33.3357 31.4289 33.1042 32.0847 33.2444 32.6284C33.3847 33.172 34.6141 34.8996 34.3962 35.0772C34.1784 35.2547 32.5882 34.3808 32.4902 34.0288C32.3922 33.6767 32.4071 32.9025 32.4071 32.9025L32.1825 34.3045L31.774 34.1628L31.8775 31.2295L33.3357 31.4289Z" fill="#FF7F2E"/>
<path id="Vector_5" d="M30.0545 35.9273C29.9728 35.9678 29.9007 37.1735 29.9783 37.6082C30.0559 38.0428 30.674 39.4494 31.2145 39.9448C31.755 40.4402 31.2472 37.5536 31.2512 37.376C31.2553 37.1985 31.2227 35.9227 31.2227 35.9227C31.2227 35.9227 30.4521 35.7311 30.0545 35.9273Z" fill="#FF7F2E"/>
<path id="Vector_6" d="M40.8007 16.3713C40.7939 16.3317 40.7783 16.2948 40.7556 16.264C40.7328 16.2332 40.7035 16.2096 40.6705 16.1954C40.6375 16.1812 40.6018 16.1769 40.567 16.1829C40.5321 16.1888 40.4991 16.2049 40.4712 16.2296C40.363 16.3386 40.281 16.4775 40.2329 16.633L40.4086 14.6079C40.4263 14.4054 40.1894 14.379 40.1118 14.5254C40.0837 14.5304 40.0579 14.546 40.0384 14.5697C40.0189 14.5934 40.0069 14.6239 40.0042 14.6562L39.9892 14.7528C39.9647 14.7427 39.9384 14.7391 39.9125 14.7425C39.8865 14.7458 39.8616 14.7559 39.8396 14.772C39.8177 14.7881 39.7992 14.8098 39.7857 14.8354C39.7722 14.861 39.7641 14.8897 39.7619 14.9195C39.7619 15.013 39.7496 15.1064 39.7428 15.203C39.7235 15.1874 39.7011 15.1779 39.6776 15.1752C39.6541 15.1726 39.6304 15.177 39.6088 15.188C39.5873 15.199 39.5686 15.2162 39.5546 15.2379C39.5406 15.2597 39.5318 15.2852 39.5291 15.3121C39.4856 15.6557 39.4131 15.9938 39.3126 16.3215C39.2938 16.3901 39.2624 16.4533 39.2207 16.507C39.1789 16.5607 39.1276 16.6037 39.0703 16.633C38.9259 16.7172 38.7762 16.7888 38.6291 16.8745C38.4821 16.9602 38.5651 17.2047 38.7122 17.211C38.6987 17.2359 38.6902 17.264 38.6874 17.2931C38.6845 17.3222 38.6874 17.3517 38.6957 17.3795C38.704 17.4072 38.7177 17.4325 38.7356 17.4534C38.7535 17.4744 38.7753 17.4906 38.7993 17.5007C38.6033 17.5537 38.6877 17.9026 38.8892 17.8543C39.2459 17.7671 39.6148 17.6985 39.9647 17.5848C40.2888 17.4758 40.4903 17.186 40.6455 16.8589C40.7122 16.7343 40.8266 16.5318 40.8007 16.3713ZM38.9205 17.1331C39.0035 17.091 39.088 17.049 39.1683 17.0007C39.1365 17.036 39.1029 17.0697 39.0675 17.1019L38.9205 17.1331Z" fill="#FF7D09"/>
<path id="Vector_7" d="M39.8039 16.0083C39.8194 15.6355 39.8407 15.2632 39.8679 14.8914C39.8679 14.8135 39.7658 14.8135 39.7604 14.8914C39.7349 15.2393 39.7145 15.5877 39.6991 15.9367C39.7336 15.9626 39.7685 15.9865 39.8039 16.0083Z" fill="#99551D"/>
<path id="Vector_8" d="M40.0191 16.1919C40.0744 15.6488 40.1198 15.1046 40.1552 14.5594C40.1552 14.4815 40.0531 14.4815 40.0476 14.5594C40.0104 15.089 39.9651 15.6176 39.9115 16.1452L40.0191 16.1919Z" fill="#99551D"/>
<path id="Vector_9" d="M37.5099 20.1419C37.337 20.0982 37.1614 20.0609 36.9858 20.0297H36.9953C37.1246 19.9799 37.288 19.849 37.175 19.6714C37.062 19.4938 36.8823 19.6496 36.7666 19.7057C36.5895 19.7876 36.4075 19.8548 36.222 19.9066C36.1852 19.9175 34.4398 19.8132 34.4262 19.8412C34.3459 19.8319 34.6576 19.6777 34.576 19.6683C34.4943 19.659 34.1131 19.7041 34.0994 19.7742L34.2111 19.796C34.197 19.82 34.1881 19.8475 34.1852 19.8761C34.1823 19.9048 34.1855 19.9339 34.1944 19.9609C34.2033 19.9879 34.2178 20.012 34.2366 20.0313C34.2553 20.0506 34.2779 20.0645 34.3023 20.0718H34.3254C34.3197 20.1021 34.3206 20.1336 34.3279 20.1634C34.3353 20.1933 34.3489 20.2207 34.3677 20.2431L33.8231 20.1512C33.8013 20.1512 34.06 20.1979 34.3677 20.2556L34.3894 20.2696L34.482 20.3132C34.4126 20.4129 34.4276 20.5983 34.5596 20.6248L34.6576 20.6419C34.6764 20.6572 34.6977 20.6678 34.7203 20.6731C34.8292 20.7001 34.9386 20.725 35.0484 20.7478C35.0497 20.7717 35.0562 20.7947 35.0674 20.8148C35.2935 21.2416 35.7482 21.1435 36.1103 21.17C36.1226 21.2806 36.1226 21.4286 36.1975 21.5033C36.2393 21.533 36.2861 21.5523 36.3349 21.5601C36.3837 21.5679 36.4333 21.5639 36.4807 21.5485C36.5281 21.5384 36.572 21.513 36.6073 21.4753C36.6231 21.4913 36.6424 21.502 36.6631 21.5065C36.7265 21.5245 36.7933 21.5191 36.854 21.4912C36.9146 21.4632 36.966 21.414 37.0007 21.3507C37.0846 21.3497 37.1675 21.3296 37.2444 21.2915C37.2849 21.2699 37.3192 21.2356 37.3434 21.1926C37.3675 21.1496 37.3804 21.0996 37.3806 21.0485C37.398 20.8789 37.3869 20.707 37.3479 20.5422L37.4146 20.5516C37.5576 20.5765 37.9116 20.6622 38.0572 20.6279C38.1063 20.617 38.1839 20.5531 38.1784 20.4955C38.1689 20.2665 37.6679 20.1808 37.5099 20.1419Z" fill="#FF7D09"/>
<g id="Group">
<path id="Vector_10" d="M36.4098 21.5109C36.3485 21.5109 36.2982 21.5016 36.2614 21.4346C36.2423 21.3942 36.2277 21.3513 36.2178 21.3068C36.1879 21.2068 36.1763 21.1007 36.1838 20.9953C36.1838 20.9236 36.0926 20.9252 36.0871 20.9953C36.0849 21.0311 36.0849 21.067 36.0871 21.1028C35.8903 21.1509 35.6857 21.1353 35.4963 21.0576C35.3378 21.0254 35.1924 20.9365 35.081 20.8037C35.0415 20.7492 34.9721 20.8271 35.0129 20.8816C35.1362 21.0284 35.2967 21.127 35.4717 21.1635C35.6751 21.2449 35.8939 21.2616 36.1048 21.2118C36.1149 21.2969 36.1346 21.3802 36.1634 21.4595C36.1862 21.5106 36.2219 21.5527 36.2658 21.5805C36.3097 21.6082 36.3598 21.6203 36.4098 21.6153C36.4724 21.6277 36.4711 21.5171 36.4098 21.5109Z" fill="#99551D"/>
<path id="Vector_11" d="M36.6074 20.8194C36.5983 21.0208 36.5851 21.2218 36.5679 21.4222C36.5679 21.4939 36.6591 21.4923 36.6645 21.4222C36.6818 21.2218 36.6949 21.0208 36.704 20.8194C36.7067 20.7477 36.6101 20.7477 36.6074 20.8194Z" fill="#99551D"/>
<path id="Vector_12" d="M37.0349 20.6801L37.0117 21.3032C37.0117 21.3749 37.1057 21.3749 37.1084 21.3032L37.1315 20.6801C37.1343 20.6053 37.0376 20.6053 37.0349 20.6801Z" fill="#99551D"/>
</g>
<path id="Vector_13" d="M29.4024 21.2789C29.4024 21.2789 27.8694 27.3542 29.0947 35.9219C29.0947 35.9219 30.9804 36.8207 32.4126 35.7069L32.1853 31.839L33.4256 31.7782C33.4256 31.7782 35.6284 28.3153 35.3208 25.7591C35.0131 23.2028 32.964 20.7119 32.964 20.7119L29.4092 21.2789" fill="#2887FD"/>
<path id="Vector_14" d="M31.9891 15.0088C31.9891 15.0088 29.7808 17.6165 29.4023 21.2834C29.4023 21.2834 31.0361 22.0249 33.047 20.7616C35.0579 19.4983 34.0749 21.2757 35.0634 20.9906C36.0518 20.7055 35.5154 19.8472 35.9878 19.6026L34.0531 19.1073L33.9034 18.2318L38.6822 18.6259C38.6822 18.6259 39.6733 17.3688 39.2131 16.3391L33.5848 15.6023" fill="#FFB001"/>
<path id="Vector_15" d="M34.3105 13.9575C34.3105 13.9575 34.3854 12.8671 33.2213 13.0228C33.0202 12.9238 32.8008 12.8834 32.5827 12.9051C32.3646 12.9269 32.1546 13.0101 31.9715 13.1475C31.8298 13.2502 31.7121 13.3908 31.6284 13.5572C31.4314 13.6536 31.226 13.7262 31.0157 13.7737C30.3772 13.8282 29.6965 13.5167 29.111 13.3126C28.9147 13.2428 28.7146 13.1876 28.512 13.1475C28.3416 13.0982 28.1662 13.0757 27.9905 13.0805C27.933 13.0826 27.8757 13.0894 27.819 13.1007C27.422 13.1175 27.0432 13.2953 26.7502 13.6023C26.6113 13.759 26.5057 13.9503 26.4419 14.1612C26.3781 14.3722 26.3578 14.5972 26.3824 14.8186C26.407 15.0401 26.476 15.252 26.584 15.438C26.692 15.6239 26.836 15.7789 27.0048 15.8907C27.3792 16.1306 27.8299 16.1726 28.2506 16.1524C28.6717 16.1323 29.0881 16.0426 29.4868 15.886C30.2275 15.5956 30.8895 15.0899 31.4079 14.4186C31.3741 14.7598 31.43 15.1047 31.5685 15.4093C31.8408 15.8767 32.4044 15.981 32.4044 15.981L34.1744 14.2675C34.3145 14.251 34.445 14.1777 34.5421 14.0609C34.6392 13.9441 34.6966 13.7914 34.704 13.6304C34.704 13.6304 34.4616 13.9419 34.3105 13.9575Z" fill="#EE6300"/>
<path id="Vector_16" d="M32.9912 13.5845C32.6046 13.6748 32.3922 14.0954 32.3105 14.5877C32.2867 14.5558 32.257 14.5303 32.2235 14.5132C32.19 14.4961 32.1536 14.4878 32.1169 14.4889C32.0803 14.4899 32.0443 14.5003 32.0116 14.5193C31.9789 14.5382 31.9503 14.5653 31.9279 14.5986C31.8973 14.6729 31.8881 14.7565 31.9018 14.8372C31.9155 14.9178 31.9514 14.9914 32.0042 15.0472C32.0816 15.1454 32.1769 15.223 32.2833 15.2746C32.3282 15.8977 32.5556 16.4539 32.8878 16.4616C33.6161 16.4788 33.9919 14.6469 34.1893 14.4771C34.2506 13.868 34.0273 13.343 32.9912 13.5845Z" fill="#FFE1D7"/>
<path id="Vector_17" d="M31.5563 13.5489C31.5084 13.5479 31.4612 13.5624 31.4202 13.5909C31.1683 13.6969 31.0036 14.119 31.0267 14.3979C31.0403 14.5536 31.1234 14.7406 31.2867 14.7094C31.4501 14.6783 31.559 14.4913 31.6353 14.3636C31.7266 14.2242 31.7788 14.0563 31.785 13.8822C31.785 13.728 31.7197 13.5536 31.5563 13.5489Z" fill="#FF7D09"/>
<path id="Vector_18" d="M33.8366 13.6488C33.7944 13.6488 33.5534 13.493 33.3737 13.8731C33.194 14.2532 33.4431 14.6426 33.1164 14.8327C32.7896 15.0227 32.5214 15.0804 32.3131 14.5881C32.1048 14.0959 32.7747 13.2344 33.2498 13.2983C33.725 13.3622 33.8366 13.6503 33.8366 13.6503" fill="#EE6300"/>
<path id="Vector_19" d="M32.173 25.3083C32.1802 24.6696 32.1902 24.0309 32.2029 23.3922C32.2029 23.2364 32.0668 23.2364 32.0573 23.3922C32.0137 25.6541 32.0032 27.9165 32.0259 30.1794C32.0323 30.8181 32.0418 31.4568 32.0545 32.0954C32.0545 32.2512 32.2029 32.2512 32.2002 32.0954C32.1566 29.8336 32.1476 27.5712 32.173 25.3083Z" fill="#68E1FD"/>
<path id="Vector_20" d="M32.8128 14.7454C32.8128 14.7454 31.9156 14.4338 31.7237 14.0615L31.499 14.5616C31.8737 14.9115 32.3035 15.1759 32.7652 15.3404" fill="#00106F"/>
<path id="Vector_21" d="M34.3105 14.4616C34.2882 14.4426 34.2618 14.4311 34.2341 14.4284C34.2065 14.4256 34.1787 14.4317 34.1539 14.446C34.0011 14.5389 33.8374 14.606 33.6679 14.6454C33.4446 14.6765 32.8074 14.5628 32.6999 14.8821C32.6557 15.0316 32.6503 15.1925 32.6843 15.3454C32.7184 15.4983 32.7905 15.6366 32.8918 15.7436C33.0824 15.9804 33.9892 15.7093 34.2288 15.5489C34.4684 15.3884 34.5242 14.6454 34.5242 14.6454L34.3105 14.4616Z" fill="#00106F"/>
<path id="Vector_22" d="M34.5256 14.6475C34.3241 14.7439 34.1154 14.8195 33.902 14.8733C33.6583 14.9185 33.1995 14.8515 33.0852 15.0089C32.9686 15.2087 32.8855 15.4316 32.8401 15.6662C32.8401 15.6662 32.8537 15.8391 33.2349 15.8391C33.5806 15.8139 33.9194 15.7163 34.2342 15.551C34.3704 15.4762 34.4494 15.135 34.4494 15.135L34.5297 14.6475" fill="#68E1FD"/>
<path id="Vector_23" d="M29.4514 35.7119C29.4405 35.8443 29.4514 37.1264 29.4514 37.1264C29.4514 37.1264 29.7917 37.4379 29.7781 37.318C29.7645 37.198 30.0504 35.7119 30.0504 35.7119H29.4514Z" fill="#FF7F2E"/>
<path id="Vector_24" d="M44.7974 23.6129C45.1357 20.6927 44.2927 18.1559 42.9144 17.9469C41.5362 17.7379 40.1446 19.9358 39.8064 22.856C39.4681 25.7762 40.3111 28.313 41.6894 28.522C43.0676 28.731 44.4592 26.5331 44.7974 23.6129Z" fill="#FFB001"/>
<path id="Vector_25" d="M16.5405 25.9072V32.3361L23.5099 36.8427V30.473L16.5405 25.9072Z" fill="#2887FD"/>
<path id="Vector_26" d="M46.2315 28.0538C46.3381 27.1336 46.0722 26.3342 45.6376 26.2683C45.203 26.2024 44.7643 26.8949 44.6577 27.8152C44.5511 28.7354 44.817 29.5349 45.2516 29.6008C45.6862 29.6667 46.1249 28.9741 46.2315 28.0538Z" fill="#FFB001"/>
<path id="Vector_27" d="M28.4289 44.5766C28.3213 44.0065 28.0749 43.4114 27.6215 43.1637C27.2471 42.9581 26.8115 42.9051 26.4956 42.5967C26.5936 45.234 28.1879 45.0065 28.4779 44.9427C28.4678 44.8197 28.4514 44.6974 28.4289 44.5766Z" fill="#00C0B9"/>
<path id="Vector_28" d="M19.2716 22.3692C19.7318 22.12 20.1825 21.7103 20.2914 21.1479C20.3812 20.6806 20.3268 20.1868 20.5174 19.7646C18.2955 20.475 18.8523 22.1979 18.9721 22.5063C19.0742 22.4673 19.1742 22.4215 19.2716 22.3692Z" fill="#00C0B9"/>
<path id="Vector_29" d="M40.685 39.2926C41.4054 39.6375 42.1683 39.8519 42.9464 39.9282C43.7523 40.0252 44.5662 39.9848 45.3617 39.8082C46.0547 39.6524 46.7585 39.3627 47.3127 38.8455C47.4094 38.7549 47.5004 38.6565 47.585 38.5511C47.6245 38.5023 47.6539 38.4438 47.6708 38.3801C47.6878 38.3165 47.692 38.2492 47.683 38.1835C47.5564 37.2815 46.9437 34.881 44.007 34.7174C41.2487 34.5617 40.2412 37.241 39.9226 38.5246C39.9046 38.5983 39.9081 38.6767 39.9327 38.7479C39.9573 38.819 40.0015 38.879 40.0587 38.9187C40.2595 39.06 40.4688 39.185 40.685 39.2926Z" fill="#EE6300"/>
<path id="Vector_30" d="M43.3642 39.7036C42.9901 39.4029 42.6851 39.0031 42.4752 38.5384C42.2601 38.0124 42.1834 37.4263 42.2546 36.8513C42.3431 36.1005 42.6072 35.3107 43.0838 34.7842C40.998 35.2188 40.2002 37.4869 39.9333 38.5882C39.9203 38.6426 39.9227 38.7004 39.9404 38.753C39.958 38.8057 39.9899 38.8506 40.0313 38.8811C40.2485 39.0378 40.4761 39.1748 40.7121 39.2908C41.4325 39.6357 42.1954 39.8501 42.9735 39.9263C43.2185 39.9544 43.465 39.97 43.7128 39.9746C43.5957 39.8921 43.4772 39.8017 43.3642 39.7036Z" fill="#CE5A0B"/>
</g>
</g>
<defs>
<linearGradient id="paint0_linear_1_408" x1="38.1403" y1="42.3115" x2="60.7153" y2="29.9529" gradientUnits="userSpaceOnUse">
<stop stop-opacity="0"/>
<stop offset="1"/>
</linearGradient>
<linearGradient id="paint1_linear_1_408" x1="24.8745" y1="41.6691" x2="60.3124" y2="16.9126" gradientUnits="userSpaceOnUse">
<stop stop-opacity="0"/>
<stop offset="1"/>
</linearGradient>
</defs>
</svg>
