<svg width="32" height="32" viewBox="0 0 32 32" fill="none" xmlns="http://www.w3.org/2000/svg">
<g id="&#240;&#159;&#166;&#134; icon &#34;profile circled icon&#34;">
<path id="Vector" d="M16 1C7.71572 1 1 7.71572 1 16C1 24.2842 7.71572 31 16 31C24.2842 31 31 24.2842 31 16C31 7.71572 24.2842 1 16 1Z" stroke="black" stroke-width="2" stroke-linecap="round" stroke-linejoin="round"/>
<path id="Vector_2" d="M4.40625 25.5185C4.40625 25.5185 7.74978 21.25 15.9998 21.25C24.2498 21.25 27.5934 25.5185 27.5934 25.5185" stroke="black" stroke-width="2" stroke-linecap="round" stroke-linejoin="round"/>
<path id="Vector_3" d="M16 16C18.4854 16 20.5 13.9854 20.5 11.5C20.5 9.01473 18.4854 7 16 7C13.5147 7 11.5 9.01473 11.5 11.5C11.5 13.9854 13.5147 16 16 16Z" stroke="black" stroke-width="2" stroke-linecap="round" stroke-linejoin="round"/>
</g>
</svg>
