<svg width="43" height="45" viewBox="0 0 43 45" fill="none" xmlns="http://www.w3.org/2000/svg">
<g id="&#240;&#159;&#166;&#134; icon &#34;Google Play&#34;">
<path id="Vector" d="M31.7235 29.3491C37.1771 26.4247 41.3116 24.1964 41.668 24.0233C42.808 23.4312 43.9852 21.8642 41.668 20.6471C40.9198 20.2644 36.8917 18.1054 31.7235 15.3213L24.5591 22.3871L31.7235 29.3491Z" fill="#FFA700"/>
<path id="Vector_2" d="M24.5589 22.3872L1.74646 44.84C2.28189 44.9092 2.88646 44.7707 3.59918 44.3881C5.09555 43.5882 20.958 35.1286 31.7233 29.3509L24.5589 22.3872Z" fill="#D62D20"/>
<path id="Vector_3" d="M24.5587 22.3873L31.7232 15.3561C31.7232 15.3561 5.20351 1.22266 3.599 0.388123C2.99442 0.0383808 2.31716 -0.065503 1.71082 0.0383809L24.5587 22.3873Z" fill="#008744"/>
<path id="Vector_4" d="M24.5588 22.3872L1.71089 0.0383301C0.78364 0.247829 0 1.04774 0 2.68391V42.1944C0 43.6921 0.606346 44.7707 1.74635 44.8746L24.5588 22.3872Z" fill="#0057E7"/>
</g>
</svg>
